<?xml version="1.0" standalone="no"?>
<!DOCTYPE svg PUBLIC "-//W3C//DTD SVG 1.1//EN" "http://www.w3.org/Graphics/SVG/1.1/DTD/svg11.dtd" >
<svg xmlns="http://www.w3.org/2000/svg" xmlns:xlink="http://www.w3.org/1999/xlink" version="1.1">
<metadata>
Created by FontForge 20190801 at Mon Mar 27 09:08:44 2000
 By root
Copyright 1991 as an unpublished work by Bitstream Inc.  All rights reserved.  Confidential.
</metadata>
<defs>
<font id="AppleGaramond-Italic" horiz-adv-x="500" >
  <font-face 
    font-family="Apple Garamond"
    font-weight="400"
    font-style="italic"
    font-stretch="normal"
    units-per-em="1000"
    panose-1="2 0 5 6 8 0 0 9 0 4"
    ascent="800"
    descent="-200"
    x-height="457"
    cap-height="630"
    bbox="-184 -236 916 904"
    underline-thickness="65"
    underline-position="-143"
    slope="13"
    unicode-range="U+0020-FB02"
  />
<missing-glyph horiz-adv-x="217" 
 />
    <glyph glyph-name=".notdef" horiz-adv-x="217" 
 />
    <glyph glyph-name=".null" horiz-adv-x="0" 
 />
    <glyph glyph-name="nonmarkingreturn" 
 />
    <glyph glyph-name="space" unicode=" " horiz-adv-x="217" 
 />
    <glyph glyph-name="space" unicode="&#xa0;" horiz-adv-x="217" 
 />
    <glyph glyph-name="Acircumflex" unicode="&#xc2;" horiz-adv-x="469" 
d="M323 614q-5 26 -14 26q-6 0 -10.5 -5t-9.5 -14l-36 -63q-14 -23 -44 -76.5t-75 -141.5l-122 -240q-12 -24 -23 -39.5t-26 -23.5q-13 -7 -25.5 -9.5t-12.5 -15.5q0 -6 5 -10t11 -4q8 0 27.5 4t51.5 4q36 0 56.5 -3t26.5 -3q7 0 11.5 5t4.5 12q0 12 -10 14.5t-26 5.5
q-37 7 -37 37q0 6 2.5 17t8.5 23l55 114h173l16 -132q1 -8 1.5 -17.5t0.5 -17.5q0 -16 -9 -21.5t-20.5 -8.5t-20.5 -6.5t-9 -14.5q0 -13 20 -13q8 0 28 4.5t55 4.5q41 0 64.5 -4t31.5 -4q16 0 16 13q0 9 -4.5 12.5t-10.5 5t-13 2.5t-12 4q-6 4 -9 13t-5 24zM252 494l27 -228
h-148q26 55 56 112t65 116zM315 873l-120 -171h26l108 102l69 -102h22l-63 171h-42z" />
    <glyph glyph-name="Adieresis" unicode="&#xc4;" horiz-adv-x="469" 
d="M323 614q-5 26 -14 26q-6 0 -10.5 -5t-9.5 -14l-36 -63q-14 -23 -44 -76.5t-75 -141.5l-122 -240q-12 -24 -23 -39.5t-26 -23.5q-13 -7 -25.5 -9.5t-12.5 -15.5q0 -6 5 -10t11 -4q8 0 27.5 4t51.5 4q36 0 56.5 -3t26.5 -3q7 0 11.5 5t4.5 12q0 12 -10 14.5t-26 5.5
q-37 7 -37 37q0 6 2.5 17t8.5 23l55 114h173l16 -132q1 -8 1.5 -17.5t0.5 -17.5q0 -16 -9 -21.5t-20.5 -8.5t-20.5 -6.5t-9 -14.5q0 -13 20 -13q8 0 28 4.5t55 4.5q41 0 64.5 -4t31.5 -4q16 0 16 13q0 9 -4.5 12.5t-10.5 5t-13 2.5t-12 4q-6 4 -9 13t-5 24zM252 494l27 -228
h-148q26 55 56 112t65 116zM198 775q0 -20 14 -34.5t34 -14.5t34.5 14t14.5 35q0 19 -14.5 33.5t-34.5 14.5q-19 0 -33.5 -14.5t-14.5 -33.5zM382 775q0 -20 14 -34.5t34 -14.5t34 14t14 35q0 19 -14 33.5t-34 14.5q-19 0 -33.5 -14.5t-14.5 -33.5z" />
    <glyph glyph-name="Agrave" unicode="&#xc0;" horiz-adv-x="469" 
d="M323 614q-5 26 -14 26q-6 0 -10.5 -5t-9.5 -14l-36 -63q-14 -23 -44 -76.5t-75 -141.5l-122 -240q-12 -24 -23 -39.5t-26 -23.5q-13 -7 -25.5 -9.5t-12.5 -15.5q0 -6 5 -10t11 -4q8 0 27.5 4t51.5 4q36 0 56.5 -3t26.5 -3q7 0 11.5 5t4.5 12q0 12 -10 14.5t-26 5.5
q-37 7 -37 37q0 6 2.5 17t8.5 23l55 114h173l16 -132q1 -8 1.5 -17.5t0.5 -17.5q0 -16 -9 -21.5t-20.5 -8.5t-20.5 -6.5t-9 -14.5q0 -13 20 -13q8 0 28 4.5t55 4.5q41 0 64.5 -4t31.5 -4q16 0 16 13q0 9 -4.5 12.5t-10.5 5t-13 2.5t-12 4q-6 4 -9 13t-5 24zM252 494l27 -228
h-148q26 55 56 112t65 116zM289 850q-15 27 -34 27q-11 0 -18.5 -9.5t-7.5 -26.5q0 -10 6 -19t16 -20l95 -100h26z" />
    <glyph glyph-name="Aring" unicode="&#xc5;" horiz-adv-x="469" 
d="M323 614q-5 26 -14 26q-6 0 -10.5 -5t-9.5 -14l-36 -63q-14 -23 -44 -76.5t-75 -141.5l-122 -240q-12 -24 -23 -39.5t-26 -23.5q-13 -7 -25.5 -9.5t-12.5 -15.5q0 -6 5 -10t11 -4q8 0 27.5 4t51.5 4q36 0 56.5 -3t26.5 -3q7 0 11.5 5t4.5 12q0 12 -10 14.5t-26 5.5
q-37 7 -37 37q0 6 2.5 17t8.5 23l55 114h173l16 -132q1 -8 1.5 -17.5t0.5 -17.5q0 -16 -9 -21.5t-20.5 -8.5t-20.5 -6.5t-9 -14.5q0 -13 20 -13q8 0 28 4.5t55 4.5q41 0 64.5 -4t31.5 -4q16 0 16 13q0 9 -4.5 12.5t-10.5 5t-13 2.5t-12 4q-6 4 -9 13t-5 24zM252 494l27 -228
h-148q26 55 56 112t65 116zM323 904q-24 0 -45.5 -9t-37.5 -25t-25 -37.5t-9 -45.5t9 -45.5t25 -37.5t37.5 -25.5t45.5 -9.5q25 0 46.5 9t37.5 25t25 37.5t9 46.5q0 24 -9 45.5t-25 37.5t-37.5 25t-46.5 9zM324 862q32 0 53.5 -21.5t21.5 -53.5t-21.5 -54t-53.5 -22t-54 22
t-22 54t22 53.5t54 21.5z" />
    <glyph glyph-name="Atilde" unicode="&#xc3;" horiz-adv-x="469" 
d="M323 614q-5 26 -14 26q-6 0 -10.5 -5t-9.5 -14l-36 -63q-14 -23 -44 -76.5t-75 -141.5l-122 -240q-12 -24 -23 -39.5t-26 -23.5q-13 -7 -25.5 -9.5t-12.5 -15.5q0 -6 5 -10t11 -4q8 0 27.5 4t51.5 4q36 0 56.5 -3t26.5 -3q7 0 11.5 5t4.5 12q0 12 -10 14.5t-26 5.5
q-37 7 -37 37q0 6 2.5 17t8.5 23l55 114h173l16 -132q1 -8 1.5 -17.5t0.5 -17.5q0 -16 -9 -21.5t-20.5 -8.5t-20.5 -6.5t-9 -14.5q0 -13 20 -13q8 0 28 4.5t55 4.5q41 0 64.5 -4t31.5 -4q16 0 16 13q0 9 -4.5 12.5t-10.5 5t-13 2.5t-12 4q-6 4 -9 13t-5 24zM252 494l27 -228
h-148q26 55 56 112t65 116zM420 835q-9 -41 -40 -41q-13 0 -22 4l-51 18q-8 3 -15.5 4t-13.5 1q-55 0 -67 -90h19q6 37 36 37q10 0 27 -6l51 -18q13 -5 24 -5q56 0 71 96h-19z" />
    <glyph glyph-name="B" unicode="B" horiz-adv-x="489" 
d="M199 403l20 77q11 45 19 72t12 38q17 2 27 3.5t15 1.5q46 0 67 -19.5t21 -61.5q0 -72 -39.5 -111.5t-119.5 -39.5q-28 0 -28 8q0 6 2 13.5t4 18.5zM316 350q78 27 115 65.5t37 93.5q0 58 -33 88.5t-99 30.5q-37 0 -74.5 -2.5t-75.5 -2.5q-29 0 -47.5 2t-25.5 2
q-10 0 -15 -3t-5 -12q0 -11 7.5 -12.5t16 -3.5t16 -8.5t7.5 -26.5q0 -7 -1 -18t-4 -23l-104 -439q-6 -26 -17 -34.5t-22.5 -11.5t-19.5 -5.5t-8 -15.5q0 -16 17 -16q6 0 22 3.5t44 3.5q44 0 88 -3.5t89 -3.5q105 0 160 54t55 146q0 63 -30 100t-93 52zM133 136l46 192
q13 2 24.5 3t22.5 1q57 0 87.5 -30.5t30.5 -87.5q0 -86 -40 -134t-120 -48q-33 0 -47.5 9.5t-14.5 34.5q0 11 3 26t8 34z" />
    <glyph glyph-name="C" unicode="C" horiz-adv-x="490" 
d="M458 648q-65 0 -132 -23.5t-133 -71.5q-87 -63 -129.5 -143.5t-42.5 -177.5q0 -118 60.5 -183.5t176.5 -65.5q59 0 97 16t47 35q4 8 6 27.5t8 48.5q4 19 9 33.5t5 25.5q0 18 -10 18q-13 0 -18 -19t-20 -50q-23 -48 -59 -75t-72 -27q-59 0 -95 55.5t-36 156.5
q0 87 35.5 167.5t95.5 136.5q44 41 91.5 60.5t84.5 19.5q21 0 29 -10t8 -33q0 -26 -2 -44t-2 -28q0 -23 12 -23q11 0 15 12t9 36q9 45 15.5 68t6.5 28q0 17 -14 23.5t-46 6.5z" />
    <glyph glyph-name="Ccedilla" unicode="&#xc7;" horiz-adv-x="490" 
d="M458 648q-65 0 -132 -23.5t-133 -71.5q-87 -63 -129.5 -143.5t-42.5 -177.5q0 -118 60.5 -183.5t176.5 -65.5q59 0 97 16t47 35q4 8 6 27.5t8 48.5q4 19 9 33.5t5 25.5q0 18 -10 18q-13 0 -18 -19t-20 -50q-23 -48 -59 -75t-72 -27q-59 0 -95 55.5t-36 156.5
q0 87 35.5 167.5t95.5 136.5q44 41 91.5 60.5t84.5 19.5q21 0 29 -10t8 -33q0 -26 -2 -44t-2 -28q0 -23 12 -23q11 0 15 12t9 36q9 45 15.5 68t6.5 28q0 17 -14 23.5t-46 6.5zM210 0l-24 -95q11 3 19 4t16 1q21 0 32.5 -11.5t11.5 -31.5q0 -46 -48 -46q-14 0 -37 8.5
t-50 27.5l-13 -39q34 -17 61.5 -26.5t51.5 -9.5q42 0 64.5 22.5t22.5 62.5q0 37 -19 59t-49 22q-10 0 -28 -3l14 55h-25z" />
    <glyph glyph-name="D" unicode="D" horiz-adv-x="581" 
d="M44 121q-7 -29 -13 -46.5t-29 -28.5q-11 -6 -21 -8.5t-17 -5t-11 -6.5t-4 -12q0 -10 3.5 -13t14.5 -3q4 0 29 3t76 3q43 0 77.5 -2t62.5 -2q73 0 128 23t105 76q54 57 83 130t29 151q0 118 -58.5 183.5t-168.5 65.5q-23 0 -51.5 -2t-63.5 -2q-44 0 -70.5 3t-36.5 3
q-24 0 -24 -14q0 -11 11.5 -13t27.5 -4q22 -3 22 -33q0 -1 -1 -11.5t-6 -29.5zM128 107l97 405q7 28 12 45.5t12.5 27.5t18.5 13.5t30 3.5q85 0 125.5 -49t40.5 -156q0 -77 -19.5 -144.5t-56 -117.5t-88 -79t-115.5 -29q-35 0 -48.5 9.5t-13.5 35.5q0 11 1.5 19t3.5 16z" />
    <glyph glyph-name="E" unicode="E" horiz-adv-x="449" 
d="M465 595q5 22 5 24q0 14 -14 14q-3 0 -22 -2.5t-59 -2.5h-173q-43 0 -63 1.5t-23 1.5q-11 0 -15.5 -3t-4.5 -12q0 -10 7.5 -12t16.5 -4.5t16.5 -8t7.5 -22.5q0 -10 -1 -22t-4 -23l-105 -443q-5 -24 -14.5 -33t-25.5 -13t-28.5 -4.5t-12.5 -16.5t23 -16q5 0 50.5 3.5
t145.5 3.5q78 0 118 -2t45 -2h4q17 0 21 5t8 23l21 97q2 8 2 12v7q0 5 -3.5 9.5t-6.5 4.5q-6 0 -10 -6.5t-8 -17t-10.5 -24t-17.5 -27.5q-18 -23 -44.5 -35t-53.5 -12h-68q-20 0 -29.5 9t-9.5 30q0 8 2.5 25t8.5 43l40 177h81q35 0 46 -11.5t11 -38.5q0 -21 -0.5 -32.5
t-0.5 -13.5q0 -16 12 -16q10 0 13.5 16t10.5 49q14 71 26 107t12 44t-3.5 13t-8.5 5q-7 0 -10.5 -5.5t-6.5 -14.5t-7.5 -20t-14.5 -22q-14 -16 -31.5 -20.5t-43.5 -4.5h-76l57 242q23 2 43 3t37 1q49 0 66 -19.5t17 -67.5q0 -16 2.5 -23.5t11.5 -7.5q12 0 18 22z" />
    <glyph glyph-name="Eacute" unicode="&#xc9;" horiz-adv-x="449" 
d="M465 595q5 22 5 24q0 14 -14 14q-3 0 -22 -2.5t-59 -2.5h-173q-43 0 -63 1.5t-23 1.5q-11 0 -15.5 -3t-4.5 -12q0 -10 7.5 -12t16.5 -4.5t16.5 -8t7.5 -22.5q0 -10 -1 -22t-4 -23l-105 -443q-5 -24 -14.5 -33t-25.5 -13t-28.5 -4.5t-12.5 -16.5t23 -16q5 0 50.5 3.5
t145.5 3.5q78 0 118 -2t45 -2h4q17 0 21 5t8 23l21 97q2 8 2 12v7q0 5 -3.5 9.5t-6.5 4.5q-6 0 -10 -6.5t-8 -17t-10.5 -24t-17.5 -27.5q-18 -23 -44.5 -35t-53.5 -12h-68q-20 0 -29.5 9t-9.5 30q0 8 2.5 25t8.5 43l40 177h81q35 0 46 -11.5t11 -38.5q0 -21 -0.5 -32.5
t-0.5 -13.5q0 -16 12 -16q10 0 13.5 16t10.5 49q14 71 26 107t12 44t-3.5 13t-8.5 5q-7 0 -10.5 -5.5t-6.5 -14.5t-7.5 -20t-14.5 -22q-14 -16 -31.5 -20.5t-43.5 -4.5h-76l57 242q23 2 43 3t37 1q49 0 66 -19.5t17 -67.5q0 -16 2.5 -23.5t11.5 -7.5q12 0 18 22zM406 801
q27 22 27 42q0 14 -7.5 24t-18.5 10q-16 0 -32 -21l-117 -154h28z" />
    <glyph glyph-name="Ecircumflex" unicode="&#xca;" horiz-adv-x="449" 
d="M465 595q5 22 5 24q0 14 -14 14q-3 0 -22 -2.5t-59 -2.5h-173q-43 0 -63 1.5t-23 1.5q-11 0 -15.5 -3t-4.5 -12q0 -10 7.5 -12t16.5 -4.5t16.5 -8t7.5 -22.5q0 -10 -1 -22t-4 -23l-105 -443q-5 -24 -14.5 -33t-25.5 -13t-28.5 -4.5t-12.5 -16.5t23 -16q5 0 50.5 3.5
t145.5 3.5q78 0 118 -2t45 -2h4q17 0 21 5t8 23l21 97q2 8 2 12v7q0 5 -3.5 9.5t-6.5 4.5q-6 0 -10 -6.5t-8 -17t-10.5 -24t-17.5 -27.5q-18 -23 -44.5 -35t-53.5 -12h-68q-20 0 -29.5 9t-9.5 30q0 8 2.5 25t8.5 43l40 177h81q35 0 46 -11.5t11 -38.5q0 -21 -0.5 -32.5
t-0.5 -13.5q0 -16 12 -16q10 0 13.5 16t10.5 49q14 71 26 107t12 44t-3.5 13t-8.5 5q-7 0 -10.5 -5.5t-6.5 -14.5t-7.5 -20t-14.5 -22q-14 -16 -31.5 -20.5t-43.5 -4.5h-76l57 242q23 2 43 3t37 1q49 0 66 -19.5t17 -67.5q0 -16 2.5 -23.5t11.5 -7.5q12 0 18 22zM322 873
l-120 -171h26l108 102l69 -102h22l-63 171h-42z" />
    <glyph glyph-name="Edieresis" unicode="&#xcb;" horiz-adv-x="449" 
d="M465 595q5 22 5 24q0 14 -14 14q-3 0 -22 -2.5t-59 -2.5h-173q-43 0 -63 1.5t-23 1.5q-11 0 -15.5 -3t-4.5 -12q0 -10 7.5 -12t16.5 -4.5t16.5 -8t7.5 -22.5q0 -10 -1 -22t-4 -23l-105 -443q-5 -24 -14.5 -33t-25.5 -13t-28.5 -4.5t-12.5 -16.5t23 -16q5 0 50.5 3.5
t145.5 3.5q78 0 118 -2t45 -2h4q17 0 21 5t8 23l21 97q2 8 2 12v7q0 5 -3.5 9.5t-6.5 4.5q-6 0 -10 -6.5t-8 -17t-10.5 -24t-17.5 -27.5q-18 -23 -44.5 -35t-53.5 -12h-68q-20 0 -29.5 9t-9.5 30q0 8 2.5 25t8.5 43l40 177h81q35 0 46 -11.5t11 -38.5q0 -21 -0.5 -32.5
t-0.5 -13.5q0 -16 12 -16q10 0 13.5 16t10.5 49q14 71 26 107t12 44t-3.5 13t-8.5 5q-7 0 -10.5 -5.5t-6.5 -14.5t-7.5 -20t-14.5 -22q-14 -16 -31.5 -20.5t-43.5 -4.5h-76l57 242q23 2 43 3t37 1q49 0 66 -19.5t17 -67.5q0 -16 2.5 -23.5t11.5 -7.5q12 0 18 22zM205 775
q0 -20 14 -34.5t34 -14.5t34.5 14t14.5 35q0 19 -14.5 33.5t-34.5 14.5q-19 0 -33.5 -14.5t-14.5 -33.5zM389 775q0 -20 14 -34.5t34 -14.5t34 14t14 35q0 19 -14 33.5t-34 14.5q-19 0 -33.5 -14.5t-14.5 -33.5z" />
    <glyph glyph-name="Egrave" unicode="&#xc8;" horiz-adv-x="449" 
d="M465 595q5 22 5 24q0 14 -14 14q-3 0 -22 -2.5t-59 -2.5h-173q-43 0 -63 1.5t-23 1.5q-11 0 -15.5 -3t-4.5 -12q0 -10 7.5 -12t16.5 -4.5t16.5 -8t7.5 -22.5q0 -10 -1 -22t-4 -23l-105 -443q-5 -24 -14.5 -33t-25.5 -13t-28.5 -4.5t-12.5 -16.5t23 -16q5 0 50.5 3.5
t145.5 3.5q78 0 118 -2t45 -2h4q17 0 21 5t8 23l21 97q2 8 2 12v7q0 5 -3.5 9.5t-6.5 4.5q-6 0 -10 -6.5t-8 -17t-10.5 -24t-17.5 -27.5q-18 -23 -44.5 -35t-53.5 -12h-68q-20 0 -29.5 9t-9.5 30q0 8 2.5 25t8.5 43l40 177h81q35 0 46 -11.5t11 -38.5q0 -21 -0.5 -32.5
t-0.5 -13.5q0 -16 12 -16q10 0 13.5 16t10.5 49q14 71 26 107t12 44t-3.5 13t-8.5 5q-7 0 -10.5 -5.5t-6.5 -14.5t-7.5 -20t-14.5 -22q-14 -16 -31.5 -20.5t-43.5 -4.5h-76l57 242q23 2 43 3t37 1q49 0 66 -19.5t17 -67.5q0 -16 2.5 -23.5t11.5 -7.5q12 0 18 22zM296 850
q-15 27 -34 27q-11 0 -18.5 -9.5t-7.5 -26.5q0 -10 6 -19t16 -20l95 -100h26z" />
    <glyph glyph-name="F" unicode="F" horiz-adv-x="430" 
d="M465 595q5 22 5 24q0 14 -14 14q-3 0 -22 -2.5t-59 -2.5h-173q-43 0 -63 1.5t-23 1.5q-11 0 -15.5 -3t-4.5 -12q0 -10 7.5 -12t16.5 -4.5t16.5 -8t7.5 -22.5q0 -10 -1 -22t-4 -23l-105 -442q-6 -25 -14.5 -34t-25.5 -13q-16 -3 -28.5 -4t-12.5 -17t23 -16q7 0 30 3t63 3
q41 0 64.5 -2t29.5 -2q18 0 18 15q0 10 -8.5 12.5t-18.5 4.5t-18.5 7t-8.5 22t4 37.5t10 45.5l39 169h81q34 0 45.5 -11.5t11.5 -38.5q0 -20 -0.5 -31t-0.5 -14q0 -17 12 -17q11 0 14.5 22t12.5 66q11 52 22 85t11 50q0 5 -3.5 8.5t-7.5 3.5q-5 0 -8 -5t-6 -13t-7 -17.5
t-11 -19.5q-15 -20 -33 -26.5t-48 -6.5h-76l58 250q21 2 40.5 3t39.5 1q49 0 66 -19.5t17 -67.5q0 -16 2.5 -23.5t11.5 -7.5q12 0 18 22z" />
    <glyph glyph-name="G" unicode="G" horiz-adv-x="572" 
d="M338 22q-25 -13 -56 -13q-34 0 -63.5 15.5t-51.5 44.5t-34.5 69.5t-12.5 91.5q0 41 9 83t26.5 81t41.5 74.5t54 63.5q87 81 190 81q32 0 47 -6.5t15 -31.5q0 -14 -2 -29.5t-2 -32.5q0 -28 14 -28q9 0 14.5 11t12.5 34q25 87 25 91q0 15 -18 21t-56 6q-86 0 -157.5 -21.5
t-139.5 -71.5q-173 -127 -173 -324q0 -120 65.5 -184t193.5 -64q43 0 79 6t71 26l43 183q6 27 12 38.5t25 16.5q14 4 25.5 5.5t11.5 14.5q0 6 -5 10.5t-13 4.5q-9 0 -33.5 -2.5t-64.5 -2.5q-43 0 -64.5 2t-25.5 2q-22 0 -22 -15q0 -11 9 -14t20 -5.5t20 -8t9 -20.5
q0 -7 -0.5 -10.5t-0.5 -5.5z" />
    <glyph glyph-name="H" unicode="H" horiz-adv-x="602" 
d="M237 549q6 24 15.5 33t28.5 12q17 2 27 3t10 16q0 17 -24 17q-7 0 -29.5 -3t-62.5 -3q-35 0 -56 2.5t-27 2.5q-11 0 -16 -3t-5 -14q0 -10 7 -13t16 -5t16 -7.5t7 -20.5q0 -10 -1 -22.5t-4 -23.5l-104 -439q-5 -23 -15.5 -33t-25.5 -13q-16 -4 -28.5 -4.5t-12.5 -16.5
t23 -16q7 0 30 3t63 3q41 0 63.5 -3t27.5 -3q13 0 18.5 3.5t5.5 14.5q0 10 -9.5 12.5t-20.5 5t-20.5 8t-9.5 22.5q0 9 2.5 20t5.5 24l48 204h244l-39 -186q-8 -38 -16 -59.5t-21 -27.5q-10 -5 -20 -5.5t-18 -1.5t-13 -4t-5 -13q0 -17 23 -17q8 0 30.5 3t62.5 3q38 0 61.5 -3
t33.5 -3q21 0 21 16t-10.5 16.5t-23.5 3.5q-14 4 -19.5 11.5t-5.5 21.5q0 10 2 20t4 21l92 441q5 24 13.5 33t25.5 12q15 3 24 4t9 15q0 17 -21 17q-5 0 -25.5 -3t-56.5 -3t-60 2.5t-35 2.5q-19 0 -19 -16q0 -13 8.5 -14.5t19.5 -3.5q18 -3 24 -10.5t6 -23.5q0 -6 -2 -16.5
t-5 -24.5l-36 -169h-245z" />
    <glyph glyph-name="I" unicode="I" horiz-adv-x="261" 
d="M233 549q6 24 16 33t29 12q17 2 26.5 3t9.5 16q0 17 -23 17q-7 0 -30 -3t-63 -3q-35 0 -56 2.5t-27 2.5q-11 0 -16 -3t-5 -14q0 -10 7 -13t16 -5t16 -7.5t7 -20.5q0 -10 -1 -22.5t-4 -23.5l-104 -439q-5 -23 -15.5 -33t-25.5 -13q-16 -4 -28.5 -4.5t-12.5 -16.5t23 -16
q7 0 30 3t63 3q41 0 63.5 -3t27.5 -3q13 0 19 3.5t6 14.5q0 10 -9.5 12.5t-20.5 5t-20.5 8t-9.5 22.5q0 9 2 19.5t5 24.5z" />
    <glyph glyph-name="Iacute" unicode="&#xcd;" horiz-adv-x="261" 
d="M233 549q6 24 16 33t29 12q17 2 26.5 3t9.5 16q0 17 -23 17q-7 0 -30 -3t-63 -3q-35 0 -56 2.5t-27 2.5q-11 0 -16 -3t-5 -14q0 -10 7 -13t16 -5t16 -7.5t7 -20.5q0 -10 -1 -22.5t-4 -23.5l-104 -439q-5 -23 -15.5 -33t-25.5 -13q-16 -4 -28.5 -4.5t-12.5 -16.5t23 -16
q7 0 30 3t63 3q41 0 63.5 -3t27.5 -3q13 0 19 3.5t6 14.5q0 10 -9.5 12.5t-20.5 5t-20.5 8t-9.5 22.5q0 9 2 19.5t5 24.5zM313 801q27 22 27 42q0 14 -7.5 24t-18.5 10q-16 0 -32 -21l-117 -154h28z" />
    <glyph glyph-name="Icircumflex" unicode="&#xce;" horiz-adv-x="261" 
d="M233 549q6 24 16 33t29 12q17 2 26.5 3t9.5 16q0 17 -23 17q-7 0 -30 -3t-63 -3q-35 0 -56 2.5t-27 2.5q-11 0 -16 -3t-5 -14q0 -10 7 -13t16 -5t16 -7.5t7 -20.5q0 -10 -1 -22.5t-4 -23.5l-104 -439q-5 -23 -15.5 -33t-25.5 -13q-16 -4 -28.5 -4.5t-12.5 -16.5t23 -16
q7 0 30 3t63 3q41 0 63.5 -3t27.5 -3q13 0 19 3.5t6 14.5q0 10 -9.5 12.5t-20.5 5t-20.5 8t-9.5 22.5q0 9 2 19.5t5 24.5zM229 873l-120 -171h26l108 102l69 -102h22l-63 171h-42z" />
    <glyph glyph-name="Idieresis" unicode="&#xcf;" horiz-adv-x="261" 
d="M233 549q6 24 16 33t29 12q17 2 26.5 3t9.5 16q0 17 -23 17q-7 0 -30 -3t-63 -3q-35 0 -56 2.5t-27 2.5q-11 0 -16 -3t-5 -14q0 -10 7 -13t16 -5t16 -7.5t7 -20.5q0 -10 -1 -22.5t-4 -23.5l-104 -439q-5 -23 -15.5 -33t-25.5 -13q-16 -4 -28.5 -4.5t-12.5 -16.5t23 -16
q7 0 30 3t63 3q41 0 63.5 -3t27.5 -3q13 0 19 3.5t6 14.5q0 10 -9.5 12.5t-20.5 5t-20.5 8t-9.5 22.5q0 9 2 19.5t5 24.5zM112 775q0 -20 14 -34.5t34 -14.5t34.5 14t14.5 35q0 19 -14.5 33.5t-34.5 14.5q-19 0 -33.5 -14.5t-14.5 -33.5zM296 775q0 -20 14 -34.5t34 -14.5
t34 14t14 35q0 19 -14 33.5t-34 14.5q-19 0 -33.5 -14.5t-14.5 -33.5z" />
    <glyph glyph-name="Igrave" unicode="&#xcc;" horiz-adv-x="261" 
d="M233 549q6 24 16 33t29 12q17 2 26.5 3t9.5 16q0 17 -23 17q-7 0 -30 -3t-63 -3q-35 0 -56 2.5t-27 2.5q-11 0 -16 -3t-5 -14q0 -10 7 -13t16 -5t16 -7.5t7 -20.5q0 -10 -1 -22.5t-4 -23.5l-104 -439q-5 -23 -15.5 -33t-25.5 -13q-16 -4 -28.5 -4.5t-12.5 -16.5t23 -16
q7 0 30 3t63 3q41 0 63.5 -3t27.5 -3q13 0 19 3.5t6 14.5q0 10 -9.5 12.5t-20.5 5t-20.5 8t-9.5 22.5q0 9 2 19.5t5 24.5zM203 850q-15 27 -34 27q-11 0 -18.5 -9.5t-7.5 -26.5q0 -10 6 -19t16 -20l95 -100h26z" />
    <glyph glyph-name="J" unicode="J" horiz-adv-x="260" 
d="M233 549q6 24 15.5 33t28.5 12q17 2 27 3t10 16q0 17 -25 17q-11 0 -32.5 -3.5t-54.5 -3.5q-41 0 -66.5 4t-35.5 4q-28 0 -28 -18q0 -7 3.5 -9.5t9.5 -3.5t13 -1t15 -2q16 -5 21.5 -13t5.5 -23q0 -7 -1.5 -18t-4.5 -23l-116 -494q-20 -84 -36.5 -128t-45.5 -44
q-10 0 -15 8.5t-11 25.5q-8 24 -19.5 36t-29.5 12q-19 0 -32 -15t-13 -41q0 -31 20.5 -49.5t53.5 -18.5q34 0 69 20t67 58t58.5 93t43.5 125z" />
    <glyph glyph-name="K" unicode="K" horiz-adv-x="506" 
d="M237 549q5 24 15.5 33t29.5 12q17 2 26.5 3t9.5 16q0 17 -23 17q-7 0 -30 -3t-63 -3q-35 0 -55.5 2.5t-26.5 2.5q-11 0 -16.5 -3t-5.5 -14q0 -10 7.5 -13t16 -5t16 -7.5t7.5 -20.5q0 -10 -2 -22.5t-4 -23.5l-104 -439q-5 -23 -14.5 -33t-26.5 -13t-29 -4.5t-12 -16.5
q0 -16 24 -16q8 0 30 3t62 3t63 -3t29 -3q12 0 18 3.5t6 14.5q0 10 -9.5 12.5t-20.5 5t-20.5 8t-9.5 22.5q0 6 1.5 17t5.5 27l44 177l24 21q12 -14 18 -28t11 -26l74 -175q10 -23 16 -38t11.5 -24t12 -12.5t16.5 -3.5q9 0 26 1.5t43 1.5q19 0 29.5 -1.5t15.5 -1.5
q15 0 15 11q0 12 -15 15t-32 12t-27 29t-23 49l-89 199q-6 14 -12.5 28.5t-15.5 30.5l189 170q23 21 42.5 32.5t33.5 18t21.5 10.5t7.5 11q0 14 -16 14q-8 0 -25.5 -3t-45.5 -3q-32 0 -51 2.5t-26 2.5q-18 0 -18 -14q0 -9 7.5 -12.5t16.5 -6t16.5 -6t7.5 -12.5
q0 -11 -14 -23l-233 -220z" />
    <glyph glyph-name="L" unicode="L" horiz-adv-x="393" 
d="M237 549q6 24 15.5 33t28.5 12q17 2 27 3t10 16q0 17 -24 17q-7 0 -29.5 -3t-62.5 -3q-35 0 -56 2.5t-27 2.5q-11 0 -16 -3t-5 -14q0 -10 7 -13t16 -5t16 -7.5t7 -20.5q0 -10 -1 -22.5t-4 -23.5l-104 -439q-5 -23 -15.5 -33t-25.5 -13q-16 -4 -28.5 -4.5t-12.5 -16.5
t23 -16q5 0 44.5 4t121.5 4q54 0 92.5 -3t62.5 -3q14 0 21 3.5t11 17.5l25 91q5 22 5 24q0 16 -11 16q-7 0 -11 -6t-8.5 -16.5t-11 -23.5t-19.5 -27q-25 -27 -53.5 -35t-70.5 -8q-27 0 -38.5 5t-11.5 21q0 10 5 32z" />
    <glyph glyph-name="M" unicode="M" horiz-adv-x="645" 
d="M276 603q-1 17 -5 21.5t-21 4.5q-11 0 -22.5 -1.5t-23.5 -1.5q-35 0 -55.5 1.5t-28.5 1.5q-10 0 -14.5 -2t-4.5 -10q0 -10 7.5 -11.5t21.5 -3.5q20 -3 26.5 -6.5t6.5 -18.5q0 -11 -3 -23l-130 -432q-7 -22 -12 -36.5t-10.5 -24.5t-13 -16t-18.5 -10q-17 -7 -29.5 -10
t-12.5 -16t13 -13q4 0 26 3t68 3q24 0 41 -2t26 -2q7 0 12 5t5 12q0 11 -8.5 12t-22.5 4q-19 5 -29 13.5t-10 19.5q0 15 30 129.5t102 325.5l25 -478q1 -19 4 -28.5t12 -9.5t13.5 5.5t9.5 16.5l270 510l-86 -422q-8 -40 -17 -57.5t-34 -24.5q-8 -2 -16 -2.5t-14 -2t-9.5 -4
t-3.5 -9.5q0 -15 25 -15q17 0 40 3.5t53 3.5q35 0 59 -3.5t37 -3.5q26 0 26 18q0 11 -9 12t-23 2q-28 2 -28 41q0 13 4 33l79 421q6 32 10.5 46.5t25.5 22.5q9 4 17.5 5.5t14.5 3.5t10 5t4 9q0 14 -13 14q-2 0 -14.5 -2.5t-36.5 -2.5l-90 3q-66 -133 -126.5 -244
t-114.5 -204z" />
    <glyph glyph-name="N" unicode="N" horiz-adv-x="541" 
d="M244 609q-5 14 -10 17.5t-16 3.5q-5 0 -15.5 -1t-27.5 -1q-24 0 -40.5 2.5t-24.5 2.5q-18 0 -18 -14q0 -10 8.5 -12t18.5 -2.5t18.5 -3t8.5 -12.5q0 -6 -1 -16t-4 -21l-87 -341q-19 -75 -31 -116.5t-28 -52.5q-9 -6 -17.5 -9t-15.5 -5.5t-11.5 -6.5t-4.5 -11
q0 -13 11 -13q5 0 26 4t58 4q18 0 32.5 -2.5t25.5 -2.5q7 0 12 4t5 10q0 9 -9.5 12.5t-21.5 7t-21.5 10t-9.5 20.5q0 21 12 71l103 405l178 -500q15 -41 29 -41q10 0 14.5 10t10.5 35l87 375q18 77 33 118.5t26 49.5q9 6 17.5 9t15.5 6t11.5 7t4.5 11q0 13 -15 13
q-11 0 -28.5 -3.5t-42.5 -3.5q-20 0 -35.5 2t-26.5 2q-21 0 -21 -14q0 -9 9.5 -12.5t20.5 -7t20.5 -9.5t9.5 -20q0 -17 -5 -40l-86 -361z" />
    <glyph glyph-name="Ntilde" unicode="&#xd1;" horiz-adv-x="541" 
d="M244 609q-5 14 -10 17.5t-16 3.5q-5 0 -15.5 -1t-27.5 -1q-24 0 -40.5 2.5t-24.5 2.5q-18 0 -18 -14q0 -10 8.5 -12t18.5 -2.5t18.5 -3t8.5 -12.5q0 -6 -1 -16t-4 -21l-87 -341q-19 -75 -31 -116.5t-28 -52.5q-9 -6 -17.5 -9t-15.5 -5.5t-11.5 -6.5t-4.5 -11
q0 -13 11 -13q5 0 26 4t58 4q18 0 32.5 -2.5t25.5 -2.5q7 0 12 4t5 10q0 9 -9.5 12.5t-21.5 7t-21.5 10t-9.5 20.5q0 21 12 71l103 405l178 -500q15 -41 29 -41q10 0 14.5 10t10.5 35l87 375q18 77 33 118.5t26 49.5q9 6 17.5 9t15.5 6t11.5 7t4.5 11q0 13 -15 13
q-11 0 -28.5 -3.5t-42.5 -3.5q-20 0 -35.5 2t-26.5 2q-21 0 -21 -14q0 -9 9.5 -12.5t20.5 -7t20.5 -9.5t9.5 -20q0 -17 -5 -40l-86 -361zM473 835q-9 -41 -40 -41q-13 0 -22 4l-51 18q-8 3 -15.5 4t-13.5 1q-55 0 -67 -90h19q6 37 36 37q10 0 27 -6l51 -18q13 -5 24 -5
q56 0 71 96h-19z" />
    <glyph glyph-name="O" unicode="O" horiz-adv-x="593" 
d="M333 649q-61 0 -116.5 -28t-98 -78.5t-67.5 -119.5t-25 -150q0 -67 17 -120.5t48 -91t73.5 -58t93.5 -20.5q60 0 117 29.5t103 86.5q42 53 65 118.5t23 140.5q0 65 -17.5 118.5t-48.5 92t-74 59.5t-93 21zM477 435q0 -81 -21.5 -162t-59.5 -149q-32 -57 -67.5 -85.5
t-80.5 -28.5q-63 0 -97.5 51t-34.5 151q0 34 5.5 73.5t16.5 80.5t26.5 82t35.5 77q26 48 64.5 73.5t80.5 25.5q59 0 95.5 -49t36.5 -140z" />
    <glyph glyph-name="OE" unicode="&#x152;" horiz-adv-x="778" 
d="M793 595q5 22 5 24q0 9 -3.5 11.5t-10.5 2.5q-10 0 -29.5 -4t-51.5 -4h-241q-23 0 -52 3t-67 3q-112 0 -198 -80q-58 -54 -88.5 -124.5t-30.5 -149.5q0 -61 17 -114.5t48 -93t73 -62.5t93 -23q16 0 88.5 11t203.5 11q51 0 79 -2.5t34 -2.5h4q17 0 21.5 5t8.5 23l21 97
q2 6 2 11v7q0 6 -3.5 10.5t-6.5 4.5q-6 0 -10 -6.5t-8 -17t-10.5 -24t-17.5 -27.5q-18 -23 -44.5 -35t-53.5 -12h-68q-21 0 -30 9t-9 30t11 68l40 177h81q34 0 45.5 -11t11.5 -39q0 -20 -0.5 -31.5t-0.5 -14.5q0 -16 12 -16q11 0 14 15.5t9 47.5q15 73 27 109.5t12 43.5
q0 8 -3 13t-8 5q-7 0 -10.5 -5.5t-6.5 -14.5t-8 -20t-15 -22q-15 -16 -32 -20.5t-43 -4.5h-76l56 242q26 2 46 3t35 1q49 0 66 -19.5t17 -67.5q0 -15 2.5 -23t11.5 -8q12 0 18 22zM463 505l-89 -379q-27 -115 -124 -115q-63 0 -98 52t-35 150q0 43 6.5 86.5t17 82.5
t24.5 72.5t29 57.5q61 94 152 94q57 0 88.5 -21.5t31.5 -57.5q0 -12 -3 -22z" />
    <glyph glyph-name="Oacute" unicode="&#xd3;" horiz-adv-x="593" 
d="M333 649q-61 0 -116.5 -28t-98 -78.5t-67.5 -119.5t-25 -150q0 -67 17 -120.5t48 -91t73.5 -58t93.5 -20.5q60 0 117 29.5t103 86.5q42 53 65 118.5t23 140.5q0 65 -17.5 118.5t-48.5 92t-74 59.5t-93 21zM477 435q0 -81 -21.5 -162t-59.5 -149q-32 -57 -67.5 -85.5
t-80.5 -28.5q-63 0 -97.5 51t-34.5 151q0 34 5.5 73.5t16.5 80.5t26.5 82t35.5 77q26 48 64.5 73.5t80.5 25.5q59 0 95.5 -49t36.5 -140zM478 801q27 22 27 42q0 14 -7.5 24t-18.5 10q-16 0 -32 -21l-117 -154h28z" />
    <glyph glyph-name="Ocircumflex" unicode="&#xd4;" horiz-adv-x="593" 
d="M333 649q-61 0 -116.5 -28t-98 -78.5t-67.5 -119.5t-25 -150q0 -67 17 -120.5t48 -91t73.5 -58t93.5 -20.5q60 0 117 29.5t103 86.5q42 53 65 118.5t23 140.5q0 65 -17.5 118.5t-48.5 92t-74 59.5t-93 21zM477 435q0 -81 -21.5 -162t-59.5 -149q-32 -57 -67.5 -85.5
t-80.5 -28.5q-63 0 -97.5 51t-34.5 151q0 34 5.5 73.5t16.5 80.5t26.5 82t35.5 77q26 48 64.5 73.5t80.5 25.5q59 0 95.5 -49t36.5 -140zM394 873l-120 -171h26l108 102l69 -102h22l-63 171h-42z" />
    <glyph glyph-name="Odieresis" unicode="&#xd6;" horiz-adv-x="593" 
d="M333 649q-61 0 -116.5 -28t-98 -78.5t-67.5 -119.5t-25 -150q0 -67 17 -120.5t48 -91t73.5 -58t93.5 -20.5q60 0 117 29.5t103 86.5q42 53 65 118.5t23 140.5q0 65 -17.5 118.5t-48.5 92t-74 59.5t-93 21zM477 435q0 -81 -21.5 -162t-59.5 -149q-32 -57 -67.5 -85.5
t-80.5 -28.5q-63 0 -97.5 51t-34.5 151q0 34 5.5 73.5t16.5 80.5t26.5 82t35.5 77q26 48 64.5 73.5t80.5 25.5q59 0 95.5 -49t36.5 -140zM277 775q0 -20 14 -34.5t34 -14.5t34.5 14t14.5 35q0 19 -14.5 33.5t-34.5 14.5q-19 0 -33.5 -14.5t-14.5 -33.5zM461 775
q0 -20 14 -34.5t34 -14.5t34 14t14 35q0 19 -14 33.5t-34 14.5q-19 0 -33.5 -14.5t-14.5 -33.5z" />
    <glyph glyph-name="Ograve" unicode="&#xd2;" horiz-adv-x="593" 
d="M333 649q-61 0 -116.5 -28t-98 -78.5t-67.5 -119.5t-25 -150q0 -67 17 -120.5t48 -91t73.5 -58t93.5 -20.5q60 0 117 29.5t103 86.5q42 53 65 118.5t23 140.5q0 65 -17.5 118.5t-48.5 92t-74 59.5t-93 21zM477 435q0 -81 -21.5 -162t-59.5 -149q-32 -57 -67.5 -85.5
t-80.5 -28.5q-63 0 -97.5 51t-34.5 151q0 34 5.5 73.5t16.5 80.5t26.5 82t35.5 77q26 48 64.5 73.5t80.5 25.5q59 0 95.5 -49t36.5 -140zM368 850q-15 27 -34 27q-11 0 -18.5 -9.5t-7.5 -26.5q0 -10 6 -19t16 -20l95 -100h26z" />
    <glyph glyph-name="Oslash" unicode="&#xd8;" horiz-adv-x="593" 
d="M492 722l-56 -102q-50 26 -101 26q-62 0 -117.5 -28t-98.5 -77.5t-68 -118t-25 -150.5q0 -154 85 -232l-74 -134h40l62 110q49 -33 119 -33q61 0 118 29t103 86q43 53 65 118.5t22 140.5q0 79 -26 141.5t-74 100.5l69 123h-43zM421 594l-284 -507l-3 4l-5 9q-1 1 -4 7.5
t-6.5 30t-3.5 64.5q0 63 17.5 140.5t52.5 150.5q60 127 159 127q40 0 77 -26zM447 562q17 -29 23.5 -61.5t6.5 -71.5q0 -65 -16.5 -137t-49.5 -141q-34 -71 -73.5 -106t-90.5 -35q-27 0 -48 10t-40 31z" />
    <glyph glyph-name="Otilde" unicode="&#xd5;" horiz-adv-x="593" 
d="M333 649q-61 0 -116.5 -28t-98 -78.5t-67.5 -119.5t-25 -150q0 -67 17 -120.5t48 -91t73.5 -58t93.5 -20.5q60 0 117 29.5t103 86.5q42 53 65 118.5t23 140.5q0 65 -17.5 118.5t-48.5 92t-74 59.5t-93 21zM477 435q0 -81 -21.5 -162t-59.5 -149q-32 -57 -67.5 -85.5
t-80.5 -28.5q-63 0 -97.5 51t-34.5 151q0 34 5.5 73.5t16.5 80.5t26.5 82t35.5 77q26 48 64.5 73.5t80.5 25.5q59 0 95.5 -49t36.5 -140zM499 835q-9 -41 -40 -41q-13 0 -22 4l-51 18q-8 3 -15.5 4t-13.5 1q-55 0 -67 -90h19q6 37 36 37q10 0 27 -6l51 -18q13 -5 24 -5
q56 0 71 96h-19z" />
    <glyph glyph-name="P" unicode="P" horiz-adv-x="471" 
d="M170 309l46 183q6 23 13 48t16 51q25 6 47 6q37 0 59.5 -27t22.5 -72q0 -39 -13 -73.5t-36.5 -60.5t-57 -41t-74.5 -15h-12q-5 0 -11 1zM163 278q10 -1 19 -1h20q65 0 115 15.5t83.5 44t51 68t17.5 87.5q0 67 -33.5 102t-98.5 35q-34 0 -69 -2.5t-71 -2.5q-35 0 -56 2.5
t-27 2.5q-11 0 -16 -3t-5 -14q0 -10 7 -13t16 -5t16 -7.5t7 -20.5q0 -10 -1.5 -22.5t-3.5 -23.5l-104 -439q-5 -23 -15 -33t-27 -13t-28.5 -4.5t-11.5 -16.5q0 -16 23 -16q7 0 30 3t63 3q38 0 64 -3t41 -3q26 0 26 18q0 13 -13.5 14t-28.5 4q-20 4 -26.5 10.5t-6.5 20.5
q0 3 0.5 9.5t2.5 16.5z" />
    <glyph glyph-name="Q" unicode="Q" horiz-adv-x="593" 
d="M477 433q0 -81 -21.5 -162t-59.5 -148q-32 -57 -67.5 -85t-80.5 -28q-62 0 -97 50.5t-35 145.5q0 63 17.5 138.5t51.5 148.5q60 128 160 128q59 0 95.5 -49t36.5 -139zM145 -71q24 18 49 28.5t49.5 17t48 11t45.5 11.5q50 15 92 49t72.5 81.5t47.5 106t17 123.5
t-17.5 118t-48.5 91t-73.5 59t-92.5 21q-62 0 -118 -28t-98 -78t-67 -118.5t-25 -149.5q0 -111 46 -184t126 -97q-36 -11 -61.5 -29t-48.5 -36q-25 -1 -45.5 -7.5t-35 -16t-22.5 -21t-8 -23.5q0 -9 5 -15t16 -6q14 0 27.5 9t26.5 19.5t24.5 19.5t21.5 9q12 0 31 -20t53 -49
q56 -47 132 -47q82 0 140 65q27 30 40.5 56t13.5 34q0 11 -7 11q-9 0 -15.5 -12t-23.5 -27q-45 -41 -95 -41q-25 0 -49 9.5t-50 21.5t-56 22.5t-67 11.5z" />
    <glyph glyph-name="R" unicode="R" horiz-adv-x="476" 
d="M177 327l42 170q5 17 11 40.5t17 53.5l22 4t25 2q37 0 59.5 -25.5t22.5 -67.5q0 -36 -12.5 -68.5t-36 -56.5t-55.5 -38.5t-71 -14.5h-12t-12 1zM289 302q92 35 138 88t46 114t-35 93t-101 32q-35 0 -69.5 -2.5t-70.5 -2.5q-35 0 -56 2.5t-27 2.5q-11 0 -16 -3t-5 -14
q0 -10 7 -13t16 -5t16 -7.5t7 -20.5q0 -10 -1.5 -22.5t-3.5 -23.5l-104 -439q-5 -23 -15 -33t-27 -13t-28.5 -4.5t-11.5 -16.5q0 -16 23 -16q8 0 30.5 3t62.5 3t63 -3t29 -3q12 0 17.5 3.5t5.5 14.5q0 10 -9 12.5t-20.5 5t-20.5 8t-9 22.5q0 16 7 44l43 186h9q13 0 19 -18
l95 -252q4 -11 7 -16.5t17 -5.5q7 0 18.5 1t27.5 1q23 0 39 -2.5t27 -2.5q16 0 16 14q0 6 -3 10.5t-5 4.5q-29 0 -44 17t-26 49l-53 146q-5 12 -11 27.5t-14 34.5z" />
    <glyph glyph-name="S" unicode="S" horiz-adv-x="370" 
d="M374 576q2 8 2 13v7q0 10 -10 19.5t-25.5 16.5t-36 11.5t-41.5 4.5q-41 0 -75 -14t-58 -38.5t-37 -59t-13 -76.5q0 -38 14.5 -69.5t37.5 -64.5l45 -65q25 -35 40.5 -63.5t15.5 -61.5q0 -25 -8.5 -47.5t-23 -39.5t-34.5 -27t-44 -10q-36 0 -61.5 20t-31.5 50q-8 44 -9 61
t-14 17q-10 0 -11.5 -8.5t-2.5 -22.5l-5 -86v-5q0 -11 4.5 -17t18.5 -13q26 -13 58 -19t58 -6q39 0 73.5 15t60 41.5t40.5 62.5t15 77q0 29 -5 52t-14 42.5t-21.5 37.5t-27.5 36l-61 77q-17 23 -26.5 43.5t-9.5 43.5q0 46 29 77.5t73 31.5q43 0 60 -24.5t17 -71.5
q0 -15 3 -22.5t12 -7.5q13 0 16 18z" />
    <glyph glyph-name="T" unicode="T" horiz-adv-x="430" 
d="M148 630q-11 0 -15 2.5t-4 12.5v12q0 17 -11 17q-8 0 -11.5 -7.5t-7.5 -18.5l-42 -125q-4 -11 -4 -17q0 -15 10 -15q9 0 15 7.5t12 18.5t13 24t19 25q30 30 89 30q31 0 31 -10q0 -7 -1 -11l-121 -495q-5 -23 -15 -32.5t-27 -12.5q-18 -3 -29 -5t-11 -16q0 -16 23 -16
q7 0 30 3t63 3q45 0 68.5 -1.5t28.5 -1.5q19 0 19 15q0 7 -3 9.5t-7.5 3.5t-10.5 1q-5 0 -11 2q-17 5 -22.5 12t-5.5 20q0 5 1 16t6 28l121 481q14 2 27.5 3t25.5 1q31 0 46 -5t15 -20q0 -17 -3.5 -32t-3.5 -28q0 -19 14 -19q8 0 10.5 4.5t5.5 14.5l37 129q3 12 3 16
q0 14 -10 14q-7 0 -10 -6t-9 -12.5t-19 -12.5t-41 -6h-278z" />
    <glyph glyph-name="U" unicode="U" horiz-adv-x="539" 
d="M515 503q9 36 16.5 58t24.5 32q7 4 15.5 5t15.5 2t11.5 3.5t4.5 10.5q0 14 -18 14q-4 0 -20.5 -1.5t-47.5 -1.5q-22 0 -38 3t-27 3q-22 0 -22 -15q0 -10 9.5 -13t20.5 -6t20.5 -9.5t9.5 -23.5q0 -7 -1 -18t-5 -25l-67 -289q-11 -49 -24 -89.5t-33 -69.5t-48.5 -45
t-71.5 -16q-52 0 -81.5 27.5t-29.5 75.5q0 14 3.5 38.5t12.5 59.5l85 337q5 22 13.5 31.5t29.5 12.5q17 2 26.5 3t9.5 16q0 17 -23 17q-10 0 -33 -3.5t-60 -3.5q-41 0 -61 2t-24 2q-10 0 -14.5 -2.5t-4.5 -12.5q0 -7 2 -10t6 -4t8.5 -1.5t9.5 -1.5q14 -5 17.5 -12.5
t3.5 -21.5q0 -8 -2 -19.5t-4 -21.5l-66 -251q-11 -40 -17 -71.5t-6 -55.5q0 -77 50 -117.5t143 -40.5q51 0 85 15t57.5 44t39 71t28.5 96z" />
    <glyph glyph-name="Uacute" unicode="&#xda;" horiz-adv-x="539" 
d="M515 503q9 36 16.5 58t24.5 32q7 4 15.5 5t15.5 2t11.5 3.5t4.5 10.5q0 14 -18 14q-4 0 -20.5 -1.5t-47.5 -1.5q-22 0 -38 3t-27 3q-22 0 -22 -15q0 -10 9.5 -13t20.5 -6t20.5 -9.5t9.5 -23.5q0 -7 -1 -18t-5 -25l-67 -289q-11 -49 -24 -89.5t-33 -69.5t-48.5 -45
t-71.5 -16q-52 0 -81.5 27.5t-29.5 75.5q0 14 3.5 38.5t12.5 59.5l85 337q5 22 13.5 31.5t29.5 12.5q17 2 26.5 3t9.5 16q0 17 -23 17q-10 0 -33 -3.5t-60 -3.5q-41 0 -61 2t-24 2q-10 0 -14.5 -2.5t-4.5 -12.5q0 -7 2 -10t6 -4t8.5 -1.5t9.5 -1.5q14 -5 17.5 -12.5
t3.5 -21.5q0 -8 -2 -19.5t-4 -21.5l-66 -251q-11 -40 -17 -71.5t-6 -55.5q0 -77 50 -117.5t143 -40.5q51 0 85 15t57.5 44t39 71t28.5 96zM451 801q27 22 27 42q0 14 -7.5 24t-18.5 10q-16 0 -32 -21l-117 -154h28z" />
    <glyph glyph-name="Ucircumflex" unicode="&#xdb;" horiz-adv-x="539" 
d="M515 503q9 36 16.5 58t24.5 32q7 4 15.5 5t15.5 2t11.5 3.5t4.5 10.5q0 14 -18 14q-4 0 -20.5 -1.5t-47.5 -1.5q-22 0 -38 3t-27 3q-22 0 -22 -15q0 -10 9.5 -13t20.5 -6t20.5 -9.5t9.5 -23.5q0 -7 -1 -18t-5 -25l-67 -289q-11 -49 -24 -89.5t-33 -69.5t-48.5 -45
t-71.5 -16q-52 0 -81.5 27.5t-29.5 75.5q0 14 3.5 38.5t12.5 59.5l85 337q5 22 13.5 31.5t29.5 12.5q17 2 26.5 3t9.5 16q0 17 -23 17q-10 0 -33 -3.5t-60 -3.5q-41 0 -61 2t-24 2q-10 0 -14.5 -2.5t-4.5 -12.5q0 -7 2 -10t6 -4t8.5 -1.5t9.5 -1.5q14 -5 17.5 -12.5
t3.5 -21.5q0 -8 -2 -19.5t-4 -21.5l-66 -251q-11 -40 -17 -71.5t-6 -55.5q0 -77 50 -117.5t143 -40.5q51 0 85 15t57.5 44t39 71t28.5 96zM367 873l-120 -171h26l108 102l69 -102h22l-63 171h-42z" />
    <glyph glyph-name="Udieresis" unicode="&#xdc;" horiz-adv-x="539" 
d="M515 503q9 36 16.5 58t24.5 32q7 4 15.5 5t15.5 2t11.5 3.5t4.5 10.5q0 14 -18 14q-4 0 -20.5 -1.5t-47.5 -1.5q-22 0 -38 3t-27 3q-22 0 -22 -15q0 -10 9.5 -13t20.5 -6t20.5 -9.5t9.5 -23.5q0 -7 -1 -18t-5 -25l-67 -289q-11 -49 -24 -89.5t-33 -69.5t-48.5 -45
t-71.5 -16q-52 0 -81.5 27.5t-29.5 75.5q0 14 3.5 38.5t12.5 59.5l85 337q5 22 13.5 31.5t29.5 12.5q17 2 26.5 3t9.5 16q0 17 -23 17q-10 0 -33 -3.5t-60 -3.5q-41 0 -61 2t-24 2q-10 0 -14.5 -2.5t-4.5 -12.5q0 -7 2 -10t6 -4t8.5 -1.5t9.5 -1.5q14 -5 17.5 -12.5
t3.5 -21.5q0 -8 -2 -19.5t-4 -21.5l-66 -251q-11 -40 -17 -71.5t-6 -55.5q0 -77 50 -117.5t143 -40.5q51 0 85 15t57.5 44t39 71t28.5 96zM250 775q0 -20 14 -34.5t34 -14.5t34.5 14t14.5 35q0 19 -14.5 33.5t-34.5 14.5q-19 0 -33.5 -14.5t-14.5 -33.5zM434 775
q0 -20 14 -34.5t34 -14.5t34 14t14 35q0 19 -14 33.5t-34 14.5q-19 0 -33.5 -14.5t-14.5 -33.5z" />
    <glyph glyph-name="Ugrave" unicode="&#xd9;" horiz-adv-x="539" 
d="M515 503q9 36 16.5 58t24.5 32q7 4 15.5 5t15.5 2t11.5 3.5t4.5 10.5q0 14 -18 14q-4 0 -20.5 -1.5t-47.5 -1.5q-22 0 -38 3t-27 3q-22 0 -22 -15q0 -10 9.5 -13t20.5 -6t20.5 -9.5t9.5 -23.5q0 -7 -1 -18t-5 -25l-67 -289q-11 -49 -24 -89.5t-33 -69.5t-48.5 -45
t-71.5 -16q-52 0 -81.5 27.5t-29.5 75.5q0 14 3.5 38.5t12.5 59.5l85 337q5 22 13.5 31.5t29.5 12.5q17 2 26.5 3t9.5 16q0 17 -23 17q-10 0 -33 -3.5t-60 -3.5q-41 0 -61 2t-24 2q-10 0 -14.5 -2.5t-4.5 -12.5q0 -7 2 -10t6 -4t8.5 -1.5t9.5 -1.5q14 -5 17.5 -12.5
t3.5 -21.5q0 -8 -2 -19.5t-4 -21.5l-66 -251q-11 -40 -17 -71.5t-6 -55.5q0 -77 50 -117.5t143 -40.5q51 0 85 15t57.5 44t39 71t28.5 96zM341 850q-15 27 -34 27q-11 0 -18.5 -9.5t-7.5 -26.5q0 -10 6 -19t16 -20l95 -100h26z" />
    <glyph glyph-name="V" unicode="V" horiz-adv-x="446" 
d="M166 548q-1 8 -1.5 13.5t-0.5 8.5q0 25 24 29q16 3 25 4.5t9 12.5q0 9 -4 12t-12 3q-10 0 -28.5 -2.5t-46.5 -2.5q-48 0 -76 2t-36 2q-17 0 -17 -13q0 -8 4.5 -11.5t10.5 -5t13.5 -2t13.5 -3.5q11 -5 13 -14t4 -22l81 -545q2 -14 4.5 -20t11.5 -6q8 0 17 16l275 531
q10 19 19.5 32.5t23.5 19.5q17 7 28.5 10t11.5 16q0 7 -5.5 11.5t-13.5 4.5q-5 0 -19.5 -2t-38.5 -2q-40 0 -60.5 1.5t-25.5 1.5q-20 0 -20 -15q0 -8 3.5 -11t9.5 -3.5t14 -0.5t16 -2q20 -5 20 -20q0 -9 -3 -18.5t-8 -20.5l-188 -383z" />
    <glyph glyph-name="W" unicode="W" horiz-adv-x="685" 
d="M165 548q-1 5 -1 11v13q0 14 6 19.5t13 8.5t13 5.5t6 10.5q0 6 -3.5 10.5t-8.5 4.5q-7 0 -29 -3t-57 -3q-24 0 -41.5 3t-28.5 3q-16 0 -16 -15q0 -8 3.5 -11t9 -4t11.5 -2t12 -4q11 -6 13 -15t4 -21l66 -545q2 -14 4.5 -21t13.5 -7q9 0 16 13t20 37l126 237l33 -259
q2 -14 5 -20.5t13 -6.5t17 13t20 36l266 499q10 18 18.5 31.5t24.5 20.5q17 7 28 10t11 16q0 7 -5 12t-13 5q-11 0 -21.5 -2.5t-21.5 -2.5q-30 0 -50 2.5t-30 2.5q-17 0 -17 -17q0 -9 7 -12.5t16 -5.5t16 -5.5t7 -13.5q0 -29 -95 -204l-128 -236l-27 252q0 2 -0.5 3.5
t-0.5 3.5q0 8 2.5 13.5t5.5 10.5l71 130q10 17 20.5 29t31.5 19q14 4 23.5 4.5t9.5 15.5q0 5 -3.5 8.5t-11.5 3.5t-18.5 -3t-24.5 -3q-18 0 -33 3t-26 3q-15 0 -15 -13q0 -7 4.5 -10.5t10 -6t10 -5t4.5 -7.5q0 -3 -2.5 -10t-7.5 -16l-58 -106l-11 117v4q0 11 5 16t11 8t11 6
t5 9q0 14 -17 14q-6 0 -19.5 -1.5t-34.5 -1.5t-32.5 0.5t-13.5 0.5q-8 0 -17 2t-20 2q-16 0 -16 -15q0 -8 7 -11.5t15 -6t15 -6t7 -12.5q0 -2 1 -7.5t2 -13.5l31 -234l-102 -186z" />
    <glyph glyph-name="X" unicode="X" horiz-adv-x="502" 
d="M227 554q-4 11 -5 18.5t-1 9.5q0 11 10.5 14t30.5 4q33 1 33 18q0 14 -21 14q-5 0 -27 -3t-67 -3q-55 0 -79.5 2.5t-28.5 2.5q-16 0 -16 -14q0 -10 6 -13t15 -5.5t19 -6.5t18 -16q2 -4 17.5 -36t38.5 -95l48 -133l-62 -78q-56 -70 -96 -115.5t-69 -65.5
q-16 -11 -28.5 -15.5t-20.5 -7t-12.5 -5t-4.5 -10.5q0 -14 14 -14q8 0 26 2.5t46 2.5q35 0 56.5 -2.5t31.5 -2.5q18 0 18 13q0 10 -8 12.5t-18 3.5t-18 4.5t-8 17.5t21 40l144 183l38 -104q16 -44 22 -72t6 -36q0 -14 -7 -20t-22 -8q-20 -3 -35 -3.5t-15 -16.5t23 -16
q20 0 45 4t54 4q49 0 77 -3.5t36 -3.5q20 0 20 16q0 9 -6 12t-15.5 5t-20.5 5.5t-21 14.5q-9 10 -23.5 47t-37.5 103l-51 149l100 125q32 40 56.5 67.5t46.5 40.5q12 7 23.5 9t20.5 3.5t14 4.5t5 12q0 7 -5 11.5t-12 4.5q-4 0 -23.5 -2t-57.5 -2q-40 0 -61.5 2t-26.5 2
q-6 0 -10.5 -4.5t-4.5 -10.5q0 -15 10.5 -14.5t27.5 -2.5q20 -4 20 -18q0 -11 -9 -23l-127 -169z" />
    <glyph glyph-name="Y" unicode="Y" horiz-adv-x="444" 
d="M238 326q-38 109 -54.5 170t-16.5 72t6 17t21 10q16 4 29 4.5t13 14.5q0 16 -23 16q-8 0 -33.5 -3t-68.5 -3q-35 0 -58.5 3.5t-35.5 3.5q-6 0 -10.5 -5t-4.5 -12q0 -8 4 -11t10.5 -4t14 -2t13.5 -4t12 -11.5t10 -22.5l78 -251q5 -18 5 -28v-10t-2 -10l-43 -179
q-6 -24 -16 -33t-25 -13q-16 -4 -28.5 -4.5t-12.5 -16.5t23 -16q7 0 29.5 3t63.5 3t63.5 -3t27.5 -3q13 0 19 3.5t6 14.5q0 10 -9.5 12.5t-20.5 5t-20.5 8t-9.5 22.5q0 16 7 44l51 188l202 251q17 21 31 33.5t27 16.5q7 2 13.5 3t12 2t8.5 4t3 9q0 14 -18 14q-11 0 -26.5 -3
t-35.5 -3q-46 0 -69.5 2.5t-27.5 2.5q-6 0 -10 -5t-4 -11q0 -8 4.5 -10.5t15.5 -2.5q39 0 39 -22q0 -14 -23.5 -52t-71.5 -96z" />
    <glyph glyph-name="Ydieresis" unicode="&#x178;" horiz-adv-x="444" 
d="M238 326q-38 109 -54.5 170t-16.5 72t6 17t21 10q16 4 29 4.5t13 14.5q0 16 -23 16q-8 0 -33.5 -3t-68.5 -3q-35 0 -58.5 3.5t-35.5 3.5q-6 0 -10.5 -5t-4.5 -12q0 -8 4 -11t10.5 -4t14 -2t13.5 -4t12 -11.5t10 -22.5l78 -251q5 -18 5 -28v-10t-2 -10l-43 -179
q-6 -24 -16 -33t-25 -13q-16 -4 -28.5 -4.5t-12.5 -16.5t23 -16q7 0 29.5 3t63.5 3t63.5 -3t27.5 -3q13 0 19 3.5t6 14.5q0 10 -9.5 12.5t-20.5 5t-20.5 8t-9.5 22.5q0 16 7 44l51 188l202 251q17 21 31 33.5t27 16.5q7 2 13.5 3t12 2t8.5 4t3 9q0 14 -18 14q-11 0 -26.5 -3
t-35.5 -3q-46 0 -69.5 2.5t-27.5 2.5q-6 0 -10 -5t-4 -11q0 -8 4.5 -10.5t15.5 -2.5q39 0 39 -22q0 -14 -23.5 -52t-71.5 -96zM203 775q0 -20 14 -34.5t34 -14.5t34.5 14t14.5 35q0 19 -14.5 33.5t-34.5 14.5q-19 0 -33.5 -14.5t-14.5 -33.5zM387 775q0 -20 14 -34.5
t34 -14.5t34 14t14 35q0 19 -14 33.5t-34 14.5q-19 0 -33.5 -14.5t-14.5 -33.5z" />
    <glyph glyph-name="Z" unicode="Z" horiz-adv-x="484" 
d="M240 625q-51 0 -76.5 2t-30.5 2q-10 0 -15.5 -1.5t-8.5 -6t-5.5 -13t-6.5 -21.5l-19 -71q-3 -14 -3 -21q0 -17 10 -17q7 0 11.5 7t9.5 19t13.5 27.5t25.5 32.5q23 23 56.5 29t82.5 6q17 0 40.5 -1t55.5 -6q-25 -38 -47.5 -67.5t-40.5 -52.5l-316 -413q-10 -14 -15 -26
t-5 -20q0 -16 26 -16q5 0 24.5 2.5t55.5 2.5h233q19 0 36.5 -2t32.5 -2q13 0 19.5 6t11.5 28l24 99q2 8 2.5 13.5t0.5 7.5q0 18 -12 18q-8 0 -11.5 -7.5t-8.5 -20.5t-13.5 -30t-25.5 -36q-26 -28 -59.5 -33.5t-79.5 -5.5h-18q-13 0 -37.5 1t-61.5 3q38 60 74.5 107t67.5 88
l248 323q29 37 29 55q0 7 -6.5 11.5t-17.5 4.5q-5 0 -22 -2.5t-49 -2.5h-179z" />
    <glyph glyph-name="a" unicode="a" horiz-adv-x="472" 
d="M441 441q2 4 2 8v6q0 14 -30 14q-26 0 -32 -4.5t-12 -12.5l-8 -11q-17 8 -33 13t-31 5q-42 0 -93 -28t-99 -84q-54 -63 -81 -131.5t-27 -124.5q0 -54 21 -81t58 -27q42 0 98.5 56t122.5 174l-30 -121q-11 -44 -11 -61q0 -48 40 -48q46 0 106 81q38 52 38 73q0 12 -11 12
q-5 0 -12.5 -14.5t-24.5 -39.5q-11 -17 -20 -26.5t-18 -9.5q-5 0 -8 5t-3 13q0 4 1 10.5t4 16.5zM299 429q48 0 48 -45q0 -26 -21 -68t-60 -105q-47 -76 -81 -113.5t-65 -37.5q-14 0 -22.5 14.5t-8.5 41.5q0 16 4.5 38.5t14 49.5t24 57t34.5 61q35 54 69 80.5t64 26.5z" />
    <glyph glyph-name="aacute" unicode="&#xe1;" horiz-adv-x="472" 
d="M441 441q2 4 2 8v6q0 14 -30 14q-26 0 -32 -4.5t-12 -12.5l-8 -11q-17 8 -33 13t-31 5q-42 0 -93 -28t-99 -84q-54 -63 -81 -131.5t-27 -124.5q0 -54 21 -81t58 -27q42 0 98.5 56t122.5 174l-30 -121q-11 -44 -11 -61q0 -48 40 -48q46 0 106 81q38 52 38 73q0 12 -11 12
q-5 0 -12.5 -14.5t-24.5 -39.5q-11 -17 -20 -26.5t-18 -9.5q-5 0 -8 5t-3 13q0 4 1 10.5t4 16.5zM299 429q48 0 48 -45q0 -26 -21 -68t-60 -105q-47 -76 -81 -113.5t-65 -37.5q-14 0 -22.5 14.5t-8.5 41.5q0 16 4.5 38.5t14 49.5t24 57t34.5 61q35 54 69 80.5t64 26.5z
M403 610q27 22 27 42q0 14 -7.5 24t-18.5 10q-16 0 -32 -21l-117 -154h28z" />
    <glyph glyph-name="acircumflex" unicode="&#xe2;" horiz-adv-x="472" 
d="M441 441q2 4 2 8v6q0 14 -30 14q-26 0 -32 -4.5t-12 -12.5l-8 -11q-17 8 -33 13t-31 5q-42 0 -93 -28t-99 -84q-54 -63 -81 -131.5t-27 -124.5q0 -54 21 -81t58 -27q42 0 98.5 56t122.5 174l-30 -121q-11 -44 -11 -61q0 -48 40 -48q46 0 106 81q38 52 38 73q0 12 -11 12
q-5 0 -12.5 -14.5t-24.5 -39.5q-11 -17 -20 -26.5t-18 -9.5q-5 0 -8 5t-3 13q0 4 1 10.5t4 16.5zM299 429q48 0 48 -45q0 -26 -21 -68t-60 -105q-47 -76 -81 -113.5t-65 -37.5q-14 0 -22.5 14.5t-8.5 41.5q0 16 4.5 38.5t14 49.5t24 57t34.5 61q35 54 69 80.5t64 26.5z
M319 682l-120 -171h26l108 102l69 -102h22l-63 171h-42z" />
    <glyph glyph-name="acute" unicode="&#xb4;" 
d="M385 610q27 22 27 42q0 14 -7.5 24t-18.5 10q-16 0 -32 -21l-117 -154h28z" />
    <glyph glyph-name="adieresis" unicode="&#xe4;" horiz-adv-x="472" 
d="M441 441q2 4 2 8v6q0 14 -30 14q-26 0 -32 -4.5t-12 -12.5l-8 -11q-17 8 -33 13t-31 5q-42 0 -93 -28t-99 -84q-54 -63 -81 -131.5t-27 -124.5q0 -54 21 -81t58 -27q42 0 98.5 56t122.5 174l-30 -121q-11 -44 -11 -61q0 -48 40 -48q46 0 106 81q38 52 38 73q0 12 -11 12
q-5 0 -12.5 -14.5t-24.5 -39.5q-11 -17 -20 -26.5t-18 -9.5q-5 0 -8 5t-3 13q0 4 1 10.5t4 16.5zM299 429q48 0 48 -45q0 -26 -21 -68t-60 -105q-47 -76 -81 -113.5t-65 -37.5q-14 0 -22.5 14.5t-8.5 41.5q0 16 4.5 38.5t14 49.5t24 57t34.5 61q35 54 69 80.5t64 26.5z
M202 584q0 -20 14 -34.5t34 -14.5t34.5 14t14.5 35q0 19 -14.5 33.5t-34.5 14.5q-19 0 -33.5 -14.5t-14.5 -33.5zM386 584q0 -20 14 -34.5t34 -14.5t34 14t14 35q0 19 -14 33.5t-34 14.5q-19 0 -33.5 -14.5t-14.5 -33.5z" />
    <glyph glyph-name="ae" unicode="&#xe6;" horiz-adv-x="648" 
d="M441 448q1 3 1 8q0 13 -29 13q-26 0 -32 -4.5t-12 -12.5l-8 -11q-17 8 -33 13t-31 5q-42 0 -93 -28t-99 -84q-54 -63 -81 -131.5t-27 -124.5q0 -54 21 -82t58 -28q39 0 95.5 54.5t117.5 166.5q-2 -14 -3 -26.5t-1 -23.5q0 -39 10 -70.5t27.5 -54t41 -35t50.5 -12.5
q33 0 63.5 18.5t61.5 54.5q21 25 31 43t10 27q0 10 -9 10q-8 0 -11.5 -9.5t-16.5 -24.5q-23 -26 -44 -39t-45 -13q-37 0 -57.5 28.5t-20.5 84.5q0 4 0.5 8.5t0.5 9.5q131 23 194.5 65t63.5 116q0 46 -29 74.5t-80 28.5q-44 0 -88 -29zM299 429q48 0 48 -45q0 -26 -21 -68
t-60 -105q-47 -76 -81 -113.5t-65 -37.5q-14 0 -22.5 14.5t-8.5 41.5q0 16 4.5 38.5t14 49.5t24 57t34.5 61q35 54 69 80.5t64 26.5zM379 214q21 106 58.5 161.5t72.5 55.5q20 0 31 -15.5t11 -43.5q0 -33 -11.5 -60.5t-33.5 -48.5t-54.5 -33.5t-73.5 -15.5z" />
    <glyph glyph-name="agrave" unicode="&#xe0;" horiz-adv-x="472" 
d="M441 441q2 4 2 8v6q0 14 -30 14q-26 0 -32 -4.5t-12 -12.5l-8 -11q-17 8 -33 13t-31 5q-42 0 -93 -28t-99 -84q-54 -63 -81 -131.5t-27 -124.5q0 -54 21 -81t58 -27q42 0 98.5 56t122.5 174l-30 -121q-11 -44 -11 -61q0 -48 40 -48q46 0 106 81q38 52 38 73q0 12 -11 12
q-5 0 -12.5 -14.5t-24.5 -39.5q-11 -17 -20 -26.5t-18 -9.5q-5 0 -8 5t-3 13q0 4 1 10.5t4 16.5zM299 429q48 0 48 -45q0 -26 -21 -68t-60 -105q-47 -76 -81 -113.5t-65 -37.5q-14 0 -22.5 14.5t-8.5 41.5q0 16 4.5 38.5t14 49.5t24 57t34.5 61q35 54 69 80.5t64 26.5z
M293 659q-15 27 -34 27q-11 0 -18.5 -9.5t-7.5 -26.5q0 -10 6 -19t16 -20l95 -100h26z" />
    <glyph glyph-name="ampersand" unicode="&#x26;" horiz-adv-x="590" 
d="M207 412q-24 14 -24 59q0 24 9 44t24 34.5t34 22.5t39 8q27 0 45.5 -12.5t30.5 -27.5t20 -27.5t15 -12.5q4 0 9 7t9.5 18.5t7.5 26t3 29.5q0 16 -9.5 28.5t-25.5 21.5t-37.5 13.5t-44.5 4.5q-35 0 -64 -13t-50 -35t-32.5 -50t-11.5 -58q0 -27 7 -50.5t19 -40.5
q-74 -21 -116.5 -78.5t-42.5 -134.5q0 -45 15.5 -83t43 -65.5t66 -43.5t84.5 -16q51 0 94.5 16t75 43t49.5 64t18 79q0 26 -9 53q13 -4 27 -4q35 0 56.5 28.5t21.5 80.5q0 19 -7 19q-5 0 -8 -5t-6.5 -12.5t-10 -15.5t-17.5 -15t-25 -9.5t-30.5 -3t-34.5 -0.5t-38 -2
q-29 -3 -52.5 -19t-40 -35.5t-25 -38t-8.5 -27.5q0 -5 3 -8.5t6 -3.5q6 0 12 11t17.5 24.5t31 24.5t51.5 11q61 0 61 -46q0 -29 -12.5 -56.5t-36.5 -49t-58 -34.5t-76 -13q-70 0 -111.5 48.5t-41.5 132.5q0 57 25.5 100.5t70.5 62.5q23 -13 43 -18.5t43 -5.5q40 0 40 29
q0 17 -14.5 23.5t-45.5 6.5q-15 0 -30.5 -1t-30.5 -3z" />
    <glyph glyph-name="aring" unicode="&#xe5;" horiz-adv-x="472" 
d="M441 441q2 4 2 8v6q0 14 -30 14q-26 0 -32 -4.5t-12 -12.5l-8 -11q-17 8 -33 13t-31 5q-42 0 -93 -28t-99 -84q-54 -63 -81 -131.5t-27 -124.5q0 -54 21 -82t58 -28q42 0 98.5 57t122.5 175l-30 -121q-11 -44 -11 -61q0 -49 40 -49q44 0 106 83q20 26 29.5 44.5t9.5 25.5
q0 14 -12 14q-5 0 -13 -14t-18.5 -31t-22 -31t-21.5 -14q-5 0 -8 5t-3 13q0 4 1 10.5t4 16.5zM299 429q48 0 48 -45q0 -26 -21 -68t-60 -105q-47 -76 -81 -113.5t-65 -37.5q-14 0 -22.5 14.5t-8.5 41.5q0 16 4.5 38.5t14 49.5t24 57t34.5 61q35 54 69 80.5t64 26.5zM330 726
q-24 0 -45.5 -9t-37.5 -25t-25.5 -37.5t-9.5 -45.5t9.5 -45.5t25.5 -37.5t37.5 -25.5t45.5 -9.5q25 0 46 9t37 25t25 37.5t9 46.5q0 24 -9 45.5t-25 37.5t-37 25t-46 9zM330 684q32 0 53.5 -22t21.5 -54t-21.5 -53.5t-53.5 -21.5t-54 21.5t-22 53.5t22 54t54 22z" />
    <glyph glyph-name="asciicircum" unicode="^" horiz-adv-x="1000" 
d="M456 714l-255 -276h44l254 213l253 -213h45l-254 276h-87z" />
    <glyph glyph-name="asciitilde" unicode="~" horiz-adv-x="833" 
d="M747 370q-53 -37 -98 -56.5t-90 -19.5q-38 0 -71.5 11t-69.5 24q-34 12 -68.5 22t-73.5 10q-86 0 -189 -71v-65q54 38 98.5 58t89.5 20q47 0 92.5 -16.5t97.5 -33.5q51 -17 93 -17q91 0 189 70v64z" />
    <glyph glyph-name="asterisk" unicode="*" horiz-adv-x="400" 
d="M233 465q3 27 11.5 46.5t17.5 36t16 31.5t7 33q0 17 -10.5 27t-27.5 10q-12 0 -21.5 -12.5t-9.5 -30.5q0 -25 5 -47t5 -40q0 -12 -1 -24t-3 -26q-21 22 -31.5 46t-18 43.5t-16 32t-25.5 12.5q-13 0 -23 -13t-10 -33q0 -21 12 -31t30 -18t38 -18t35 -31q-12 -8 -25 -10
t-28 -2q-12 0 -22 3t-19 3q-46 0 -46 -47q0 -16 9.5 -28t23.5 -12t24 9t21.5 21.5t26.5 26.5t39 23q-3 -28 -11.5 -48t-17.5 -35.5t-16 -30t-7 -32.5q0 -17 10.5 -27.5t27.5 -10.5q12 0 21.5 13.5t9.5 34.5q0 20 -5 41.5t-5 47.5q0 23 4 43q21 -21 31 -44.5t17.5 -43
t15.5 -32.5t24 -13q14 0 25 12.5t11 32.5q0 21 -12 31t-29 18t-37.5 18t-36.5 31q19 12 50 12q16 0 26.5 -2.5t17.5 -2.5q21 0 33.5 11t12.5 31t-9.5 32.5t-22.5 12.5q-14 0 -24.5 -9t-21.5 -22t-26.5 -26.5t-39.5 -23.5z" />
    <glyph glyph-name="at" unicode="@" horiz-adv-x="986" 
d="M536 471q35 0 58.5 -28.5t23.5 -75.5q0 -41 -15.5 -93.5t-45.5 -101.5q-54 -87 -118 -87q-32 0 -52.5 25.5t-20.5 72.5q0 22 5 49.5t14.5 57t24 59.5t33.5 58q22 32 43.5 48t49.5 16zM581 164q6 -103 101 -103q32 0 64.5 13t61.5 40q51 47 79.5 114.5t28.5 145.5
q0 76 -26 138t-74.5 105.5t-117 67.5t-153.5 24q-181 0 -310 -108q-81 -67 -122.5 -153t-41.5 -186q0 -97 38 -175t112 -134q117 -90 301 -90q174 0 320 108l-15 18q-139 -101 -299 -101q-171 0 -284 96q-61 52 -88.5 115t-27.5 148q0 200 129 324q118 114 301 114
q70 0 131 -21.5t105 -59.5q99 -87 99 -222q0 -87 -32 -155t-91 -112q-22 -17 -44 -24.5t-36 -7.5q-21 0 -33.5 13.5t-12.5 36.5q0 17 3 29.5t6 23.5l83 298h-70l-26 -88q-21 95 -108 95q-35 0 -74 -17t-72 -49q-45 -43 -68 -95.5t-23 -104.5q0 -75 37 -119.5t98 -44.5
q91 0 151 103z" />
    <glyph glyph-name="atilde" unicode="&#xe3;" horiz-adv-x="472" 
d="M441 441q2 4 2 8v6q0 14 -30 14q-26 0 -32 -4.5t-12 -12.5l-8 -11q-17 8 -33 13t-31 5q-42 0 -93 -28t-99 -84q-54 -63 -81 -131.5t-27 -124.5q0 -54 21 -81t58 -27q42 0 98.5 56t122.5 174l-30 -121q-11 -44 -11 -61q0 -48 40 -48q46 0 106 81q38 52 38 73q0 12 -11 12
q-5 0 -12.5 -14.5t-24.5 -39.5q-11 -17 -20 -26.5t-18 -9.5q-5 0 -8 5t-3 13q0 4 1 10.5t4 16.5zM299 429q48 0 48 -45q0 -26 -21 -68t-60 -105q-47 -76 -81 -113.5t-65 -37.5q-14 0 -22.5 14.5t-8.5 41.5q0 16 4.5 38.5t14 49.5t24 57t34.5 61q35 54 69 80.5t64 26.5z
M424 644q-9 -41 -40 -41q-13 0 -22 4l-51 18q-8 3 -15.5 4t-13.5 1q-55 0 -67 -90h19q6 37 36 37q10 0 27 -6l51 -18q13 -5 24 -5q56 0 71 96h-19z" />
    <glyph glyph-name="b" unicode="b" horiz-adv-x="442" 
d="M240 651q8 26 8 34q0 16 -15 16q-4 0 -10.5 -3.5t-17.5 -8t-27.5 -9.5t-40.5 -7q-21 -2 -35.5 -2.5t-14.5 -17.5q0 -10 8 -12t17 -3t17 -4.5t8 -15.5q0 -5 -1 -15.5t-5 -24.5l-94 -359q-8 -32 -13 -58.5t-5 -47.5q0 -62 29.5 -96t80.5 -34q45 0 91.5 22t88.5 67
q47 52 73 117.5t26 128.5q0 66 -26.5 103.5t-67.5 37.5q-42 0 -87.5 -48t-99.5 -145zM321 331q0 -38 -17.5 -100.5t-55.5 -129.5q-26 -46 -55 -68t-56 -22q-52 0 -52 66q0 32 19.5 82t60.5 115q37 57 63.5 85.5t54.5 28.5q17 0 27.5 -15.5t10.5 -41.5z" />
    <glyph glyph-name="backslash" unicode="\" horiz-adv-x="222" 
d="M30 648l121 -741h37l-123 741h-35z" />
    <glyph glyph-name="bar" unicode="|" 
d="M219 764v-1000h62v1000h-62z" />
    <glyph glyph-name="braceleft" unicode="{" 
d="M413 740h-5q-54 0 -89.5 -8.5t-57 -28.5t-30 -52t-8.5 -80v-104q0 -38 -6 -63t-21.5 -41.5t-42 -25t-67.5 -12.5v-29q41 -3 67.5 -11.5t42 -25t21.5 -42.5t6 -63v-104q0 -48 8.5 -80t30 -52t57 -28.5t89.5 -8.5h5v25q-37 0 -60.5 7t-36.5 22t-18 39t-5 60v70
q0 48 -4.5 83t-19.5 59.5t-42.5 39.5t-73.5 24q46 9 73.5 24t42.5 39.5t19.5 59.5t4.5 83v70q0 36 5 60.5t18 39.5t36.5 22t60.5 7v25z" />
    <glyph glyph-name="braceright" unicode="}" 
d="M87 740v-25q37 0 60.5 -7t36.5 -22t18 -39.5t5 -60.5v-70q0 -48 4.5 -83t19.5 -59.5t42.5 -39.5t73.5 -24q-46 -9 -73.5 -24t-42.5 -39.5t-19.5 -59.5t-4.5 -83v-70q0 -36 -5 -60t-18 -39t-36.5 -22t-60.5 -7v-25h5q54 0 89.5 8.5t56.5 28.5t30 52t9 80v104q0 37 6 63
t21.5 42.5t42 25t67.5 11.5v29q-41 4 -67.5 12.5t-42 25t-21.5 41.5t-6 63v104q0 48 -9 80t-30 52t-56.5 28.5t-89.5 8.5h-5z" />
    <glyph glyph-name="bracketleft" unicode="[" horiz-adv-x="311" 
d="M214 648q-18 0 -27.5 -8.5t-14.5 -27.5l-178 -753q-3 -13 -4 -20.5t-1 -10.5q0 -8 6.5 -14.5t14.5 -6.5h102q18 0 18 18q0 16 -14 16h-34q-24 0 -24 12q0 3 1 8t3 13l166 703q5 18 11 28t21 10h40q10 0 14.5 3t4.5 14q0 16 -15 16h-90z" />
    <glyph glyph-name="bracketright" unicode="]" horiz-adv-x="311" 
d="M161 648q-19 0 -19 -17t15 -17h33q24 0 24 -11q0 -3 -0.5 -8.5t-2.5 -13.5l-167 -703q-5 -19 -11.5 -28t-20.5 -9h-40q-10 0 -14 -3.5t-4 -14.5q0 -16 14 -16h91q18 0 27 9t14 28l179 752q3 12 4 20t1 12q0 6 -7 13t-15 7h-101z" />
    <glyph glyph-name="breve" unicode="&#x2d8;" 
d="M208 664q1 -135 85 -135q43 0 77.5 33.5t66.5 101.5h-23q-26 -37 -53 -54.5t-65 -17.5q-60 0 -66 72h-22z" />
    <glyph glyph-name="bullet" unicode="&#x2022;" horiz-adv-x="590" 
d="M150 372q0 -30 11 -56.5t30.5 -46t46 -31t56.5 -11.5t56.5 11.5t46 31.5t31 46t11.5 56t-11.5 56t-31 45.5t-45.5 31t-56 11.5t-56.5 -11.5t-46 -31t-31 -45.5t-11.5 -56z" />
    <glyph glyph-name="c" unicode="c" horiz-adv-x="364" 
d="M269 462q-43 0 -91 -23.5t-86 -65.5q-38 -44 -60 -102t-22 -116q0 -39 10 -71t28 -54.5t42 -34.5t51 -12q37 0 72.5 20t68.5 62q34 41 34 62q0 12 -8 12q-9 0 -15.5 -12t-20.5 -29q-45 -51 -88 -51q-79 0 -79 111q0 52 12.5 100t32 84.5t42.5 58t44 21.5q12 0 16.5 -8.5
t12.5 -25.5q11 -24 22.5 -36t28.5 -12q20 0 32.5 15t12.5 40q0 30 -23.5 48.5t-68.5 18.5z" />
    <glyph glyph-name="caron" unicode="&#x2c7;" 
d="M213 682l63 -171h42l120 171h-26l-108 -102l-69 102h-22z" />
    <glyph glyph-name="ccedilla" unicode="&#xe7;" horiz-adv-x="364" 
d="M269 462q-43 0 -91 -23.5t-86 -65.5q-38 -44 -60 -102t-22 -116q0 -39 10 -71t28 -54.5t42 -34.5t51 -12q37 0 72.5 20t68.5 62q34 41 34 62q0 12 -8 12q-9 0 -15.5 -12t-20.5 -29q-45 -51 -88 -51q-79 0 -79 111q0 52 12.5 100t32 84.5t42.5 58t44 21.5q12 0 16.5 -8.5
t12.5 -25.5q11 -24 22.5 -36t28.5 -12q20 0 32.5 15t12.5 40q0 30 -23.5 48.5t-68.5 18.5zM119 0l-24 -95q11 3 19 4t16 1q21 0 32.5 -11.5t11.5 -31.5q0 -46 -48 -46q-14 0 -37 8.5t-50 27.5l-13 -39q34 -17 61.5 -26.5t51.5 -9.5q42 0 64.5 22.5t22.5 62.5q0 37 -19 59
t-49 22q-10 0 -28 -3l14 55h-25z" />
    <glyph glyph-name="cedilla" unicode="&#xb8;" 
d="M170 0l-24 -95q11 3 19 4t16 1q21 0 32.5 -11.5t11.5 -31.5q0 -46 -48 -46q-14 0 -37 8.5t-50 27.5l-13 -39q34 -17 61.5 -26.5t51.5 -9.5q42 0 64.5 22.5t22.5 62.5q0 37 -19 59t-49 22q-10 0 -28 -3l14 55h-25z" />
    <glyph glyph-name="cent" unicode="&#xa2;" horiz-adv-x="433" 
d="M280 630l-28 -123q-38 -9 -70 -32t-55 -55t-35.5 -71t-12.5 -81q0 -54 23 -90t65 -46l-30 -132h23l30 131q28 3 52.5 18.5t42.5 34t28.5 36.5t10.5 26q0 11 -10 11q-5 0 -13.5 -11.5t-20 -25.5t-26.5 -25.5t-34 -11.5q-2 0 -6.5 0.5t-12.5 1.5l67 291q8 -14 13.5 -25
t11 -19.5t12 -13t16.5 -4.5q15 0 25 12t10 32q0 23 -18 38t-51 15h-11l27 119h-23zM246 478l-65 -284q-15 15 -20.5 31.5t-5.5 39.5q0 38 7.5 73t20 63.5t29 48.5t34.5 28z" />
    <glyph glyph-name="circumflex" unicode="&#x2c6;" 
d="M301 682l-120 -171h26l108 102l69 -102h22l-63 171h-42z" />
    <glyph glyph-name="colon" unicode=":" horiz-adv-x="235" 
d="M70 304q0 -21 10 -32.5t25 -11.5q20 0 33.5 19.5t13.5 45.5q0 49 -34 49q-19 0 -33.5 -19t-14.5 -51zM13 35q0 -21 9.5 -33t24.5 -12q20 0 34 20t14 49q0 21 -9.5 33t-24.5 12q-20 0 -34 -19t-14 -50z" />
    <glyph glyph-name="comma" unicode="," horiz-adv-x="217" 
d="M47 82q-20 0 -34.5 -19t-14.5 -45q0 -21 7.5 -29t17 -11t17 -4t7.5 -8q0 -26 -11.5 -47.5t-25.5 -39t-25.5 -30t-11.5 -21.5q0 -5 3 -8.5t7 -3.5q8 0 26.5 17t37 45t32.5 63.5t14 72.5q0 32 -13 50t-33 18z" />
    <glyph glyph-name="copyright" unicode="&#xa9;" horiz-adv-x="822" 
d="M412 675q-69 0 -132.5 -26t-111.5 -75q-49 -50 -74.5 -112t-25.5 -131q0 -70 25.5 -132t75.5 -111q50 -50 111.5 -75t130.5 -25q70 0 132 25.5t110 74.5q50 51 75.5 113t25.5 130q0 69 -26.5 132.5t-74.5 111.5t-111 74t-130 26zM412 636q59 0 114.5 -23.5t97.5 -65.5
t65 -99t23 -117t-22.5 -115t-66.5 -100q-43 -44 -96.5 -66t-115.5 -22q-124 0 -212 88q-43 43 -66 98t-23 117q0 61 22.5 116t65.5 99q42 43 98 66.5t116 23.5zM547 535q-6 -30 -31 -30q-7 0 -16.5 5t-23 11.5t-31.5 11.5t-41 5q-41 0 -76.5 -16t-62 -44.5t-42 -68
t-15.5 -85.5q0 -42 15.5 -79.5t42 -65.5t62.5 -44t77 -16q110 0 167 102l-17 12q-55 -85 -138 -85q-130 0 -130 186q0 182 121 182q104 0 137 -134h20l-1 153h-17z" />
    <glyph glyph-name="currency" unicode="&#xa4;" horiz-adv-x="606" 
d="M77 693l-35 -36l101 -100q-43 -57 -43 -125t43 -125l-101 -100l35 -36l101 101q55 -43 125 -43q72 0 127 43l100 -101l35 36l-100 100q42 55 42 125q0 69 -42 125l100 100l-35 36l-100 -101q-58 44 -127 44q-35 0 -65.5 -11t-59.5 -33zM304 586q32 0 60 -12t48.5 -33
t32.5 -49t12 -59q0 -32 -12 -60t-32.5 -49t-48.5 -33t-60 -12t-60 12t-48.5 33t-32.5 49t-12 60q0 31 12 59t32.5 49t48.5 33t60 12z" />
    <glyph glyph-name="d" unicode="d" horiz-adv-x="484" 
d="M498 651q3 11 5 19.5t2 14.5q0 16 -13 16q-4 0 -12 -4.5t-19.5 -9.5t-26.5 -9.5t-33 -4.5q-24 0 -35.5 -3t-11.5 -17q0 -10 7.5 -11.5t16.5 -2.5t16.5 -5t7.5 -18q0 -13 -6 -38l-35 -137q-17 8 -33 13t-31 5q-42 0 -93 -28t-99 -84q-54 -64 -81 -131.5t-27 -123.5
q0 -54 21 -81.5t58 -27.5q44 0 97.5 54.5t123.5 163.5l-29 -115q-10 -37 -10 -57q0 -46 38 -46q21 0 51.5 20.5t59.5 65.5q34 53 34 67q0 11 -10 11t-14.5 -12t-15.5 -28q-30 -48 -46 -48q-12 0 -12 18q0 5 5 27zM301 429q43 0 43 -49q0 -32 -20 -72.5t-55 -95.5
q-48 -76 -82 -114t-67 -38q-14 0 -22.5 15t-8.5 41q0 32 18 88t59 118q70 107 135 107z" />
    <glyph glyph-name="dagger" unicode="&#x2020;" horiz-adv-x="400" 
d="M222 430q5 34 15 60.5t20.5 47.5t18 37t7.5 30q0 20 -11.5 31.5t-27.5 11.5q-39 0 -39 -49q0 -16 3.5 -39.5t3.5 -53.5q0 -17 -2 -35.5t-6 -40.5q-18 1 -34 6.5t-29.5 12.5t-25.5 12.5t-23 5.5q-38 0 -38 -44q0 -24 11 -37.5t30 -13.5q13 0 24.5 6t24 13.5t26.5 13.5
t32 6q-11 -57 -26 -101.5t-40 -77.5v-31q0 -94 -11 -190.5t-30 -201.5h22q21 118 45.5 224t65.5 202q-15 48 -15 93q0 11 2 31.5t4 50.5q24 0 41.5 -6t31 -12.5t24.5 -12.5t22 -6q17 0 26.5 13t9.5 33q0 23 -11.5 35.5t-28.5 12.5q-10 0 -20.5 -5.5t-23 -12.5t-29 -13
t-39.5 -6z" />
    <glyph glyph-name="daggerdbl" unicode="&#x2021;" horiz-adv-x="400" 
d="M215 431q5 35 15 61.5t20.5 47t18 36.5t7.5 30q0 20 -11 31.5t-28 11.5q-21 0 -30 -11.5t-9 -37.5q0 -18 3.5 -41t3.5 -51q0 -15 -2 -34.5t-6 -42.5q-18 1 -33.5 6.5t-29 12.5t-25.5 12.5t-24 5.5q-18 0 -28 -12t-10 -33q0 -24 11 -37.5t30 -13.5q13 0 24.5 6t24 13.5
t26.5 13.5t32 6q-11 -59 -27.5 -103t-39.5 -75q15 -62 15 -95q0 -20 -1.5 -40.5t-3.5 -44.5q-24 0 -41.5 6t-31.5 12.5t-25 12.5t-22 6q-17 0 -26.5 -13.5t-9.5 -32.5q0 -23 11.5 -35.5t28.5 -12.5q10 0 20 5.5t23 12t29.5 12.5t39.5 6q-5 -35 -15 -61.5t-20.5 -46.5
t-18 -36t-7.5 -30q0 -20 11 -32t28 -12q40 0 40 50q0 17 -4 40.5t-4 52.5q0 32 8 75q18 -1 34 -7t29.5 -12.5t25.5 -12t23 -5.5q39 0 39 48q0 20 -11.5 34t-28.5 14q-14 0 -26 -6t-24 -13.5t-26 -13.5t-31 -6h-2q10 48 24 93t43 90q-15 48 -15 90q0 18 2 39t4 46
q24 0 41.5 -6t31 -12.5t24.5 -12.5t22 -6q17 0 26.5 13t9.5 33q0 23 -11 35.5t-28 12.5q-10 0 -20.5 -5.5t-23.5 -12t-29.5 -12.5t-39.5 -6z" />
    <glyph glyph-name="degree" unicode="&#xb0;" horiz-adv-x="329" 
d="M165 710q-29 0 -54 -10.5t-43.5 -29t-29.5 -44t-11 -54.5t10.5 -54t29 -44t43.5 -29.5t54 -10.5t54.5 11t44 30t29.5 44t11 53t-11 53.5t-29.5 44t-44 29.5t-53.5 11zM165 670q42 0 70 -28.5t28 -69.5q0 -20 -7.5 -38t-20.5 -31.5t-31 -21.5t-39 -8q-20 0 -38 7.5
t-31.5 21t-21.5 31.5t-8 39q0 42 29 70t70 28z" />
    <glyph glyph-name="dieresis" unicode="&#xa8;" 
d="M184 584q0 -20 14 -34.5t34 -14.5t34.5 14t14.5 35q0 19 -14.5 33.5t-34.5 14.5q-19 0 -33.5 -14.5t-14.5 -33.5zM368 584q0 -20 14 -34.5t34 -14.5t34 14t14 35q0 19 -14 33.5t-34 14.5q-19 0 -33.5 -14.5t-14.5 -33.5z" />
    <glyph glyph-name="divide" unicode="&#xf7;" horiz-adv-x="833" 
d="M417 530q-23 0 -39.5 -16.5t-16.5 -39.5t16 -39.5t40 -16.5t40 16.5t16 39.5t-16.5 39.5t-39.5 16.5zM124 327v-57h585v57h-585zM417 178q-23 0 -39.5 -16t-16.5 -40q0 -23 16.5 -39.5t39.5 -16.5q24 0 40 16.5t16 39.5t-16.5 39.5t-39.5 16.5z" />
    <glyph glyph-name="dollar" unicode="$" horiz-adv-x="433" 
d="M261 677l-16 -68q-67 -18 -102 -60.5t-35 -102.5q0 -38 17 -68t50 -66l-56 -244q-30 12 -40.5 36t-10.5 64q0 8 0.5 14.5t0.5 13.5q0 18 -12 18q-4 0 -9 -11.5t-10 -29.5t-8.5 -39.5t-3.5 -41.5q0 -17 19.5 -28t65.5 -28l-24 -109h22l25 104q18 -3 27 -3q5 0 11 0.5
t13 1.5l-23 -103h22l24 107q64 22 99.5 69.5t35.5 105.5q0 38 -16 70t-48 66l53 230q15 -13 20.5 -33t7 -38.5t3 -31.5t9.5 -13q4 0 10 11t10.5 27t8 35t3.5 35q0 11 -15.5 20t-47.5 22l15 68h-22l-15 -65q-11 0 -16.5 0.5t-7.5 0.5h-28l15 64h-21zM312 582l-51 -219
q-14 15 -25 26l-17 17l42 178q9 0 14.5 0.5t7.5 0.5q6 0 13.5 -1t15.5 -2zM237 577l-36 -154q-15 14 -21.5 27.5t-6.5 32.5q0 35 16.5 59t47.5 35zM194 294q10 -9 20 -19.5t21 -22.5l-43 -189q-20 -3 -29 -3q-5 0 -11 0.5t-12 1.5zM253 230q9 -16 14 -30t5 -28
q0 -78 -56 -100z" />
    <glyph glyph-name="dotaccent" unicode="&#x2d9;" 
d="M274 586q0 -20 15.5 -35.5t35.5 -15.5q22 0 36.5 15t14.5 36q0 20 -15 35.5t-36 15.5q-19 0 -35 -15.5t-16 -35.5z" />
    <glyph glyph-name="dotlessi" unicode="&#x131;" horiz-adv-x="264" 
d="M201 330q8 26 12 46t4 32q0 51 -45 51q-24 0 -47.5 -16t-52.5 -48q-25 -28 -37 -47t-12 -26q0 -13 9 -13q7 0 17 12t21 27t22.5 27t20.5 12q12 0 12 -16q0 -6 -6 -27l-63 -199q-11 -36 -16 -66t-5 -50q0 -48 37 -48q43 0 103 64q25 28 36.5 46.5t11.5 25.5q0 5 -3 8.5
t-7 3.5q-6 0 -16 -12t-21 -26.5t-23 -26.5t-22 -12t-10 11q0 7 4.5 27.5t15.5 53.5z" />
    <glyph glyph-name="e" unicode="e" horiz-adv-x="373" 
d="M104 214q22 106 59 161.5t72 55.5q20 0 31 -15.5t11 -43.5q0 -33 -11.5 -60.5t-33.5 -48.5t-54.5 -33.5t-73.5 -15.5zM102 178q131 23 194.5 65t63.5 116q0 45 -29 74t-77 29q-41 0 -82 -23t-79 -70q-41 -50 -62 -105t-21 -111q0 -39 10 -70.5t27.5 -53.5t41 -34
t50.5 -12q33 0 64 16.5t62 53.5q20 25 30 43.5t10 26.5q0 10 -9 10q-8 0 -11.5 -10t-16.5 -24q-23 -26 -44 -39t-45 -13q-37 0 -57.5 28.5t-20.5 84.5q0 4 0.5 8.5t0.5 9.5z" />
    <glyph glyph-name="eacute" unicode="&#xe9;" horiz-adv-x="373" 
d="M104 214q22 106 59 161.5t72 55.5q20 0 31 -15.5t11 -43.5q0 -33 -11.5 -60.5t-33.5 -48.5t-54.5 -33.5t-73.5 -15.5zM102 178q131 23 194.5 65t63.5 116q0 45 -29 74t-77 29q-41 0 -82 -23t-79 -70q-41 -50 -62 -105t-21 -111q0 -39 10 -70.5t27.5 -53.5t41 -34
t50.5 -12q33 0 64 16.5t62 53.5q20 25 30 43.5t10 26.5q0 10 -9 10q-8 0 -11.5 -10t-16.5 -24q-23 -26 -44 -39t-45 -13q-37 0 -57.5 28.5t-20.5 84.5q0 4 0.5 8.5t0.5 9.5zM323 610q27 22 27 42q0 14 -7.5 24t-18.5 10q-16 0 -32 -21l-117 -154h28z" />
    <glyph glyph-name="ecircumflex" unicode="&#xea;" horiz-adv-x="373" 
d="M104 214q22 106 59 161.5t72 55.5q20 0 31 -15.5t11 -43.5q0 -33 -11.5 -60.5t-33.5 -48.5t-54.5 -33.5t-73.5 -15.5zM102 178q131 23 194.5 65t63.5 116q0 45 -29 74t-77 29q-41 0 -82 -23t-79 -70q-41 -50 -62 -105t-21 -111q0 -39 10 -70.5t27.5 -53.5t41 -34
t50.5 -12q33 0 64 16.5t62 53.5q20 25 30 43.5t10 26.5q0 10 -9 10q-8 0 -11.5 -10t-16.5 -24q-23 -26 -44 -39t-45 -13q-37 0 -57.5 28.5t-20.5 84.5q0 4 0.5 8.5t0.5 9.5zM239 682l-120 -171h26l108 102l69 -102h22l-63 171h-42z" />
    <glyph glyph-name="edieresis" unicode="&#xeb;" horiz-adv-x="373" 
d="M104 214q22 106 59 161.5t72 55.5q20 0 31 -15.5t11 -43.5q0 -33 -11.5 -60.5t-33.5 -48.5t-54.5 -33.5t-73.5 -15.5zM102 178q131 23 194.5 65t63.5 116q0 45 -29 74t-77 29q-41 0 -82 -23t-79 -70q-41 -50 -62 -105t-21 -111q0 -39 10 -70.5t27.5 -53.5t41 -34
t50.5 -12q33 0 64 16.5t62 53.5q20 25 30 43.5t10 26.5q0 10 -9 10q-8 0 -11.5 -10t-16.5 -24q-23 -26 -44 -39t-45 -13q-37 0 -57.5 28.5t-20.5 84.5q0 4 0.5 8.5t0.5 9.5zM122 584q0 -20 14 -34.5t34 -14.5t34.5 14t14.5 35q0 19 -14.5 33.5t-34.5 14.5q-19 0 -33.5 -14.5
t-14.5 -33.5zM306 584q0 -20 14 -34.5t34 -14.5t34 14t14 35q0 19 -14 33.5t-34 14.5q-19 0 -33.5 -14.5t-14.5 -33.5z" />
    <glyph glyph-name="egrave" unicode="&#xe8;" horiz-adv-x="373" 
d="M104 214q22 106 59 161.5t72 55.5q20 0 31 -15.5t11 -43.5q0 -33 -11.5 -60.5t-33.5 -48.5t-54.5 -33.5t-73.5 -15.5zM102 178q131 23 194.5 65t63.5 116q0 45 -29 74t-77 29q-41 0 -82 -23t-79 -70q-41 -50 -62 -105t-21 -111q0 -39 10 -70.5t27.5 -53.5t41 -34
t50.5 -12q33 0 64 16.5t62 53.5q20 25 30 43.5t10 26.5q0 10 -9 10q-8 0 -11.5 -10t-16.5 -24q-23 -26 -44 -39t-45 -13q-37 0 -57.5 28.5t-20.5 84.5q0 4 0.5 8.5t0.5 9.5zM213 659q-15 27 -34 27q-11 0 -18.5 -9.5t-7.5 -26.5q0 -10 6 -19t16 -20l95 -100h26z" />
    <glyph glyph-name="eight" unicode="8" horiz-adv-x="433" 
d="M250 377q-46 31 -68 60t-22 68q0 24 8 45.5t22.5 37t33.5 24.5t41 9q41 0 67.5 -30.5t26.5 -81.5q0 -96 -109 -132zM281 358q153 31 153 145q0 32 -11.5 59t-33.5 46t-52.5 29.5t-67.5 10.5q-44 0 -79 -13t-60 -36t-38.5 -53.5t-13.5 -66.5q0 -89 88 -146
q-90 -21 -132.5 -60.5t-42.5 -110.5q0 -41 13.5 -74.5t36.5 -57t55 -36.5t70 -13q45 0 84.5 16t69 44t46.5 66t17 81q0 98 -102 170zM190 307q54 -32 79.5 -68t25.5 -84q0 -30 -9.5 -56t-26 -45.5t-38 -30.5t-45.5 -11q-45 0 -76 36.5t-31 96.5q0 63 30.5 105t90.5 57z" />
    <glyph glyph-name="ellipsis" unicode="&#x2026;" horiz-adv-x="1000" 
d="M67 37q0 -47 34 -47q20 0 34 20.5t14 45.5q0 48 -34 48q-19 0 -33.5 -19t-14.5 -48zM400 37q0 -47 34 -47q20 0 34 20.5t14 45.5q0 48 -34 48q-19 0 -33.5 -19t-14.5 -48zM734 37q0 -47 34 -47q20 0 34 20.5t14 45.5q0 48 -34 48q-19 0 -33.5 -19t-14.5 -48z" />
    <glyph glyph-name="emdash" unicode="&#x2014;" horiz-adv-x="646" 
d="M649 252h-646q-10 0 -16 -13l-18 -39l-2 -6q0 -7 8 -7h646q9 0 16 13l18 40l2 6q0 6 -8 6z" />
    <glyph glyph-name="endash" unicode="&#x2013;" horiz-adv-x="400" 
d="M7 252q-9 0 -13 -13l-14 -39q-1 -3 -1 -7q0 -6 6 -6h386q8 0 12 13l15 40q1 3 1 7q0 5 -7 5h-385z" />
    <glyph glyph-name="equal" unicode="=" horiz-adv-x="833" 
d="M124 420v-57h585v57h-585zM124 233v-57h585v57h-585z" />
    <glyph glyph-name="exclam" unicode="!" horiz-adv-x="241" 
d="M209 512q9 23 14 40.5t5 31.5q0 23 -12 36.5t-29 13.5q-31 0 -49 -37t-29 -110q-5 -32 -13 -84.5t-19 -125.5q-8 -51 -14.5 -77.5t-6.5 -31.5q0 -16 10 -16q11 0 17.5 21.5t25.5 71.5zM0 37q0 -47 34 -47q20 0 34 20.5t14 45.5q0 23 -9.5 35.5t-25.5 12.5q-19 0 -33 -19
t-14 -48z" />
    <glyph glyph-name="exclamdown" unicode="&#xa1;" horiz-adv-x="241" 
d="M138 565q0 -21 9.5 -33.5t24.5 -12.5q20 0 34 19t14 48q0 47 -34 47q-20 0 -34 -20t-14 -48zM10 112q-8 -21 -13 -38.5t-5 -33.5q0 -24 11 -37t29 -13q31 0 49.5 37t29.5 109q5 32 12.5 84.5t19.5 126.5q8 51 14.5 77t6.5 31q0 7 -3 12t-7 5q-11 0 -17.5 -22t-25.5 -72z
" />
    <glyph glyph-name="f" unicode="f" horiz-adv-x="249" 
d="M189 440q43 211 83 211q8 0 12.5 -9t10 -19.5t14.5 -19.5t25 -9t27.5 14t11.5 33q0 22 -16.5 37t-45.5 15q-35 0 -66.5 -16t-57.5 -48t-45 -79t-29 -110h-67q-2 0 -7 -5.5t-5 -15.5q0 -16 16 -16h55l-101 -440q-17 -78 -30 -116t-28 -38q-11 0 -16.5 10t-11.5 22t-14 22
t-23 10q-16 0 -27 -13.5t-11 -35.5q0 -26 18.5 -41.5t47.5 -15.5q41 0 76.5 27t61.5 81q19 38 35 104t37 159l61 265h76q8 0 12.5 7t4.5 16q0 14 -12 14h-72z" />
    <glyph glyph-name="fi" unicode="&#xfb01;" horiz-adv-x="450" 
d="M189 440q12 57 23 99.5t25.5 71t34 42.5t47.5 14q38 0 52 -48q12 -43 39 -43q18 0 29 11.5t11 28.5q0 15 -9 28.5t-25.5 24.5t-39.5 17.5t-52 6.5q-169 0 -212 -253h-66q-2 0 -7.5 -5.5t-5.5 -15.5q0 -16 17 -16h54l-100 -440q-18 -78 -30.5 -116.5t-29.5 -38.5
q-9 0 -15 10t-12 22.5t-14.5 22.5t-22.5 10q-16 0 -26.5 -13t-10.5 -35q0 -26 18.5 -42t47.5 -16q41 0 76.5 27t61.5 81q17 35 33.5 101t38.5 162l61 265h100q28 0 28 -22q0 -13 -7 -35l-60 -201q-11 -37 -15.5 -66t-4.5 -50q0 -48 36 -48q44 0 104 64q25 27 36 46.5
t11 25.5q0 5 -3 8.5t-7 3.5q-6 0 -16 -12t-20.5 -26.5t-22 -26.5t-20.5 -12q-13 0 -13 17q0 5 2.5 20.5t9.5 40.5l85 293q6 19 6 24q0 16 -14 16q-3 0 -9 -3.5t-21 -8t-40.5 -8t-66.5 -3.5h-69z" />
    <glyph glyph-name="five" unicode="5" horiz-adv-x="433" 
d="M401 648l-253 -29q-10 -2 -13.5 -6.5t-5.5 -13.5l-63 -229q-3 -9 -3 -15q0 -16 10 -16q8 0 18.5 1.5t23.5 1.5q71 0 111 -37.5t40 -108.5q0 -53 -21 -99t-59 -80t-90 -53.5t-114 -19.5q-5 0 -10.5 0.5t-13.5 0.5q-5 0 -9.5 -4t-4.5 -9q0 -16 32 -16q84 0 155 25t122.5 67
t81 98.5t29.5 119.5q0 72 -35.5 123.5t-95.5 69.5q-26 8 -48.5 10t-38.5 3t-25 2t-9 7v5t2 8l13 48q5 18 19.5 23.5t46.5 8.5l179 17q14 2 19 8t9 20l14 52q1 2 1 6q0 11 -12 11h-2z" />
    <glyph glyph-name="fl" unicode="&#xfb02;" horiz-adv-x="462" 
d="M467 651q3 11 5.5 19.5t2.5 13.5q0 16 -17 16q-9 0 -25 -11t-46 -14q-31 19 -68 19q-79 0 -132 -63t-75 -191h-67q-2 0 -7.5 -5.5t-5.5 -15.5q0 -16 17 -16h54l-100 -440q-17 -78 -30.5 -116t-27.5 -38q-11 0 -17 10t-12 22t-13.5 22t-22.5 10q-16 0 -27 -13.5t-11 -35.5
q0 -26 18 -41.5t48 -15.5q41 0 76.5 27t61.5 81q18 37 34 103t38 160l61 265h69q8 0 13 6.5t5 16.5q0 14 -13 14h-65q24 113 46 167.5t60 54.5q30 0 50 -20.5t20 -53.5q0 -13 -3 -25l-113 -419q-21 -75 -21 -117q0 -46 37 -46q20 0 45 16t54 48q24 27 35.5 46t11.5 27
q0 12 -9 12q-7 0 -16.5 -12t-20 -26.5t-21 -26.5t-19.5 -12q-5 0 -9 3.5t-4 8.5t3 24.5t12 52.5z" />
    <glyph glyph-name="florin" unicode="&#x192;" horiz-adv-x="433" 
d="M261 388q5 123 16.5 183.5t35.5 60.5q10 0 17.5 -11.5t15.5 -25t18 -25t25 -11.5q16 0 27 13.5t11 34.5q0 64 -79 64q-149 0 -170 -283h-84l-3 -46h83l-14 -295q-5 -119 -16.5 -177t-41.5 -58q-13 0 -20 12t-13.5 26t-14.5 26t-23 12q-39 0 -39 -51q0 -30 21 -47.5
t59 -17.5q56 0 89 35t52.5 106t28.5 178t17 251h85l3 46h-86z" />
    <glyph glyph-name="four" unicode="4" horiz-adv-x="433" 
d="M403 676q-11 0 -15 -3t-9 -9l-370 -415q-6 -7 -9 -14t-3 -18q0 -20 27 -20h194q15 0 15 -5q0 -2 -3 -15l-21 -81q-7 -26 -14 -42t-25 -19q-14 -3 -24.5 -3.5t-17.5 -1.5t-11 -4t-4 -11q0 -16 16 -16q5 0 31.5 3t76.5 3q44 0 67 -3t28 -3q21 0 21 13q0 10 -9.5 13t-21 5.5
t-21 8t-9.5 21.5q0 10 3 21l24 97q2 10 4 14.5t14 4.5h44q8 0 9 2.5t3 8.5l4 14q0 1 0.5 1.5t0.5 2.5q0 8 -9 8h-39q-15 0 -15 6q0 1 3 13l55 214q2 5 2 8v5q0 3 -2 6t-6 3h-5q-2 0 -6 -2l-57 -18q-7 -2 -13.5 -9t-8.5 -16l-46 -184q-2 -9 -3.5 -14.5t-3.5 -8t-6.5 -3
t-12.5 -0.5h-190q91 108 165.5 186.5t126.5 131t80.5 80.5t28.5 36t-17 8h-16z" />
    <glyph glyph-name="g" unicode="g" horiz-adv-x="384" 
d="M306 440q-15 0 -26.5 4t-23 8.5t-25 8.5t-31.5 4q-35 0 -65.5 -13t-53 -35.5t-35.5 -53t-13 -66.5q0 -35 12.5 -61.5t39.5 -49.5q-25 -21 -37 -41.5t-12 -47.5q0 -19 9 -36t26 -29q-74 -25 -109 -55t-35 -76q0 -28 13 -52.5t38.5 -42.5t62 -28.5t83.5 -10.5
q94 0 146 41.5t52 110.5q0 48 -28.5 76.5t-81.5 56.5l-57 30q-32 17 -48 31t-16 30q0 15 16 27q20 -14 39 -21t41 -7q32 0 61 14t51.5 37.5t35.5 54t13 64.5q0 40 -21 82h18q32 0 45 5t13 22q0 13 -7 16t-20 3h-70zM214 436q27 0 44 -19t17 -50q0 -23 -9 -62t-28 -75
q-14 -29 -32 -42.5t-38 -13.5q-26 0 -43.5 21.5t-17.5 52.5q0 36 8.5 70t23 60t34 42t41.5 16zM97 10q80 -35 120 -67t40 -58q0 -38 -26 -60.5t-71 -22.5q-32 0 -61 10t-50.5 26.5t-34 38t-12.5 44.5q0 35 23.5 56t71.5 33z" />
    <glyph glyph-name="germandbls" unicode="&#xdf;" horiz-adv-x="469" 
d="M334 323q-14 18 -21.5 32.5t-7.5 28.5q0 15 6 23t17 13.5t25 10t31 11.5q111 46 111 134q0 51 -37 84.5t-98 33.5q-41 0 -80 -17t-72 -49t-58 -79.5t-37 -108.5h-67q-4 0 -8 -5t-4 -16q0 -16 16 -16h55l-71 -310q-33 -147 -51.5 -218.5t-42.5 -71.5q-14 0 -17.5 10
t-8.5 26q-11 35 -36 35q-15 0 -25 -12.5t-10 -35.5q0 -27 17 -43t45 -16q45 0 77.5 24.5t57.5 71.5t44.5 116t38.5 159l67 319q22 106 65 158.5t92 52.5q32 0 52 -23.5t20 -64.5q0 -51 -24 -80.5t-75 -49.5q-40 -15 -60 -35.5t-20 -57.5q0 -40 35 -95l49 -76
q17 -25 25.5 -47t8.5 -44q0 -34 -16.5 -57t-39.5 -23q-11 0 -18.5 4t-13.5 12.5t-11.5 20.5t-12.5 27q-11 24 -19 38t-22 14q-9 0 -19.5 -16t-10.5 -43q0 -17 7.5 -33.5t21 -29.5t32.5 -20.5t41 -7.5q30 0 57.5 12.5t48.5 33.5t33.5 49.5t12.5 61.5q0 27 -11.5 57.5
t-34.5 61.5z" />
    <glyph glyph-name="grave" unicode="`" 
d="M275 659q-15 27 -34 27q-11 0 -18.5 -9.5t-7.5 -26.5q0 -10 6 -19t16 -20l95 -100h26z" />
    <glyph glyph-name="greater" unicode="&#x3e;" horiz-adv-x="833" 
d="M129 559v-62l488 -199l-488 -198v-63l575 236v50z" />
    <glyph glyph-name="guillemotleft" unicode="&#xab;" horiz-adv-x="323" 
d="M96 217q46 56 67 92.5t21 49.5q0 6 -8 6q-5 0 -15.5 -10t-29.5 -28.5t-48 -44.5t-69 -58q28 -36 46 -64t29.5 -47.5t19 -29.5t14.5 -10q8 0 8 18q0 16 -9 47t-26 79zM225 217q47 56 67.5 93t20.5 49q0 6 -9 6q-5 0 -15.5 -10t-29.5 -28.5t-48 -44.5t-69 -58
q28 -36 46 -64t29.5 -47.5t19 -29.5t14.5 -10q9 0 9 18q0 12 -8.5 43.5t-26.5 82.5z" />
    <glyph glyph-name="guillemotright" unicode="&#xbb;" horiz-adv-x="323" 
d="M159 214q-28 36 -46 64t-30 47.5t-19 29.5t-14 10q-9 0 -9 -18q0 -27 35 -126q-46 -56 -67 -92.5t-21 -49.5q0 -6 9 -6q5 0 16 10t30 28.5t47.5 44.5t68.5 58zM287 214q-28 35 -46 63t-29.5 47.5t-19 29.5t-14.5 10q-9 0 -9 -17q0 -11 8.5 -42.5t27.5 -83.5
q-47 -57 -67.5 -93.5t-20.5 -48.5q0 -6 8 -6q5 0 15.5 10t29.5 28.5t47.5 44.5t69.5 58z" />
    <glyph glyph-name="guilsinglleft" unicode="&#x2039;" horiz-adv-x="193" 
d="M96 217q46 56 67 92.5t21 49.5q0 6 -8 6q-5 0 -15.5 -10t-29.5 -28.5t-48 -44.5t-69 -58q28 -36 46 -64t29.5 -47.5t19 -29.5t14.5 -10q8 0 8 18q0 16 -9 47t-26 79z" />
    <glyph glyph-name="guilsinglright" unicode="&#x203a;" horiz-adv-x="193" 
d="M156 214q-28 35 -45.5 63t-29.5 47.5t-19 29.5t-14 10q-9 0 -9 -17q0 -11 8 -42.5t27 -83.5q-47 -56 -67.5 -93t-20.5 -49q0 -6 8 -6q5 0 15.5 10t29.5 28.5t47.5 44.5t69.5 58z" />
    <glyph glyph-name="h" unicode="h" horiz-adv-x="450" 
d="M246 651q3 12 5.5 20.5t2.5 13.5q0 16 -14 16q-4 0 -10.5 -3.5t-18 -8t-28 -9.5t-40.5 -7q-21 -2 -35.5 -2.5t-14.5 -17.5q0 -10 8 -12t17 -3t17 -4.5t8 -15.5q0 -5 -1 -15.5t-5 -24.5l-142 -549q-3 -14 -3 -20q0 -9 8.5 -11.5t25.5 -2.5t27 2t15 10q2 3 11.5 35t35.5 99
q32 80 101 181q24 35 42 54t37 19q14 0 24 -13t10 -38q0 -18 -10 -74t-37 -146q-30 -96 -49 -96q-7 0 -13.5 7t-13.5 15.5t-16 15.5t-21 7q-15 0 -26 -11.5t-11 -26.5q0 -24 16 -38t44 -14q38 0 80.5 29t77.5 88q33 55 50.5 117t17.5 116q0 60 -23 92.5t-60 32.5
q-48 0 -97.5 -56.5t-108.5 -171.5z" />
    <glyph glyph-name="hungarumlaut" unicode="&#x2dd;" 
d="M328 617q17 23 17 39q0 13 -8 22t-18 9q-11 0 -17 -8t-12 -23l-61 -144h24zM437 616q20 25 20 40q0 13 -7.5 22t-17.5 9q-17 0 -31 -28l-75 -147h25z" />
    <glyph glyph-name="hyphen" unicode="-" horiz-adv-x="222" 
d="M38 263q-9 0 -13 -13l-21 -61q-2 -6 -2 -7q0 -6 7 -6h153q9 0 13 13l22 62q1 3 1 7q0 5 -7 5h-153z" />
    <glyph glyph-name="hyphen" unicode="&#xad;" horiz-adv-x="222" 
d="M38 263q-9 0 -13 -13l-21 -61q-2 -6 -2 -7q0 -6 7 -6h153q9 0 13 13l22 62q1 3 1 7q0 5 -7 5h-153z" />
    <glyph glyph-name="i" unicode="i" horiz-adv-x="264" 
d="M161 557q0 -24 9 -37.5t26 -13.5q23 0 39 25.5t16 60.5q0 19 -9.5 31t-25.5 12q-11 0 -20.5 -7t-17.5 -18t-12.5 -25t-4.5 -28zM201 330q8 26 12 46t4 32q0 51 -45 51q-24 0 -47.5 -16t-52.5 -48q-25 -28 -37 -47t-12 -26q0 -13 9 -13q7 0 17 12t21 27t22.5 27t20.5 12
q12 0 12 -16q0 -6 -6 -27l-63 -199q-11 -36 -16 -66t-5 -50q0 -46 37 -46q21 0 47 15t56 47q25 28 36.5 46.5t11.5 25.5q0 5 -3 8.5t-7 3.5q-6 0 -16 -12t-21 -26.5t-23 -26.5t-22 -12t-10 11q0 7 4.5 27.5t15.5 53.5z" />
    <glyph glyph-name="iacute" unicode="&#xed;" horiz-adv-x="264" 
d="M201 330q8 26 12 46t4 32q0 51 -45 51q-24 0 -47.5 -16t-52.5 -48q-25 -28 -37 -47t-12 -26q0 -13 9 -13q7 0 17 12t21 27t22.5 27t20.5 12q12 0 12 -16q0 -6 -6 -27l-63 -199q-11 -36 -16 -66t-5 -50q0 -48 37 -48q43 0 103 64q25 28 36.5 46.5t11.5 25.5q0 5 -3 8.5
t-7 3.5q-6 0 -16 -12t-21 -26.5t-23 -26.5t-22 -12t-10 11q0 7 4.5 27.5t15.5 53.5zM268 610q27 22 27 42q0 14 -7.5 24t-18.5 10q-16 0 -32 -21l-117 -154h28z" />
    <glyph glyph-name="icircumflex" unicode="&#xee;" horiz-adv-x="264" 
d="M201 330q8 26 12 46t4 32q0 51 -45 51q-24 0 -47.5 -16t-52.5 -48q-25 -28 -37 -47t-12 -26q0 -13 9 -13q7 0 17 12t21 27t22.5 27t20.5 12q12 0 12 -16q0 -6 -6 -27l-63 -199q-11 -36 -16 -66t-5 -50q0 -48 37 -48q43 0 103 64q25 28 36.5 46.5t11.5 25.5q0 5 -3 8.5
t-7 3.5q-6 0 -16 -12t-21 -26.5t-23 -26.5t-22 -12t-10 11q0 7 4.5 27.5t15.5 53.5zM184 682l-120 -171h26l108 102l69 -102h22l-63 171h-42z" />
    <glyph glyph-name="idieresis" unicode="&#xef;" horiz-adv-x="264" 
d="M201 330q8 26 12 46t4 32q0 51 -45 51q-24 0 -47.5 -16t-52.5 -48q-25 -28 -37 -47t-12 -26q0 -13 9 -13q7 0 17 12t21 27t22.5 27t20.5 12q12 0 12 -16q0 -6 -6 -27l-63 -199q-11 -36 -16 -66t-5 -50q0 -48 37 -48q43 0 103 64q25 28 36.5 46.5t11.5 25.5q0 5 -3 8.5
t-7 3.5q-6 0 -16 -12t-21 -26.5t-23 -26.5t-22 -12t-10 11q0 7 4.5 27.5t15.5 53.5zM67 584q0 -20 14 -34.5t34 -14.5t34.5 14t14.5 35q0 19 -14.5 33.5t-34.5 14.5q-19 0 -33.5 -14.5t-14.5 -33.5zM251 584q0 -20 14 -34.5t34 -14.5t34 14t14 35q0 19 -14 33.5t-34 14.5
q-19 0 -33.5 -14.5t-14.5 -33.5z" />
    <glyph glyph-name="igrave" unicode="&#xec;" horiz-adv-x="264" 
d="M201 330q8 26 12 46t4 32q0 51 -45 51q-24 0 -47.5 -16t-52.5 -48q-25 -28 -37 -47t-12 -26q0 -13 9 -13q7 0 17 12t21 27t22.5 27t20.5 12q12 0 12 -16q0 -6 -6 -27l-63 -199q-11 -36 -16 -66t-5 -50q0 -48 37 -48q43 0 103 64q25 28 36.5 46.5t11.5 25.5q0 5 -3 8.5
t-7 3.5q-6 0 -16 -12t-21 -26.5t-23 -26.5t-22 -12t-10 11q0 7 4.5 27.5t15.5 53.5zM158 659q-15 27 -34 27q-11 0 -18.5 -9.5t-7.5 -26.5q0 -10 6 -19t16 -20l95 -100h26z" />
    <glyph glyph-name="j" unicode="j" horiz-adv-x="227" 
d="M163 557q0 -24 9 -37.5t26 -13.5q23 0 39 25.5t16 60.5q0 19 -9.5 31t-25.5 12q-11 0 -20.5 -7t-17.5 -18t-12.5 -25t-4.5 -28zM193 329q8 30 10.5 51t2.5 30q0 47 -37 47q-42 0 -97 -62q-24 -27 -35 -46t-11 -27q0 -13 8 -13q6 0 16 12t20.5 27t21 27t19.5 12
q11 0 11 -16q0 -2 -1 -8.5t-4 -18.5l-84 -323q-28 -106 -45.5 -158t-29.5 -52q-10 0 -16.5 10.5t-13.5 22.5t-17 22.5t-26 10.5q-17 0 -27.5 -12t-10.5 -35q0 -29 19 -45t52 -16q28 0 58.5 15.5t59.5 46.5q29 30 43 67.5t26 85.5z" />
    <glyph glyph-name="k" unicode="k" horiz-adv-x="435" 
d="M236 651q3 12 5.5 20.5t2.5 13.5q0 16 -14 16q-4 0 -10 -3.5t-16.5 -8.5t-26 -9.5t-37.5 -6.5q-20 -2 -33.5 -2.5t-13.5 -17.5q0 -9 7.5 -11t16 -3.5t16 -5t7.5 -15.5q0 -6 -1.5 -16.5t-4.5 -23.5l-143 -544q-3 -14 -3 -21q0 -17 20 -17q18 0 29.5 1t18.5 4.5t10.5 10
t6.5 17.5l13 54q9 38 16.5 63t12.5 38q22 -11 30.5 -29.5t17.5 -44.5q12 -34 23 -58t24 -39t29 -22t39 -7q44 0 72 29t28 70q0 25 -11.5 40t-25.5 15q-21 0 -21 -20q0 -8 4.5 -14.5t9.5 -12.5t9.5 -12.5t4.5 -15.5q0 -13 -7.5 -21.5t-20.5 -8.5q-17 0 -27.5 14t-21.5 39
l-17 38q-6 13 -16 30.5t-30 40.5q106 15 159 60.5t53 117.5q0 42 -20.5 65.5t-50.5 23.5q-48 0 -101 -45.5t-110 -136.5zM125 209q48 96 93.5 142.5t74.5 46.5q14 0 25 -11.5t11 -29.5q0 -27 -14.5 -53.5t-41.5 -47.5t-64.5 -34t-83.5 -13z" />
    <glyph glyph-name="l" unicode="l" horiz-adv-x="248" 
d="M266 651q8 26 8 34q0 16 -14 16q-5 0 -13.5 -4.5t-21 -9.5t-29 -9.5t-35.5 -4.5q-24 0 -36 -3t-12 -17q0 -10 8 -12t17.5 -2.5t17.5 -4t8 -16.5q0 -5 -1.5 -15.5t-5.5 -24.5l-121 -434q-9 -32 -15 -60.5t-6 -54.5q0 -23 9.5 -34.5t26.5 -11.5t42.5 12t52.5 41
q29 31 43 52.5t14 29.5q0 12 -9 12q-7 0 -17 -11.5t-21 -26t-22 -26t-20 -11.5q-14 0 -14 15q0 6 3.5 24t12.5 48z" />
    <glyph glyph-name="less" unicode="&#x3c;" horiz-adv-x="833" 
d="M704 559l-575 -236v-50l575 -236v63l-488 198l488 199v62z" />
    <glyph glyph-name="logicalnot" unicode="&#xac;" horiz-adv-x="833" 
d="M124 419v-57h529v-188h56v245h-585z" />
    <glyph glyph-name="m" unicode="m" horiz-adv-x="700" 
d="M395 315q6 23 11 44.5t5 44.5q0 25 -15 40t-41 15q-48 0 -100 -54.5t-102 -166.5l15 56q11 41 16 71.5t5 50.5t-9.5 30.5t-24.5 10.5q-39 0 -96 -64q-25 -28 -36.5 -47t-11.5 -26q0 -11 8 -11q6 0 15.5 12.5t20.5 27t22 27t20 12.5q10 0 10 -11q0 -14 -18 -81l-71 -254
q-3 -11 -4 -17.5t-1 -8.5q0 -5 5 -10.5t10 -5.5h39q15 0 22 9t13 30t16 55t31 84q24 58 49.5 101t48.5 71.5t41 42.5t29 14q20 0 20 -26q0 -6 -16.5 -82t-61.5 -206l-18 -51q-3 -9 -4 -15.5t-1 -9.5q0 -7 5 -12t10 -5h40q15 0 22 8.5t13.5 29t16.5 55t31 85.5
q24 58 49.5 101t48.5 71.5t41.5 42.5t29.5 14q21 0 21 -26q0 -8 -2 -21t-6 -25l-53 -171q-14 -45 -22 -77t-8 -52q0 -49 46 -49q28 0 56.5 23t62.5 71q17 24 24.5 40.5t7.5 22.5q0 12 -10 12t-15 -12.5t-16 -29.5q-33 -52 -55 -52q-12 0 -12 19q0 8 2.5 19.5t7.5 25.5
l63 190q9 27 13 50t4 39q0 25 -15.5 40t-44.5 15q-52 0 -107.5 -54.5t-109.5 -166.5z" />
    <glyph glyph-name="macron" unicode="&#xaf;" 
d="M214 614l-11 -61h202l10 61h-201z" />
    <glyph glyph-name="macron" unicode="&#x2c9;" 
d="M214 614l-11 -61h202l10 61h-201z" />
    <glyph glyph-name="mu" unicode="&#xb5;" horiz-adv-x="547" 
d="M80 94q14 -105 109 -105q92 0 137 106v-11q0 -45 20.5 -69t52.5 -24q76 0 112 80q11 25 15.5 44.5t4.5 28.5q0 18 -13 18q-6 0 -10 -7t-7.5 -17.5l-8 -24t-13.5 -26.5q-22 -34 -57 -34q-20 0 -32.5 14.5t-12.5 38.5q0 13 2.5 29t7.5 38l56 259h-73l-54 -249
q-29 -131 -126 -131q-37 0 -57.5 22t-20.5 63q0 25 6 55l51 240h-72l-53 -251q-15 -71 -30 -127.5t-26.5 -99t-19 -71.5t-7.5 -44q0 -20 10.5 -31.5t28.5 -11.5q21 0 31 18.5t16 56t12 93t21 130.5z" />
    <glyph glyph-name="mu" unicode="&#x3bc;" horiz-adv-x="547" 
d="M80 94q14 -105 109 -105q92 0 137 106v-11q0 -45 20.5 -69t52.5 -24q76 0 112 80q11 25 15.5 44.5t4.5 28.5q0 18 -13 18q-6 0 -10 -7t-7.5 -17.5l-8 -24t-13.5 -26.5q-22 -34 -57 -34q-20 0 -32.5 14.5t-12.5 38.5q0 13 2.5 29t7.5 38l56 259h-73l-54 -249
q-29 -131 -126 -131q-37 0 -57.5 22t-20.5 63q0 25 6 55l51 240h-72l-53 -251q-15 -71 -30 -127.5t-26.5 -99t-19 -71.5t-7.5 -44q0 -20 10.5 -31.5t28.5 -11.5q21 0 31 18.5t16 56t12 93t21 130.5z" />
    <glyph glyph-name="n" unicode="n" horiz-adv-x="483" 
d="M415 315q17 54 17 89q0 24 -16 39.5t-45 15.5q-52 0 -107.5 -54.5t-109.5 -166.5l15 56q11 41 16 71.5t5 50.5t-9.5 30.5t-25.5 10.5q-39 0 -96 -64q-25 -28 -36.5 -47t-11.5 -26q0 -11 8 -11q6 0 15.5 12.5t20.5 27t22 27t20 12.5q10 0 10 -11q0 -15 -18 -81l-70 -254
q-3 -11 -4 -17.5t-1 -8.5q0 -5 5 -10.5t10 -5.5h40q15 0 22 8.5t14 29.5t17 55t32 85q25 58 51 101t49.5 71.5t42.5 42.5t30 14q21 0 21 -26q0 -8 -2 -19.5t-7 -28.5l-35 -116q-20 -67 -31 -112.5t-11 -70.5q0 -48 41 -48q27 0 55.5 24t63.5 72q17 23 24 39.5t7 22.5
q0 11 -10 11t-15 -12t-16 -30q-17 -26 -29.5 -39t-25.5 -13q-12 0 -12 19q0 11 3 21.5t7 23.5z" />
    <glyph glyph-name="nine" unicode="9" horiz-adv-x="433" 
d="M252 651q-42 0 -81 -19t-70 -52.5t-49.5 -78t-18.5 -95.5q0 -37 11 -68.5t29.5 -54.5t44 -36t55.5 -13q32 0 51 11.5t19 22.5q0 8 -10 8q-8 0 -18 -6t-26 -6q-74 0 -74 123q0 49 11 92.5t30 75.5t43.5 50.5t51.5 18.5q86 0 86 -152q0 -65 -15 -132.5t-40.5 -129
t-60.5 -112.5t-74 -83q-36 -30 -71 -45.5t-62.5 -24.5t-44.5 -15t-17 -16q0 -11 16 -11q5 0 31 6.5t62.5 20t78 34t79.5 49.5q45 34 82 80t62.5 99.5t39.5 113.5t14 123q0 50 -13 91t-35.5 70t-52.5 45t-64 16z" />
    <glyph glyph-name="ntilde" unicode="&#xf1;" horiz-adv-x="483" 
d="M415 315q17 54 17 89q0 24 -16 39.5t-45 15.5q-52 0 -107.5 -54.5t-109.5 -166.5l15 56q11 41 16 71.5t5 50.5t-9.5 30.5t-25.5 10.5q-39 0 -96 -64q-25 -28 -36.5 -47t-11.5 -26q0 -11 8 -11q6 0 15.5 12.5t20.5 27t22 27t20 12.5q10 0 10 -11q0 -15 -18 -81l-70 -254
q-3 -11 -4 -17.5t-1 -8.5q0 -5 5 -10.5t10 -5.5h40q15 0 22 8.5t14 29.5t17 55t32 85q25 58 51 101t49.5 71.5t42.5 42.5t30 14q21 0 21 -26q0 -8 -2 -19.5t-7 -28.5l-35 -116q-20 -67 -31 -112.5t-11 -70.5q0 -48 41 -48q27 0 55.5 24t63.5 72q17 23 24 39.5t7 22.5
q0 11 -10 11t-15 -12t-16 -30q-17 -26 -29.5 -39t-25.5 -13q-12 0 -12 19q0 11 3 21.5t7 23.5zM399 644q-9 -41 -40 -41q-13 0 -22 4l-51 18q-8 3 -15.5 4t-13.5 1q-55 0 -67 -90h19q6 37 36 37q10 0 27 -6l51 -18q13 -5 24 -5q56 0 71 96h-19z" />
    <glyph glyph-name="numbersign" unicode="#" horiz-adv-x="769" 
d="M380 711l-81 -231h-170l-21 -56h170l-49 -140h-157l-21 -56h158l-81 -229h64l81 229h140l-81 -229h65l81 229h161l21 56h-162l49 140h151l20 56h-150l81 231h-64l-82 -231h-140l82 231h-65zM342 424h142l-50 -140h-141z" />
    <glyph glyph-name="o" unicode="o" horiz-adv-x="445" 
d="M252 458q-45 0 -88.5 -21.5t-77.5 -59t-55 -89t-21 -111.5q0 -42 11.5 -78t32 -61.5t50 -40t65.5 -14.5q45 0 89 22.5t78.5 61t56 88.5t21.5 106q0 46 -12 82.5t-34 62t-51.5 39t-64.5 13.5zM327 312q0 -60 -14.5 -115t-37.5 -97t-51 -67t-55 -25q-33 0 -53.5 32.5
t-20.5 94.5q0 47 12 97.5t38 101.5q24 49 52.5 73t57.5 24q35 0 53.5 -30t18.5 -89z" />
    <glyph glyph-name="oacute" unicode="&#xf3;" horiz-adv-x="445" 
d="M252 458q-45 0 -88.5 -21.5t-77.5 -59t-55 -89t-21 -111.5q0 -42 11.5 -78t32 -61.5t50 -40t65.5 -14.5q45 0 89 22.5t78.5 61t56 88.5t21.5 106q0 46 -12 82.5t-34 62t-51.5 39t-64.5 13.5zM327 312q0 -60 -14.5 -115t-37.5 -97t-51 -67t-55 -25q-33 0 -53.5 32.5
t-20.5 94.5q0 47 12 97.5t38 101.5q24 49 52.5 73t57.5 24q35 0 53.5 -30t18.5 -89zM359 610q27 22 27 42q0 14 -7.5 24t-18.5 10q-16 0 -32 -21l-117 -154h28z" />
    <glyph glyph-name="ocircumflex" unicode="&#xf4;" horiz-adv-x="445" 
d="M252 458q-45 0 -88.5 -21.5t-77.5 -59t-55 -89t-21 -111.5q0 -42 11.5 -78t32 -61.5t50 -40t65.5 -14.5q45 0 89 22.5t78.5 61t56 88.5t21.5 106q0 46 -12 82.5t-34 62t-51.5 39t-64.5 13.5zM327 312q0 -60 -14.5 -115t-37.5 -97t-51 -67t-55 -25q-33 0 -53.5 32.5
t-20.5 94.5q0 47 12 97.5t38 101.5q24 49 52.5 73t57.5 24q35 0 53.5 -30t18.5 -89zM275 682l-120 -171h26l108 102l69 -102h22l-63 171h-42z" />
    <glyph glyph-name="odieresis" unicode="&#xf6;" horiz-adv-x="445" 
d="M252 458q-45 0 -88.5 -21.5t-77.5 -59t-55 -89t-21 -111.5q0 -42 11.5 -78t32 -61.5t50 -40t65.5 -14.5q45 0 89 22.5t78.5 61t56 88.5t21.5 106q0 46 -12 82.5t-34 62t-51.5 39t-64.5 13.5zM327 312q0 -60 -14.5 -115t-37.5 -97t-51 -67t-55 -25q-33 0 -53.5 32.5
t-20.5 94.5q0 47 12 97.5t38 101.5q24 49 52.5 73t57.5 24q35 0 53.5 -30t18.5 -89zM158 584q0 -20 14 -34.5t34 -14.5t34.5 14t14.5 35q0 19 -14.5 33.5t-34.5 14.5q-19 0 -33.5 -14.5t-14.5 -33.5zM342 584q0 -20 14 -34.5t34 -14.5t34 14t14 35q0 19 -14 33.5t-34 14.5
q-19 0 -33.5 -14.5t-14.5 -33.5z" />
    <glyph glyph-name="oe" unicode="&#x153;" horiz-adv-x="670" 
d="M327 312q0 -60 -14.5 -115t-37.5 -97t-51 -67t-55 -25q-33 0 -53.5 32.5t-20.5 94.5q0 47 12 97.5t38 101.5q24 49 52.5 73t57.5 24q35 0 53.5 -30t18.5 -89zM402 214q21 106 58.5 161.5t72.5 55.5q20 0 31 -15.5t11 -43.5q0 -33 -11.5 -60.5t-33.5 -48.5t-54.5 -33.5
t-73.5 -15.5zM398 178q130 23 195 65t65 116q0 45 -29 74t-77 29q-41 0 -82 -23t-79 -70q-45 89 -138 89q-47 0 -91 -21.5t-78 -59.5t-54 -89t-20 -111q0 -42 11.5 -78t32.5 -61.5t50 -40t65 -14.5q85 0 159 74q37 -76 109 -76q34 0 64 17.5t62 54.5q21 24 31 43t10 27
q0 11 -9 11q-8 0 -12 -10.5t-17 -24.5q-23 -26 -44.5 -39t-45.5 -13q-37 0 -58 28.5t-21 84.5q0 5 0.5 9t0.5 9z" />
    <glyph glyph-name="ogonek" unicode="&#x2db;" 
d="M230 15q-99 -80 -99 -164q0 -31 17.5 -50.5t44.5 -19.5q52 0 82 72l-11 9q-15 -35 -46 -35q-17 0 -28.5 15t-11.5 43q0 61 71 130h-19z" />
    <glyph glyph-name="ograve" unicode="&#xf2;" horiz-adv-x="445" 
d="M252 458q-45 0 -88.5 -21.5t-77.5 -59t-55 -89t-21 -111.5q0 -42 11.5 -78t32 -61.5t50 -40t65.5 -14.5q45 0 89 22.5t78.5 61t56 88.5t21.5 106q0 46 -12 82.5t-34 62t-51.5 39t-64.5 13.5zM327 312q0 -60 -14.5 -115t-37.5 -97t-51 -67t-55 -25q-33 0 -53.5 32.5
t-20.5 94.5q0 47 12 97.5t38 101.5q24 49 52.5 73t57.5 24q35 0 53.5 -30t18.5 -89zM249 659q-15 27 -34 27q-11 0 -18.5 -9.5t-7.5 -26.5q0 -10 6 -19t16 -20l95 -100h26z" />
    <glyph glyph-name="one" unicode="1" horiz-adv-x="433" 
d="M354 606q5 22 5 25q0 11 -11 11q-8 0 -37.5 -17.5t-86.5 -40.5q-46 -19 -68 -26.5t-22 -21.5q0 -6 4.5 -10t10.5 -4q9 0 21 5.5t25 12t26.5 12t24.5 5.5q6 0 6 -5q0 -8 -2 -15.5t-4 -15.5l-108 -418q-5 -17 -8.5 -28.5t-8.5 -19.5t-12 -12.5t-18 -7.5t-23 -3
q-11 0 -21 -1.5t-16 -5.5t-6 -13q0 -15 23 -15q11 0 40 2.5t77 2.5t79.5 -3.5t46.5 -3.5q18 0 18 16t-17.5 17t-48.5 3q-12 1 -19.5 8t-7.5 19t4 25z" />
    <glyph glyph-name="ordfeminine" unicode="&#xaa;" horiz-adv-x="354" 
d="M331 620q1 2 1 4v5q0 10 -22 10q-20 0 -24 -3.5t-9 -8.5l-6 -7q-13 5 -25 8.5t-23 3.5q-32 0 -70.5 -19.5t-73.5 -58.5q-41 -45 -61 -93t-20 -86t15.5 -57t43.5 -19q31 0 73.5 39.5t92.5 121.5l-23 -85q-8 -30 -8 -42q0 -34 30 -34q35 0 80 57q28 37 28 51q0 8 -8 8
q-4 0 -9.5 -10t-18.5 -28q-8 -11 -14.5 -18t-13.5 -7q-9 0 -9 13q0 7 4 19zM224 611q36 0 36 -31q0 -18 -15.5 -47.5t-44.5 -73.5q-35 -54 -61 -80t-49 -26q-10 0 -16.5 10t-6.5 29q0 23 13.5 62t44.5 82q26 38 51 56.5t48 18.5z" />
    <glyph glyph-name="ordmasculine" unicode="&#xba;" horiz-adv-x="334" 
d="M189 632q-34 0 -66.5 -15t-58 -41t-41 -62.5t-15.5 -78.5q0 -30 8.5 -55t24 -43t37.5 -28t49 -10q34 0 67 16t59 42.5t42 62t16 74.5q0 64 -34.5 101t-87.5 37zM245 529q0 -42 -11 -80.5t-28 -67.5t-38 -46.5t-41 -17.5q-25 0 -40.5 22.5t-15.5 65.5q0 33 9 69t29 71
q36 68 82 68q54 0 54 -84z" />
    <glyph glyph-name="oslash" unicode="&#xf8;" horiz-adv-x="445" 
d="M353 545l-48 -96q-30 9 -54 9q-45 0 -88 -21t-77 -58.5t-55 -89t-21 -112.5q0 -55 19 -98.5t54 -69.5l-65 -129h41l56 112q15 -5 28.5 -7.5t27.5 -2.5q44 0 89 24t84 70q70 82 70 185q0 59 -20 102.5t-58 69.5l56 112h-39zM290 420l-183 -362q-8 20 -10 37.5t-2 34.5
q0 58 15 112.5t38 96.5t50.5 67t53.5 25q20 0 38 -11zM314 389q8 -20 10.5 -37t2.5 -35q0 -63 -14.5 -119t-37.5 -98t-51 -67t-55 -25q-20 0 -38 15z" />
    <glyph glyph-name="otilde" unicode="&#xf5;" horiz-adv-x="445" 
d="M252 458q-45 0 -88.5 -21.5t-77.5 -59t-55 -89t-21 -111.5q0 -42 11.5 -78t32 -61.5t50 -40t65.5 -14.5q45 0 89 22.5t78.5 61t56 88.5t21.5 106q0 46 -12 82.5t-34 62t-51.5 39t-64.5 13.5zM327 312q0 -60 -14.5 -115t-37.5 -97t-51 -67t-55 -25q-33 0 -53.5 32.5
t-20.5 94.5q0 47 12 97.5t38 101.5q24 49 52.5 73t57.5 24q35 0 53.5 -30t18.5 -89zM380 644q-9 -41 -40 -41q-13 0 -22 4l-51 18q-8 3 -15.5 4t-13.5 1q-55 0 -67 -90h19q6 37 36 37q10 0 27 -6l51 -18q13 -5 24 -5q56 0 71 96h-19z" />
    <glyph glyph-name="p" unicode="p" horiz-adv-x="437" 
d="M151 542q-12 0 -17.5 -6.5t-8.5 -19.5l-23 -93q-35 -17 -52.5 -29t-17.5 -24q0 -5 3 -8.5t7 -3.5q5 0 16.5 9.5t35.5 20.5l-116 -472q-10 -39 -16.5 -60.5t-28.5 -33.5q-8 -5 -18 -7.5t-18.5 -5.5t-14 -7t-5.5 -10q0 -14 15 -14q11 0 39.5 5.5t74.5 5.5q36 0 59 -4t34 -4
q6 0 10.5 4.5t4.5 9.5q0 6 -3.5 9t-9 4t-13 2t-14.5 3q-13 4 -20.5 13.5t-7.5 20.5t1 24t5 28l28 114q21 -16 42.5 -23.5t41.5 -7.5q91 0 164 97q39 52 59 109.5t20 113.5q0 76 -36 117t-102 41q-20 0 -40 -3.5t-41 -9.5l19 76q1 3 1 7q0 12 -15 12h-42zM107 123l74 291
q14 3 27 5t25 2q47 0 71.5 -26t24.5 -76q0 -34 -14 -90t-43 -115q-51 -105 -115 -105q-26 0 -41.5 16.5t-15.5 47.5q0 23 7 50z" />
    <glyph glyph-name="paragraph" unicode="&#xb6;" 
d="M463 722h-234q-44 0 -79.5 -12.5t-60.5 -35t-38.5 -54t-13.5 -68.5q0 -73 48.5 -119.5t134.5 -50.5v-382h46v684h90v-684h46v684h61v38z" />
    <glyph glyph-name="parenleft" unicode="(" horiz-adv-x="311" 
d="M376 648q-5 0 -21 -6.5t-39.5 -19.5t-51.5 -33t-56 -47q-81 -79 -126 -189t-45 -241q0 -75 23.5 -142t66.5 -118q19 -23 36 -34t25 -11q9 0 9 10q0 11 -10.5 15.5t-21.5 15.5q-29 27 -44 72.5t-15 108.5q0 55 12.5 129t41.5 162q20 62 45.5 116t66.5 105q24 30 45.5 46.5
t37.5 25.5t25 13.5t9 10.5q0 11 -13 11z" />
    <glyph glyph-name="parenright" unicode=")" horiz-adv-x="311" 
d="M78 648q-10 0 -10 -10t10 -15t22 -16q59 -54 59 -181q0 -54 -12 -127.5t-41 -163.5q-20 -62 -45.5 -116.5t-66.5 -104.5q-24 -30 -45.5 -46.5t-37.5 -25.5t-25 -13.5t-9 -10.5q0 -11 13 -11q4 0 20.5 6.5t40 19.5t51.5 33t56 47q81 79 125.5 188.5t44.5 234.5
q0 76 -20.5 141t-59.5 115q-23 29 -42.5 42.5t-27.5 13.5z" />
    <glyph glyph-name="percent" unicode="%" horiz-adv-x="585" 
d="M35 452q0 -59 28 -94.5t73 -35.5q30 0 57.5 15t48.5 41t34 61t13 76q0 62 -28.5 98t-73.5 36q-30 0 -57.5 -15.5t-48.5 -42t-33.5 -62.5t-12.5 -77zM475 648l-405 -667h44l405 667h-44zM191 627q44 0 44 -77q0 -41 -8.5 -78t-23 -65.5t-32.5 -45.5t-36 -17q-46 0 -46 75
q0 42 9 79.5t23.5 66t32.5 45.5t37 17zM296 111q0 -60 28 -95.5t73 -35.5q30 0 57.5 15t48.5 41t34 61t13 76q0 61 -28 97.5t-73 36.5q-30 0 -57.5 -15.5t-48.5 -42t-34 -62t-13 -76.5zM448 285q45 0 45 -78q0 -40 -8.5 -77t-23 -65.5t-32.5 -45.5t-36 -17q-21 0 -33.5 19
t-12.5 54q0 42 8.5 80.5t23 67t32.5 45.5t37 17z" />
    <glyph glyph-name="period" unicode="." horiz-adv-x="217" 
d="M9 37q0 -47 34 -47q20 0 34 20.5t14 45.5q0 48 -34 48q-19 0 -33.5 -19t-14.5 -48z" />
    <glyph glyph-name="periodcentered" unicode="&#xb7;" horiz-adv-x="217" 
d="M108 367q-17 0 -29.5 -14.5t-12.5 -37.5t12.5 -38t29.5 -15t29.5 15t12.5 38t-12.5 37.5t-29.5 14.5z" />
    <glyph glyph-name="periodcentered" unicode="&#x22c5;" horiz-adv-x="217" 
d="M108 367q-17 0 -29.5 -14.5t-12.5 -37.5t12.5 -38t29.5 -15t29.5 15t12.5 38t-12.5 37.5t-29.5 14.5z" />
    <glyph glyph-name="perthousand" unicode="&#x2030;" horiz-adv-x="885" 
d="M35 452q0 -59 28 -94.5t73 -35.5q30 0 57.5 15t48.5 41t34 61t13 76q0 62 -28.5 98t-73.5 36q-30 0 -57.5 -15.5t-48.5 -42t-33.5 -62.5t-12.5 -77zM475 648l-405 -667h44l405 667h-44zM191 627q44 0 44 -77q0 -41 -8.5 -78t-23 -65.5t-32.5 -45.5t-36 -17q-46 0 -46 75
q0 42 9 79.5t23.5 66t32.5 45.5t37 17zM296 111q0 -60 28 -95.5t73 -35.5q30 0 57.5 15t48.5 41t34 61t13 76q0 61 -28 97.5t-73 36.5q-30 0 -57.5 -15.5t-48.5 -42t-34 -62t-13 -76.5zM596 111q0 -60 28 -95.5t73 -35.5q30 0 57.5 15t48.5 41t34 61t13 76q0 61 -28 97.5
t-73 36.5q-30 0 -57.5 -15.5t-48.5 -42t-34 -62t-13 -76.5zM448 285q45 0 45 -78q0 -40 -8.5 -77t-23 -65.5t-32.5 -45.5t-36 -17q-21 0 -33.5 19t-12.5 54q0 42 8.5 80.5t23 67t32.5 45.5t37 17zM748 285q45 0 45 -78q0 -40 -8.5 -77t-23 -65.5t-32.5 -45.5t-36 -17
q-21 0 -33.5 19t-12.5 54q0 42 8.5 80.5t23 67t32.5 45.5t37 17z" />
    <glyph glyph-name="plus" unicode="+" horiz-adv-x="833" 
d="M388 596v-269h-264v-57h264v-270h58v270h263v57h-263v269h-58z" />
    <glyph glyph-name="plusminus" unicode="&#xb1;" horiz-adv-x="833" 
d="M388 576v-168h-264v-57h264v-168h58v168h263v57h-263v168h-58zM124 77v-57h585v57h-585z" />
    <glyph glyph-name="q" unicode="q" horiz-adv-x="442" 
d="M288 429q43 0 43 -47q0 -26 -20 -80.5t-65 -125.5q-38 -60 -70 -89t-52 -29q-41 0 -41 56q0 45 20.5 105t59.5 118q31 45 64.5 68.5t60.5 23.5zM376 243q26 106 46 157t20 57q0 13 -14 13q-6 0 -12.5 -5t-14 -11t-16 -11t-18.5 -5q-12 0 -33.5 11t-52.5 11
q-40 0 -85.5 -25.5t-93.5 -76.5q-54 -57 -81 -123.5t-27 -132.5q0 -60 22 -89.5t61 -29.5q38 0 89.5 47t110.5 147l-79 -299l-7 -24.5t-8.5 -18t-13 -12t-20.5 -7.5q-24 -5 -39 -7.5t-15 -16.5q0 -15 21 -15q5 0 33 4t87 4q42 0 64.5 -2.5t27.5 -2.5q18 0 18 14q0 11 -11 13
t-28 6q-23 4 -23 31q0 23 8 55z" />
    <glyph glyph-name="question" unicode="?" horiz-adv-x="272" 
d="M187 628q-101 0 -101 -98q0 -11 6.5 -18t17.5 -7q14 0 25.5 11.5t26.5 33.5q14 21 24 33t26 12q20 0 34 -15.5t14 -42.5q0 -36 -15.5 -61.5t-38 -45t-48 -35.5t-46.5 -32q-17 -14 -24 -31.5t-12 -40.5q-11 -57 -16 -87t-5 -31q0 -16 10 -16q8 0 11.5 11.5t9 29t16.5 37
t35 35.5q35 24 65.5 46.5t53 48t35 55.5t12.5 71q0 59 -30.5 98t-85.5 39zM-1 37q0 -47 34 -47q20 0 34 20.5t14 45.5q0 48 -34 48q-19 0 -33.5 -19t-14.5 -48z" />
    <glyph glyph-name="questiondown" unicode="&#xbf;" horiz-adv-x="272" 
d="M213 560q0 -21 9.5 -33.5t24.5 -12.5q19 0 33.5 19.5t14.5 48.5q0 47 -34 47q-20 0 -34 -20t-14 -49zM229 462q-9 0 -12.5 -11.5t-8.5 -28t-15 -35.5t-32 -35q-30 -23 -60.5 -43.5t-55 -46t-40 -57.5t-15.5 -77q0 -29 8 -54t23 -43.5t36.5 -29t48.5 -10.5q51 0 76.5 23
t25.5 74q0 11 -7 18.5t-18 7.5q-14 0 -25 -11.5t-26 -33.5q-14 -21 -24.5 -33t-26.5 -12q-20 0 -33.5 15.5t-13.5 45.5q0 24 14 53t40 52t53 38t46 32q18 17 23.5 38t10.5 48q18 96 18 101q0 15 -10 15z" />
    <glyph glyph-name="quotedbl" unicode="&#x22;" horiz-adv-x="331" 
d="M93 422l32 223q1 6 1.5 11t0.5 9q0 24 -11 36.5t-31 12.5q-41 0 -41 -49q0 -5 0.5 -10t1.5 -10l31 -223h16zM253 422l33 223q1 6 1 11v9q0 49 -41 49q-20 0 -31 -12.5t-11 -37.5q0 -5 0.5 -9.5t1.5 -9.5l32 -223h15z" />
    <glyph glyph-name="quotedblbase" unicode="&#x201e;" horiz-adv-x="328" 
d="M-11 27q0 -16 5.5 -25.5t12.5 -16t12.5 -12t5.5 -12.5q0 -17 -10.5 -31.5t-23 -26.5t-23 -21.5t-10.5 -16.5q0 -11 8 -11q9 0 27.5 14t37 36.5t32.5 51t14 57.5q0 32 -13 50t-33 18q-18 0 -30 -15.5t-12 -38.5zM124 25q0 -15 5.5 -24t12.5 -15.5t12.5 -12t5.5 -12.5
q0 -18 -10.5 -32t-23 -26t-23 -21.5t-10.5 -16.5q0 -11 10 -11q8 0 26.5 13.5t37 36t32.5 50.5t14 58q0 32 -13 50.5t-33 18.5q-18 0 -30.5 -15t-12.5 -41z" />
    <glyph glyph-name="quotedblleft" unicode="&#x201c;" horiz-adv-x="328" 
d="M80 489q0 -33 13 -51t33 -18q18 0 30 15t12 41q0 15 -5.5 24.5t-12.5 16t-12.5 11.5t-5.5 12q0 18 10.5 32.5t23 26.5t23 21.5t10.5 16.5q0 11 -9 11q-8 0 -26.5 -13.5t-37 -36t-32.5 -51t-14 -58.5zM216 489q0 -32 13.5 -50.5t32.5 -18.5q18 0 30 15t12 41q0 15 -5.5 24
t-12.5 16t-12.5 12t-5.5 13q0 17 10.5 31.5t23 26.5t23 21.5t10.5 16.5q0 11 -9 11q-8 0 -26.5 -13.5t-37 -36t-32.5 -51t-14 -58.5z" />
    <glyph glyph-name="quotedblright" unicode="&#x201d;" horiz-adv-x="328" 
d="M115 593q0 -15 5.5 -24t12.5 -15.5t12.5 -12t5.5 -12.5q0 -17 -10.5 -31.5t-23 -26.5t-23 -21.5t-10.5 -16.5q0 -11 8 -11q9 0 28 14t37.5 36.5t32.5 50.5t14 57q0 32 -13 50.5t-33 18.5q-18 0 -30.5 -15t-12.5 -41zM252 593q0 -15 5.5 -24t12.5 -15.5t12.5 -12
t5.5 -12.5q0 -17 -10.5 -31t-23 -26t-23 -22t-10.5 -17q0 -11 8 -11q9 0 27.5 13.5t37 36t32.5 51t14 57.5q0 32 -13 50.5t-33 18.5q-18 0 -30 -15t-12 -41z" />
    <glyph glyph-name="quoteleft" unicode="&#x2018;" horiz-adv-x="217" 
d="M97 489q0 -33 13 -51t33 -18q18 0 30.5 15t12.5 41q0 15 -5.5 24.5t-12.5 16t-12.5 11.5t-5.5 12q0 18 10.5 32.5t23 26.5t23 21.5t10.5 16.5q0 11 -10 11q-8 0 -26.5 -13.5t-37 -36t-32.5 -51t-14 -58.5z" />
    <glyph glyph-name="quoteright" unicode="&#x2019;" horiz-adv-x="217" 
d="M131 593q0 -15 5.5 -24t12.5 -15.5t12.5 -12t5.5 -12.5q0 -17 -10.5 -31.5t-23 -26.5t-23 -21.5t-10.5 -16.5q0 -11 8 -11q9 0 28 14t37.5 36.5t32.5 51t14 57.5q0 32 -13 50t-33 18q-18 0 -30.5 -15t-12.5 -41z" />
    <glyph glyph-name="quotesinglbase" unicode="&#x201a;" horiz-adv-x="217" 
d="M1 25q0 -15 5.5 -24t12.5 -15.5t12.5 -12t5.5 -12.5q0 -17 -10.5 -31.5t-23 -26.5t-23 -21.5t-10.5 -16.5q0 -11 8 -11q9 0 27.5 14t37 36.5t32.5 51t14 57.5q0 32 -13 50t-33 18q-18 0 -30 -15t-12 -41z" />
    <glyph glyph-name="quotesingle" unicode="'" horiz-adv-x="170" 
d="M93 422l32 223q1 6 1.5 11t0.5 9q0 24 -11 36.5t-31 12.5q-41 0 -41 -50v-10q0 -4 1 -9l32 -223h16z" />
    <glyph glyph-name="r" unicode="r" horiz-adv-x="333" 
d="M69 0q13 0 20 6t12 21t12 40.5t21 64.5q45 126 77.5 187t45.5 61q8 0 8 -11v-5q0 -18 9.5 -30t23.5 -12q21 0 34.5 21t13.5 53q0 31 -12.5 46.5t-32.5 15.5q-31 0 -74 -58.5t-81 -178.5l17 73q8 36 14 66t6 55q0 20 -9 31t-22 11q-18 0 -41 -16t-49 -48q-25 -31 -36 -52
t-11 -27q0 -14 10 -14q11 0 16 12t16 30q28 44 38 44t10 -10q0 -2 -1 -10.5t-4 -20.5l-75 -304q-4 -19 -4 -24q0 -6 5 -11.5t11 -5.5h32z" />
    <glyph glyph-name="registered" unicode="&#xae;" horiz-adv-x="822" 
d="M412 675q-69 0 -132.5 -26t-111.5 -75q-49 -50 -74.5 -112t-25.5 -131q0 -70 25.5 -132t75.5 -111t111 -74.5t128 -25.5q72 0 133 25t109 73q51 51 77.5 114.5t26.5 129.5q0 69 -25.5 132.5t-73.5 111.5t-111.5 74.5t-131.5 26.5zM412 636q59 0 114.5 -23.5t97.5 -65.5
t65 -99t23 -117t-22.5 -115t-66.5 -100q-43 -44 -96.5 -66t-115.5 -22q-124 0 -212 88q-89 89 -89 215q0 61 22.5 116t65.5 99q43 43 98.5 66.5t115.5 23.5zM229 533v-21q35 -2 48.5 -11.5t13.5 -37.5v-252q0 -27 -13.5 -37.5t-48.5 -11.5v-20h188v20q-35 2 -48 12t-13 37
v121h16q82 0 101 -65q3 -11 3.5 -23t1 -25.5t2.5 -27t8 -26.5q16 -32 62 -32q78 0 78 87v6h-21q0 -65 -33 -65q-12 0 -17 6t-7.5 16.5t-4 23.5t-5.5 28q-11 42 -34.5 65.5t-69.5 37.5q72 13 106 36t34 61q0 44 -40 71t-115 27h-192zM356 351v128q0 35 51 35q47 0 71.5 -22.5
t24.5 -56.5q0 -40 -29 -62.5t-86 -22.5h-12t-20 1z" />
    <glyph glyph-name="ring" unicode="&#x2da;" 
d="M214 621q0 -25 9 -46.5t24.5 -37.5t37 -25t46.5 -9t46.5 9t37.5 25t25 37.5t9 46.5q0 24 -9.5 45.5t-25.5 37.5t-37.5 25t-45.5 9t-45.5 -9t-37.5 -25t-25 -37.5t-9 -45.5zM256 620q0 32 22 54t54 22q31 0 53 -22t22 -54t-21.5 -53.5t-53.5 -21.5t-54 21.5t-22 53.5z" />
    <glyph glyph-name="s" unicode="s" horiz-adv-x="320" 
d="M165 295q-20 26 -30 45.5t-10 33.5q0 18 12 29.5t30 11.5q17 0 32 -12.5t28.5 -27.5t26.5 -27.5t26 -12.5q29 0 29 58q0 31 -30 47.5t-73 16.5q-29 0 -56 -13t-48 -34t-34 -46.5t-13 -50.5q0 -40 35 -86l55 -73q15 -20 25 -38t10 -42q0 -26 -12.5 -42t-29.5 -16
q-18 0 -34.5 14.5t-34.5 43.5q-14 23 -23 39.5t-24 16.5q-27 0 -27 -74q0 -32 30.5 -52.5t76.5 -20.5q30 0 58.5 11.5t50.5 30.5t35.5 44.5t13.5 54.5q0 32 -14 57t-34 52z" />
    <glyph glyph-name="section" unicode="&#xa7;" horiz-adv-x="400" 
d="M219 432q-21 32 -36 60t-15 57q0 32 19 53t54 21q19 0 31 -9t12 -20q0 -6 -4 -11.5t-8.5 -12.5t-8 -15.5t-3.5 -19.5q0 -20 11.5 -32.5t28.5 -12.5q19 0 32 17t13 44q0 41 -29 69t-73 28q-61 0 -97 -35t-36 -91q0 -32 12.5 -64t37.5 -67q-6 1 -11 1h-9q-20 0 -38.5 -9
t-33.5 -25.5t-24 -39.5t-9 -50q0 -37 15 -71t40 -72l62 -96q21 -32 31.5 -58t10.5 -49q0 -36 -21.5 -58.5t-49.5 -22.5q-25 0 -39 9.5t-14 23.5q0 5 4.5 11t9.5 13.5t9.5 16.5t4.5 20q0 23 -11.5 36t-28.5 13q-19 0 -32.5 -16t-13.5 -43q0 -45 31 -76.5t82 -31.5q28 0 52 9
t41.5 25.5t27.5 39.5t10 51q0 62 -51 140q7 -1 11.5 -1.5t8.5 -0.5q19 0 38 8.5t33 24.5t23 38.5t9 51.5q0 38 -14.5 72.5t-40.5 73.5zM272 169q0 -28 -15.5 -45.5t-38.5 -17.5q-27 0 -45 22t-41 61q-41 70 -41 110q0 26 18 45.5t41 19.5q19 0 38 -20.5t43 -62.5
q20 -34 30.5 -61.5t10.5 -50.5z" />
    <glyph glyph-name="semicolon" unicode=";" horiz-adv-x="235" 
d="M70 304q0 -21 9.5 -32.5t24.5 -11.5q20 0 33.5 19.5t13.5 45.5q0 49 -34 49q-19 0 -33 -19t-14 -51zM60 82q-20 0 -34.5 -19t-14.5 -45q0 -20 7.5 -28.5t17 -11.5t17 -4t7.5 -8q0 -26 -11.5 -47.5t-25.5 -39t-25.5 -30t-11.5 -21.5q0 -5 3 -8.5t7 -3.5q8 0 26.5 17t37 45
t32.5 63.5t14 72.5q0 32 -13 50t-33 18z" />
    <glyph glyph-name="semicolon" unicode="&#x37e;" horiz-adv-x="235" 
d="M70 304q0 -21 9.5 -32.5t24.5 -11.5q20 0 33.5 19.5t13.5 45.5q0 49 -34 49q-19 0 -33 -19t-14 -51zM60 82q-20 0 -34.5 -19t-14.5 -45q0 -20 7.5 -28.5t17 -11.5t17 -4t7.5 -8q0 -26 -11.5 -47.5t-25.5 -39t-25.5 -30t-11.5 -21.5q0 -5 3 -8.5t7 -3.5q8 0 26.5 17t37 45
t32.5 63.5t14 72.5q0 32 -13 50t-33 18z" />
    <glyph glyph-name="seven" unicode="7" horiz-adv-x="433" 
d="M222 629q-35 0 -57.5 1.5t-35.5 4t-19 4t-7 1.5q-8 0 -11 -23l-10 -70q-1 -4 -1 -9q0 -6 8 -6h236q32 0 32 -7q0 -3 -4 -13l-253 -553q-3 -8 -3 -11q0 -7 11 -7t14.5 3.5t7.5 11.5l7 16q38 83 86 191t114 239q54 106 85.5 158t31.5 62q0 11 -14 11q-5 0 -18 -2t-36 -2
h-164z" />
    <glyph glyph-name="six" unicode="6" horiz-adv-x="433" 
d="M460 704q-3 0 -27 -6t-59 -18.5t-77.5 -32t-81.5 -46.5q-49 -33 -87.5 -76.5t-65 -93t-40.5 -105t-14 -112.5q0 -53 12 -96t34 -73.5t54 -47.5t71 -17q46 0 87 20.5t72 56t48.5 83t17.5 100.5q0 38 -10.5 69.5t-29 54.5t-43 35.5t-52.5 12.5q-15 0 -29 -4t-24.5 -10
t-16.5 -12.5t-6 -12.5q0 -8 10 -8q7 0 17 6.5t25 6.5q33 0 52.5 -33.5t19.5 -96.5q0 -56 -11 -100t-29 -75.5t-42 -48t-50 -16.5q-42 0 -67.5 43t-25.5 127q0 67 15 130.5t42.5 119.5t66.5 102t87 78q38 25 70 38t55 20t36 12t13 14q0 12 -17 12z" />
    <glyph glyph-name="slash" unicode="/" horiz-adv-x="222" 
d="M219 648l-249 -741h39l249 741h-39z" />
    <glyph glyph-name="Aacute" unicode="&#xc1;" horiz-adv-x="469" 
d="M323 614q-5 26 -14 26q-6 0 -10.5 -5t-9.5 -14l-36 -63q-14 -23 -44 -76.5t-75 -141.5l-122 -240q-12 -24 -23 -39.5t-26 -23.5q-13 -7 -25.5 -9.5t-12.5 -15.5q0 -6 5 -10t11 -4q8 0 27.5 4t51.5 4q36 0 56.5 -3t26.5 -3q7 0 11.5 5t4.5 12q0 12 -10 14.5t-26 5.5
q-37 7 -37 37q0 6 2.5 17t8.5 23l55 114h173l16 -132q1 -8 1.5 -17.5t0.5 -17.5q0 -16 -9 -21.5t-20.5 -8.5t-20.5 -6.5t-9 -14.5q0 -13 20 -13q8 0 28 4.5t55 4.5q41 0 64.5 -4t31.5 -4q16 0 16 13q0 9 -4.5 12.5t-10.5 5t-13 2.5t-12 4q-6 4 -9 13t-5 24zM252 494l27 -228
h-148q26 55 56 112t65 116zM399 801q27 22 27 42q0 14 -7.5 24t-18.5 10q-16 0 -32 -21l-117 -154h28z" />
    <glyph glyph-name="sterling" unicode="&#xa3;" horiz-adv-x="433" 
d="M247 390q-2 19 -5 43.5t-3 56.5q0 60 17 91t38 31q10 0 16.5 -10.5t13.5 -22.5t15 -22.5t21 -10.5t22 11.5t9 28.5q0 26 -19 43.5t-48 17.5q-28 0 -56.5 -15.5t-52 -45.5t-38 -74t-14.5 -101q0 -31 3 -92h-81q-9 -15 -9 -28q0 -2 0.5 -4t0.5 -4h94q3 -20 3.5 -35t0.5 -26
v-16q0 -21 -4 -40.5t-15 -39.5q-24 11 -45 17t-41 6q-50 0 -83 -28.5t-33 -69.5q0 -30 20 -49t54 -19q61 0 119 64q26 -29 49 -43.5t54 -14.5q29 0 53.5 11.5t42.5 30t28.5 42t10.5 47.5q0 23 -8 37.5t-18 14.5q-7 0 -7 -9q0 -8 5 -15.5t5 -20.5q0 -27 -19.5 -46.5
t-48.5 -19.5q-22 0 -49 11.5t-53 34.5q29 42 44 84t18 92h102q6 16 6 24v12h-109zM127 74q-34 -55 -70 -55q-20 0 -31 12t-11 35t15.5 38t34.5 15q27 0 62 -45z" />
    <glyph glyph-name="t" unicode="t" horiz-adv-x="274" 
d="M166 560q-16 0 -22 -23l-28 -97h-55q-8 0 -12 -8t-4 -17q0 -6 2.5 -7.5t8.5 -1.5h52l-68 -258q-11 -42 -14.5 -70.5t-3.5 -39.5q0 -25 11.5 -40t30.5 -15q47 0 115 86q37 46 37 64q0 13 -9 13q-8 0 -14 -11.5t-23 -31.5q-18 -21 -30.5 -32.5t-23.5 -11.5q-9 0 -9 20
q0 8 3 27.5t12 51.5l65 233q2 7 4 11t9 4h62q10 0 15 6t5 14q0 14 -11 14h-72l21 84q2 6 3.5 11.5t1.5 12.5q0 5 -4 8.5t-9 3.5h-46z" />
    <glyph glyph-name="three" unicode="3" horiz-adv-x="433" 
d="M167 343q57 25 100 46.5t71.5 44t43 47t14.5 55.5q0 54 -36.5 84.5t-103.5 30.5q-34 0 -62.5 -13.5t-49.5 -31.5t-33 -36.5t-12 -28.5q0 -11 9 -11q10 0 15 11.5t22 29.5q21 23 41.5 35t46.5 12q30 0 48 -21.5t18 -62.5q0 -55 -35.5 -97t-109.5 -77q-21 -10 -38.5 -17
t-30 -13t-19.5 -11.5t-7 -13.5q0 -11 10 -11q3 0 11 4.5t19 9.5t25 9.5t29 4.5q47 0 76.5 -39t29.5 -111q0 -54 -17 -100t-43.5 -79t-57.5 -51.5t-58 -18.5q-18 0 -30 13t-22.5 28t-23 28t-32.5 13q-17 0 -28 -12t-11 -31q0 -32 30 -49.5t87 -17.5q54 0 113 25t106 70
q44 42 66.5 93.5t22.5 105.5q0 73 -44.5 114t-127.5 41q-5 0 -11 -0.5t-11 -0.5z" />
    <glyph glyph-name="tilde" unicode="&#x2dc;" 
d="M406 644q-9 -41 -40 -41q-13 0 -22 4l-51 18q-8 3 -15.5 4t-13.5 1q-55 0 -67 -90h19q6 37 36 37q10 0 27 -6l51 -18q13 -5 24 -5q56 0 71 96h-19z" />
    <glyph glyph-name="trademark" unicode="&#x2122;" horiz-adv-x="822" 
d="M125 702l-6 -87h13q4 38 19.5 56t47.5 18h10v-208q0 -24 -22 -26l-15 -1v-13h121v13l-15 1q-22 2 -22 26v208h10q32 0 47.5 -18t19.5 -56h12l-5 87h-215zM385 702v-13l15 -1q10 -1 16.5 -7.5t6.5 -18.5v-181q0 -24 -22 -26l-16 -1v-13h96v13l-15 1q-10 1 -16.5 7.5
t-6.5 18.5v193l85 -234h7l87 234v-193q0 -24 -22 -26l-15 -1v-13h115v13l-14 1q-23 2 -23 26v182q0 24 23 26l14 1v12h-85l-72 -195l-69 195h-89z" />
    <glyph glyph-name="two" unicode="2" horiz-adv-x="433" 
d="M56 102q26 30 55.5 56t61 49t64 46t64.5 47q55 43 82.5 88t27.5 102q0 69 -40.5 113t-109.5 44q-89 0 -150 -74q-21 -26 -29.5 -48t-8.5 -28q0 -13 9 -13t14 14.5t23 40.5q48 70 110 70q37 0 61 -31.5t24 -85.5q0 -45 -17.5 -83t-48 -75.5t-73 -77.5t-92.5 -90
q-123 -123 -123 -151q0 -15 19 -15q5 0 36.5 2t97.5 2q78 0 122 -3t54 -3q12 0 16 4t9 21l28 100q5 17 5 22q0 12 -11 12q-8 0 -12.5 -13.5t-15.5 -24.5q-11 -12 -26 -14.5t-34 -2.5h-192z" />
    <glyph glyph-name="u" unicode="u" horiz-adv-x="483" 
d="M185 316q12 40 18.5 65t6.5 37q0 41 -41 41q-22 0 -48.5 -16.5t-55.5 -50.5q-43 -52 -43 -70q0 -11 10 -11q6 0 15 12t18.5 26.5t20 26.5t20.5 12q11 0 11 -9q0 -3 -1 -10.5t-4 -16.5l-68 -223q-6 -21 -10.5 -41t-4.5 -41q0 -64 57 -64q86 0 219 223l-15 -56
q-12 -44 -16.5 -75.5t-4.5 -46.5q0 -20 9.5 -32.5t25.5 -12.5q20 0 44 18t53 50q25 28 36 47t11 26q0 11 -8 11q-6 0 -15.5 -12.5t-20.5 -27.5t-22 -27.5t-20 -12.5q-10 0 -10 12q0 17 5 32l83 303q3 11 4 18.5t1 9.5q0 5 -5 9.5t-10 4.5h-40q-15 0 -22 -8.5t-13 -27.5
t-15 -50t-28 -77q-23 -55 -50 -98.5t-53 -74t-47 -46.5t-32 -16q-7 0 -11 6t-4 15q0 18 13 60z" />
    <glyph glyph-name="uacute" unicode="&#xfa;" horiz-adv-x="483" 
d="M185 316q12 40 18.5 65t6.5 37q0 41 -41 41q-22 0 -48.5 -16.5t-55.5 -50.5q-43 -52 -43 -70q0 -11 10 -11q6 0 15 12t18.5 26.5t20 26.5t20.5 12q11 0 11 -9q0 -3 -1 -10.5t-4 -16.5l-68 -223q-6 -21 -10.5 -41t-4.5 -41q0 -64 57 -64q86 0 219 223l-15 -56
q-12 -44 -16.5 -75.5t-4.5 -46.5q0 -20 9.5 -32.5t25.5 -12.5q20 0 44 18t53 50q25 28 36 47t11 26q0 11 -8 11q-6 0 -15.5 -12.5t-20.5 -27.5t-22 -27.5t-20 -12.5q-10 0 -10 12q0 17 5 32l83 303q3 11 4 18.5t1 9.5q0 5 -5 9.5t-10 4.5h-40q-15 0 -22 -8.5t-13 -27.5
t-15 -50t-28 -77q-23 -55 -50 -98.5t-53 -74t-47 -46.5t-32 -16q-7 0 -11 6t-4 15q0 18 13 60zM378 610q27 22 27 42q0 14 -7.5 24t-18.5 10q-16 0 -32 -21l-117 -154h28z" />
    <glyph glyph-name="ucircumflex" unicode="&#xfb;" horiz-adv-x="483" 
d="M185 316q12 40 18.5 65t6.5 37q0 41 -41 41q-22 0 -48.5 -16.5t-55.5 -50.5q-43 -52 -43 -70q0 -11 10 -11q6 0 15 12t18.5 26.5t20 26.5t20.5 12q11 0 11 -9q0 -3 -1 -10.5t-4 -16.5l-68 -223q-6 -21 -10.5 -41t-4.5 -41q0 -64 57 -64q86 0 219 223l-15 -56
q-12 -44 -16.5 -75.5t-4.5 -46.5q0 -20 9.5 -32.5t25.5 -12.5q20 0 44 18t53 50q25 28 36 47t11 26q0 11 -8 11q-6 0 -15.5 -12.5t-20.5 -27.5t-22 -27.5t-20 -12.5q-10 0 -10 12q0 17 5 32l83 303q3 11 4 18.5t1 9.5q0 5 -5 9.5t-10 4.5h-40q-15 0 -22 -8.5t-13 -27.5
t-15 -50t-28 -77q-23 -55 -50 -98.5t-53 -74t-47 -46.5t-32 -16q-7 0 -11 6t-4 15q0 18 13 60zM294 682l-120 -171h26l108 102l69 -102h22l-63 171h-42z" />
    <glyph glyph-name="udieresis" unicode="&#xfc;" horiz-adv-x="483" 
d="M185 316q12 40 18.5 65t6.5 37q0 41 -41 41q-22 0 -48.5 -16.5t-55.5 -50.5q-43 -52 -43 -70q0 -11 10 -11q6 0 15 12t18.5 26.5t20 26.5t20.5 12q11 0 11 -9q0 -3 -1 -10.5t-4 -16.5l-68 -223q-6 -21 -10.5 -41t-4.5 -41q0 -64 57 -64q86 0 219 223l-15 -56
q-12 -44 -16.5 -75.5t-4.5 -46.5q0 -20 9.5 -32.5t25.5 -12.5q20 0 44 18t53 50q25 28 36 47t11 26q0 11 -8 11q-6 0 -15.5 -12.5t-20.5 -27.5t-22 -27.5t-20 -12.5q-10 0 -10 12q0 17 5 32l83 303q3 11 4 18.5t1 9.5q0 5 -5 9.5t-10 4.5h-40q-15 0 -22 -8.5t-13 -27.5
t-15 -50t-28 -77q-23 -55 -50 -98.5t-53 -74t-47 -46.5t-32 -16q-7 0 -11 6t-4 15q0 18 13 60zM177 584q0 -20 14 -34.5t34 -14.5t34.5 14t14.5 35q0 19 -14.5 33.5t-34.5 14.5q-19 0 -33.5 -14.5t-14.5 -33.5zM361 584q0 -20 14 -34.5t34 -14.5t34 14t14 35q0 19 -14 33.5
t-34 14.5q-19 0 -33.5 -14.5t-14.5 -33.5z" />
    <glyph glyph-name="ugrave" unicode="&#xf9;" horiz-adv-x="483" 
d="M185 316q12 40 18.5 65t6.5 37q0 41 -41 41q-22 0 -48.5 -16.5t-55.5 -50.5q-43 -52 -43 -70q0 -11 10 -11q6 0 15 12t18.5 26.5t20 26.5t20.5 12q11 0 11 -9q0 -3 -1 -10.5t-4 -16.5l-68 -223q-6 -21 -10.5 -41t-4.5 -41q0 -64 57 -64q86 0 219 223l-15 -56
q-12 -44 -16.5 -75.5t-4.5 -46.5q0 -20 9.5 -32.5t25.5 -12.5q20 0 44 18t53 50q25 28 36 47t11 26q0 11 -8 11q-6 0 -15.5 -12.5t-20.5 -27.5t-22 -27.5t-20 -12.5q-10 0 -10 12q0 17 5 32l83 303q3 11 4 18.5t1 9.5q0 5 -5 9.5t-10 4.5h-40q-15 0 -22 -8.5t-13 -27.5
t-15 -50t-28 -77q-23 -55 -50 -98.5t-53 -74t-47 -46.5t-32 -16q-7 0 -11 6t-4 15q0 18 13 60zM268 659q-15 27 -34 27q-11 0 -18.5 -9.5t-7.5 -26.5q0 -10 6 -19t16 -20l95 -100h26z" />
    <glyph glyph-name="underscore" unicode="_" 
d="M0 -178v-58h500v58h-500z" />
    <glyph glyph-name="v" unicode="v" horiz-adv-x="405" 
d="M193 345q5 17 9 32.5t4 31.5q0 23 -10.5 35.5t-29.5 12.5q-23 0 -48 -16t-46 -37.5t-35 -45t-14 -38.5q0 -7 10 -7q6 0 14.5 13t18.5 28.5t21 28.5t22 13q9 0 9 -11q0 -6 -5 -23l-50 -148q-14 -42 -20 -76.5t-6 -60.5q0 -45 20.5 -69.5t58.5 -24.5q45 0 94.5 39t97.5 117
q21 33 36 67.5t25.5 67t15.5 61t5 49.5q0 33 -11.5 50.5t-31.5 17.5q-14 0 -24.5 -15t-10.5 -41q0 -13 3.5 -24.5t8 -22.5t8.5 -22t4 -22q0 -12 -4.5 -33t-13.5 -46.5t-23.5 -54t-33.5 -55.5q-30 -42 -58.5 -63t-49.5 -21q-37 0 -37 38q0 14 6 34z" />
    <glyph glyph-name="w" unicode="w" horiz-adv-x="626" 
d="M188 345q6 19 10 34.5t4 29.5q0 23 -11.5 35.5t-29.5 12.5q-23 0 -48 -16t-46 -37.5t-34.5 -45t-13.5 -38.5q0 -7 10 -7q6 0 14.5 13t18.5 28.5t21 28.5t22 13q9 0 9 -11q0 -8 -5 -23l-50 -148q-14 -43 -20.5 -78t-6.5 -59q0 -45 18.5 -69.5t52.5 -24.5q48 0 92.5 45.5
t92.5 138.5q-19 -66 -19 -108q0 -38 17.5 -58t48.5 -20q100 0 194 157q20 34 35 68.5t24.5 67t14.5 61t5 49.5q0 32 -10.5 49.5t-27.5 17.5q-16 0 -26 -14.5t-10 -39.5q0 -13 3.5 -25t8 -23t8 -22t3.5 -22q0 -12 -4 -33t-12.5 -46.5t-22 -53.5t-32.5 -56q-29 -42 -56.5 -63
t-47.5 -21q-35 0 -35 44q0 16 4.5 46.5t16.5 74.5l35 128q14 52 22.5 80t8.5 34q0 10 -14 12t-42 2q-14 0 -19 -7t-9 -20l-21 -69q-50 -161 -100.5 -240t-89.5 -79q-28 0 -28 33q0 17 5 36.5t13 44.5z" />
    <glyph glyph-name="x" unicode="x" horiz-adv-x="431" 
d="M246 295q-17 83 -38 123t-59 40q-22 0 -40 -10.5t-31 -28.5t-20.5 -42t-7.5 -52q0 -11 3.5 -16.5t8.5 -5.5q6 0 8 4.5t3 11.5t1 16t3 19q11 40 37 40q30 0 42 -56l31 -135q-48 -86 -81 -128t-50 -42q-7 0 -7 9q0 6 4.5 15t4.5 23q0 20 -10 31t-27 11q-20 0 -37.5 -22
t-17.5 -56q0 -28 15.5 -44.5t39.5 -16.5q22 0 42.5 11.5t41 34.5t43.5 56.5t51 77.5l13 -61q14 -60 30 -89.5t47 -29.5q18 0 34.5 13t29 33t20 44t7.5 45q0 9 -4 14t-6 5q-11 0 -12.5 -12t-4.5 -29q-8 -42 -31 -42q-15 0 -22.5 19.5t-15.5 56.5l-29 125q38 63 59.5 94.5
t33.5 31.5q7 0 7 -14q0 -2 -0.5 -5t-0.5 -6q0 -14 9.5 -23t23.5 -9q20 0 35.5 21t15.5 55q0 26 -12 41t-32 15q-29 0 -63.5 -41.5t-84.5 -119.5z" />
    <glyph glyph-name="y" unicode="y" horiz-adv-x="406" 
d="M193 32q8 59 9.5 110t1.5 96q0 111 -13.5 165t-56.5 54q-23 0 -45.5 -17.5t-40 -41.5t-28.5 -49.5t-11 -41.5q0 -12 8 -12q11 0 15.5 13t14.5 35q13 28 24.5 42t18.5 14q36 0 36 -169q0 -124 -10 -202.5t-22 -110.5q-15 -40 -38.5 -67.5t-41.5 -27.5q-11 0 -18.5 7
t-15.5 16t-17.5 16t-22.5 7q-17 0 -27.5 -11t-10.5 -29q0 -25 17.5 -41t46.5 -16q54 0 118 71t151 208q34 54 63 101t49 89t31.5 80t11.5 74q0 30 -11 45.5t-29 15.5q-17 0 -27.5 -15.5t-10.5 -42.5q0 -19 7 -40.5t7 -50.5q0 -39 -14 -74t-38 -73z" />
    <glyph glyph-name="ydieresis" unicode="&#xff;" horiz-adv-x="406" 
d="M193 32q8 59 9.5 110t1.5 96q0 111 -13.5 165t-56.5 54q-23 0 -45.5 -17.5t-40 -41.5t-28.5 -49.5t-11 -41.5q0 -12 8 -12q11 0 15.5 13t14.5 35q13 28 24.5 42t18.5 14q36 0 36 -169q0 -124 -10 -202.5t-22 -110.5q-15 -40 -38.5 -67.5t-41.5 -27.5q-11 0 -18.5 7
t-15.5 16t-17.5 16t-22.5 7q-17 0 -27.5 -11t-10.5 -29q0 -25 17.5 -41t46.5 -16q54 0 118 71t151 208q34 54 63 101t49 89t31.5 80t11.5 74q0 30 -11 45.5t-29 15.5q-17 0 -27.5 -15.5t-10.5 -42.5q0 -19 7 -40.5t7 -50.5q0 -39 -14 -74t-38 -73zM138 584q0 -20 14 -34.5
t34 -14.5t34.5 14t14.5 35q0 19 -14.5 33.5t-34.5 14.5q-19 0 -33.5 -14.5t-14.5 -33.5zM322 584q0 -20 14 -34.5t34 -14.5t34 14t14 35q0 19 -14 33.5t-34 14.5q-19 0 -33.5 -14.5t-14.5 -33.5z" />
    <glyph glyph-name="yen" unicode="&#xa5;" horiz-adv-x="495" 
d="M264 323q-38 109 -55 171t-17 74q0 11 6 17t21 10q16 4 29 4.5t13 14.5q0 16 -23 16q-13 0 -35 -3t-53 -3q-32 0 -54 3.5t-35 3.5q-6 0 -11 -5t-5 -12q0 -8 4 -11t10.5 -4t14 -2t13.5 -4t12 -11.5t10 -22.5l43 -138h-124l-6 -26h138l24 -76h-180l-6 -27h193q2 -8 2 -13
q0 -7 -3 -19l-42 -179q-6 -24 -16 -33t-25 -13q-16 -4 -28.5 -4.5t-12.5 -16.5t23 -16q9 0 29.5 3t54.5 3q35 0 56.5 -3t29.5 -3q12 0 18 3.5t6 14.5q0 10 -9.5 12.5t-20.5 5t-20.5 8t-9.5 22.5q0 6 1.5 17t5.5 27l45 184h210l6 27h-196l61 76h152l7 26h-136l104 126
q17 20 31 33t28 17t25 4.5t11 13.5q0 14 -17 14q-11 0 -27 -3t-36 -3q-45 0 -69 2.5t-28 2.5q-6 0 -10.5 -4.5t-4.5 -10.5q0 -7 3.5 -9.5t8.5 -3t12 -0.5t15 -2q21 -5 21 -21q0 -14 -23.5 -51.5t-71.5 -95.5z" />
    <glyph glyph-name="z" unicode="z" horiz-adv-x="367" 
d="M327 356q12 13 25.5 23t24.5 18.5t18 17.5t7 21t-6.5 19.5t-16.5 7.5q-28 0 -54 -53q-11 -3 -20 -4t-16 -1q-23 0 -42 8.5t-36 18t-35 18t-39 8.5q-22 0 -41 -10t-33 -27t-22 -40t-8 -48q0 -43 13 -43q9 0 9 13q0 5 -0.5 10.5t-0.5 12.5q0 21 12 35.5t27 14.5
q9 0 20.5 -4.5t25.5 -10.5t31 -10.5t37 -4.5q47 0 93 23q-77 -70 -143.5 -144t-125.5 -153q-81 -6 -81 -56q0 -12 8 -20t19 -8q23 0 67 52h2q16 0 32.5 -9t35 -19.5t39 -19.5t45.5 -9q22 0 44.5 10t40 27t28.5 40.5t11 50.5q0 19 -5.5 30.5t-13.5 11.5q-9 0 -9 -13
q0 -6 2 -13.5t2 -17.5q0 -20 -13 -32.5t-32 -12.5q-11 0 -21.5 5t-21.5 11.5t-23.5 11.5t-27.5 5q-20 0 -45.5 -9.5t-60.5 -23.5q38 37 74 73.5t70 74.5z" />
    <glyph glyph-name="zero" unicode="0" horiz-adv-x="433" 
d="M297 649q-51 0 -101.5 -36t-95.5 -109q-43 -70 -64.5 -148t-21.5 -163q0 -103 36 -159t91 -56q48 0 97.5 36t93.5 105q42 68 64.5 147.5t22.5 167.5q0 49 -10 89t-26.5 68t-38.5 43t-47 15zM338 500q0 -69 -15 -160.5t-46 -182.5q-53 -156 -124 -156q-58 0 -58 121
q0 34 3.5 74.5t11 84t18 89t25.5 88.5q56 167 129 167q26 0 41 -31.5t15 -93.5z" />
    <glyph glyph-name="A" unicode="A" horiz-adv-x="469" 
d="M323 614q-5 26 -14 26q-6 0 -10.5 -5t-9.5 -14l-36 -63q-14 -23 -44 -76.5t-75 -141.5l-122 -240q-12 -24 -23 -39.5t-26 -23.5q-13 -7 -25.5 -9.5t-12.5 -15.5q0 -6 5 -10t11 -4q8 0 27.5 4t51.5 4q36 0 56.5 -3t26.5 -3q7 0 11.5 5t4.5 12q0 12 -10 14.5t-26 5.5
q-37 7 -37 37q0 6 2.5 17t8.5 23l55 114h173l16 -132q1 -8 1.5 -17.5t0.5 -17.5q0 -16 -9 -21.5t-20.5 -8.5t-20.5 -6.5t-9 -14.5q0 -13 20 -13q8 0 28 4.5t55 4.5q41 0 64.5 -4t31.5 -4q16 0 16 13q0 9 -4.5 12.5t-10.5 5t-13 2.5t-12 4q-6 4 -9 13t-5 24zM252 494l27 -228
h-148q26 55 56 112t65 116z" />
    <glyph glyph-name="AE" unicode="&#xc6;" horiz-adv-x="704" 
d="M718 595q5 23 5 24q0 9 -3.5 11.5t-10.5 2.5q-3 0 -22 -2.5t-59 -2.5h-235q-45 0 -65 1.5t-23 1.5q-18 0 -18 -15q0 -9 7.5 -12t16 -5t16 -5.5t7.5 -12.5q0 -11 -12 -29l-289 -430q-22 -33 -39 -52.5t-32 -26.5q-18 -8 -30 -13.5t-12 -19.5q0 -10 21 -10q20 0 38.5 3
t35.5 3q23 0 39 -3.5t26 -3.5q8 0 14 5t6 13q0 9 -9 11.5t-20 4.5t-20 6t-9 16q0 9 8 22l143 228q45 6 84 6h66l-56 -230q-5 -23 -14.5 -33t-26.5 -13t-28.5 -4.5t-11.5 -16.5q0 -16 24 -16q5 0 50 3.5t145 3.5q81 0 121.5 -2t45.5 -2q17 0 21.5 5t8.5 23l20 97q2 6 2 11v7
q0 6 -3.5 10.5t-6.5 4.5q-6 0 -9.5 -6.5t-7.5 -17t-10 -24.5t-18 -28q-18 -23 -45 -34.5t-54 -11.5h-68q-21 0 -30 9t-9 30q0 18 11 68l41 177h81q34 0 45.5 -11t11.5 -39q0 -20 -0.5 -31.5t-0.5 -14.5q0 -16 11 -16t14 16l9 48q14 70 26.5 107t12.5 45t-3 13t-8 5
q-7 0 -10.5 -6t-6.5 -15t-7.5 -20t-14.5 -21q-14 -16 -31.5 -20.5t-43.5 -4.5h-76l57 242q22 2 41.5 3t37.5 1q49 0 66.5 -20t17.5 -68q0 -15 2.5 -22.5t11.5 -7.5q8 0 11.5 5.5t6.5 16.5zM399 554l-47 -206h-131l148 216q9 13 15 20t11 7q7 0 7 -17q0 -7 -3 -20z" />
    <glyph glyph-name="Eth" unicode="&#xd0;" horiz-adv-x="585" 
d="M48 121q-7 -29 -13 -46.5t-29 -28.5q-11 -6 -21 -8.5t-17.5 -5t-11.5 -6.5t-4 -12q0 -10 4 -13t15 -3q4 0 29 3t76 3q43 0 77.5 -2t62.5 -2q73 0 128 23t105 76q54 57 82.5 130t28.5 151q0 118 -58 183.5t-168 65.5q-23 0 -51.5 -2t-63.5 -2q-44 0 -70.5 3t-36.5 3
q-24 0 -24 -14q0 -11 11.5 -13t27.5 -4q12 -2 16.5 -10.5t4.5 -22.5q0 -1 -0.5 -11.5t-5.5 -29.5l-41 -179h-94l-7 -31h94zM132 107l51 209h126l7 31h-126l38 165q7 28 12.5 46t13 27.5t19 13t29.5 3.5q85 0 125 -49t40 -153q0 -41 -7 -82t-19 -78.5t-28 -69.5t-34 -54
q-72 -89 -190 -89q-35 0 -48.5 9.5t-13.5 35.5q0 11 1.5 19t3.5 16z" />
    <glyph glyph-name="Lslash" unicode="&#x141;" horiz-adv-x="396" 
d="M241 549q6 24 15.5 33t28.5 12q17 2 26.5 3t9.5 16q0 17 -23 17q-7 0 -30 -3t-63 -3q-35 0 -55.5 2.5t-26.5 2.5q-11 0 -16.5 -3t-5.5 -14q0 -10 7.5 -13t16 -5t16 -7.5t7.5 -20.5q0 -10 -1.5 -22.5t-4.5 -23.5l-47 -200l-82 -60l-10 -41l83 59l-48 -197
q-6 -24 -15.5 -33.5t-24.5 -12.5q-8 -2 -15.5 -2.5t-13.5 -2t-9.5 -5t-3.5 -11.5q0 -16 24 -16q5 0 44.5 4t121.5 4q54 0 92 -3t62 -3q14 0 21 3.5t11 17.5l26 91q5 22 5 24q0 16 -11 16q-7 0 -11 -6t-8.5 -16.5t-11.5 -23.5t-20 -27q-25 -27 -53 -35t-70 -8q-27 0 -38.5 5
t-11.5 21q0 10 5 32l57 239l121 87l9 42l-120 -86z" />
    <glyph glyph-name="Scaron" unicode="&#x160;" horiz-adv-x="370" 
d="M374 576q2 8 2 13v7q0 10 -10 19.5t-25.5 16.5t-36 11.5t-41.5 4.5q-41 0 -75 -14t-58 -38.5t-37 -59t-13 -76.5q0 -38 14.5 -69.5t37.5 -64.5l45 -65q25 -35 40.5 -63.5t15.5 -61.5q0 -25 -8.5 -47.5t-23 -39.5t-34.5 -27t-44 -10q-36 0 -61.5 20t-31.5 50q-8 44 -9 61
t-14 17q-10 0 -11.5 -8.5t-2.5 -22.5l-5 -86v-5q0 -11 4.5 -17t18.5 -13q26 -13 58 -19t58 -6q39 0 73.5 15t60 41.5t40.5 62.5t15 77q0 29 -5 52t-14 42.5t-21.5 37.5t-27.5 36l-61 77q-17 23 -26.5 43.5t-9.5 43.5q0 46 29 77.5t73 31.5q43 0 60 -24.5t17 -71.5
q0 -15 3 -22.5t12 -7.5q13 0 16 18zM196 873l63 -171h42l120 171h-26l-108 -102l-69 102h-22z" />
    <glyph glyph-name="Thorn" unicode="&#xde;" horiz-adv-x="471" 
d="M230 547q9 43 40 46q20 2 30.5 5t10.5 16q0 16 -24 16q-10 0 -31 -3t-54 -3q-38 0 -60 2.5t-28 2.5q-11 0 -16 -3t-5 -14q0 -10 7 -13t16 -5t16 -7.5t7 -20.5q0 -10 -1.5 -22.5t-3.5 -23.5l-104 -439q-5 -23 -15 -33t-27 -13t-28.5 -4.5t-11.5 -16.5q0 -16 23 -16
q7 0 30 3t63 3q38 0 64 -3t41 -3q26 0 26 18q0 13 -13.5 14t-28.5 4q-20 4 -26.5 10.5t-6.5 20.5q0 11 3 26l14 60q11 -1 20 -1h19q65 0 115 15.5t84 43.5t51.5 68t17.5 88q0 67 -34 102t-99 35q-23 0 -39.5 -2t-27.5 -2q-20 0 -20 13v4zM145 182l61 254q2 9 4.5 15.5
t8.5 10.5t17 6t30 2q37 0 59.5 -27t22.5 -72q0 -39 -13 -73.5t-36.5 -60.5t-56.5 -41t-74 -15h-12q-5 0 -11 1z" />
    <glyph glyph-name="Yacute" unicode="&#xdd;" horiz-adv-x="444" 
d="M238 326q-38 109 -54.5 170t-16.5 72t6 17t21 10q16 4 29 4.5t13 14.5q0 16 -23 16q-8 0 -33.5 -3t-68.5 -3q-35 0 -58.5 3.5t-35.5 3.5q-6 0 -10.5 -5t-4.5 -12q0 -8 4 -11t10.5 -4t14 -2t13.5 -4t12 -11.5t10 -22.5l78 -251q5 -18 5 -28v-10t-2 -10l-43 -179
q-6 -24 -16 -33t-25 -13q-16 -4 -28.5 -4.5t-12.5 -16.5t23 -16q7 0 29.5 3t63.5 3t63.5 -3t27.5 -3q13 0 19 3.5t6 14.5q0 10 -9.5 12.5t-20.5 5t-20.5 8t-9.5 22.5q0 16 7 44l51 188l202 251q17 21 31 33.5t27 16.5q7 2 13.5 3t12 2t8.5 4t3 9q0 14 -18 14q-11 0 -26.5 -3
t-35.5 -3q-46 0 -69.5 2.5t-27.5 2.5q-6 0 -10 -5t-4 -11q0 -8 4.5 -10.5t15.5 -2.5q39 0 39 -22q0 -14 -23.5 -52t-71.5 -96zM404 801q27 22 27 42q0 14 -7.5 24t-18.5 10q-16 0 -32 -21l-117 -154h28z" />
    <glyph glyph-name="Zcaron" unicode="&#x17d;" horiz-adv-x="484" 
d="M240 625q-51 0 -76.5 2t-30.5 2q-10 0 -15.5 -1.5t-8.5 -6t-5.5 -13t-6.5 -21.5l-19 -71q-3 -14 -3 -21q0 -17 10 -17q7 0 11.5 7t9.5 19t13.5 27.5t25.5 32.5q23 23 56.5 29t82.5 6q17 0 40.5 -1t55.5 -6q-25 -38 -47.5 -67.5t-40.5 -52.5l-316 -413q-10 -14 -15 -26
t-5 -20q0 -16 26 -16q5 0 24.5 2.5t55.5 2.5h233q19 0 36.5 -2t32.5 -2q13 0 19.5 6t11.5 28l24 99q2 8 2.5 13.5t0.5 7.5q0 18 -12 18q-8 0 -11.5 -7.5t-8.5 -20.5t-13.5 -30t-25.5 -36q-26 -28 -59.5 -33.5t-79.5 -5.5h-18q-13 0 -37.5 1t-61.5 3q38 60 74.5 107t67.5 88
l248 323q29 37 29 55q0 7 -6.5 11.5t-17.5 4.5q-5 0 -22 -2.5t-49 -2.5h-179zM252 873l63 -171h42l120 171h-26l-108 -102l-69 102h-22z" />
    <glyph glyph-name="brokenbar" unicode="&#xa6;" 
d="M219 699v-370h62v370h-62zM219 199v-370h62v370h-62z" />
    <glyph glyph-name="eth" unicode="&#xf0;" horiz-adv-x="445" 
d="M292 592q-32 44 -51 66.5t-27 22.5q-6 0 -6 -8q0 -9 14 -30.5t34 -63.5l-129 -49q-8 -3 -13 -5.5t-5 -10.5q0 -5 4 -9t8 -4q1 0 4 0.5t8 2.5l133 51q28 -62 43 -135q-33 12 -60 12q-42 0 -83 -20t-73.5 -56t-52.5 -85t-20 -106q0 -41 11 -74.5t31 -57.5t48 -37t62 -13
q42 0 84 20.5t75 58.5t54 91t21 118q0 155 -100 299l111 40q8 3 13.5 5.5t5.5 10.5q0 5 -4.5 9t-8.5 4q-1 0 -11 -3zM321 293q0 -56 -13.5 -108t-35.5 -92t-48.5 -64t-52.5 -24q-31 0 -50.5 30t-19.5 88q0 54 14 105t36 90.5t49 63.5t53 24q32 0 50 -28t18 -85z" />
    <glyph glyph-name="fraction" unicode="&#x2215;" horiz-adv-x="133" 
d="M223 648l-357 -667h44l357 667h-44z" />
    <glyph glyph-name="lslash" unicode="&#x142;" horiz-adv-x="256" 
d="M270 651q8 26 8 34q0 16 -14 16q-5 0 -13.5 -4.5t-21 -9.5t-29 -9.5t-35.5 -4.5q-24 0 -36 -3t-12 -17q0 -10 8 -12t17 -2.5t17 -4t8 -16.5q0 -5 -1 -15.5t-5 -24.5l-67 -238l-80 -58l-11 -37l80 56l-43 -157q-9 -32 -15.5 -60.5t-6.5 -54.5q0 -23 9.5 -34.5t26.5 -11.5
t42.5 12t52.5 41q29 31 43.5 52.5t14.5 29.5q0 12 -9 12q-7 0 -17 -11.5t-21 -26t-22 -26t-20 -11.5q-14 0 -14 15q0 6 3.5 24.5t12.5 47.5l64 217l81 59l10 38l-79 -57z" />
    <glyph glyph-name="minus" unicode="&#x2212;" horiz-adv-x="833" 
d="M124 327v-58h585v58h-585z" />
    <glyph glyph-name="multiply" unicode="&#xd7;" horiz-adv-x="833" 
d="M186 571l-39 -40l232 -233l-232 -232l39 -40l233 232l232 -232l40 40l-232 232l232 233l-40 40l-232 -233z" />
    <glyph glyph-name="onehalf" unicode="&#xbd;" horiz-adv-x="679" 
d="M223 615q3 12 3 14q0 7 -7 7q-5 0 -23.5 -10t-54.5 -23q-29 -11 -43 -15t-14 -12t10 -8q6 0 13.5 3t15.5 7t16.5 7t15.5 3q4 0 4 -3q0 -7 -4 -17l-68 -234q-6 -20 -11 -27.5t-19 -10.5t-28 -3q-13 0 -13 -10q0 -9 14 -9q8 0 26 1.5t48 1.5t50 -2t29 -2q12 0 12 9t-11 9.5
t-31 1.5q-17 2 -17 15q0 6 3 14zM496 648l-357 -667h44l357 667h-44zM441 57q33 34 74 59t81 52q35 24 52 49t17 57q0 39 -25.5 63.5t-69.5 24.5q-56 0 -94 -41q-14 -14 -19 -26.5t-5 -16.5q0 -7 6 -7q5 0 8.5 8t14.5 23q30 39 69 39q23 0 38.5 -17.5t15.5 -47.5
q0 -26 -11 -47t-30.5 -42t-46.5 -43.5t-58 -50.5q-77 -69 -77 -85q0 -8 12 -8q3 0 22.5 1t61.5 1q50 0 77.5 -1.5t33.5 -1.5q8 0 10.5 2t5.5 12l17 56q4 10 4 12q0 7 -7 7q-5 0 -8 -7.5t-10 -13.5q-7 -7 -16.5 -8.5t-21.5 -1.5h-121z" />
    <glyph glyph-name="onequarter" unicode="&#xbc;" horiz-adv-x="679" 
d="M223 615q3 12 3 14q0 7 -7 7q-5 0 -23.5 -10t-54.5 -23q-29 -11 -43 -15t-14 -12t10 -8q6 0 13.5 3t15.5 7t16.5 7t15.5 3q4 0 4 -3q0 -7 -4 -17l-68 -234q-6 -20 -11 -27.5t-19 -10.5t-28 -3q-13 0 -13 -10q0 -9 14 -9q8 0 26 1.5t48 1.5t50 -2t29 -2q12 0 12 9t-11 9.5
t-31 1.5q-17 2 -17 15q0 6 3 14zM496 648l-357 -667h44l357 667h-44zM660 379q-7 0 -9.5 -2t-5.5 -5l-233 -233q-4 -4 -6 -7.5t-2 -9.5q0 -12 17 -12h122q10 0 10 -2q0 1 -2 -9l-13 -45q-5 -15 -9.5 -23.5t-15.5 -10.5q-17 -3 -27 -3q-9 0 -9 -9t10 -9q4 0 20.5 2t47.5 2
q28 0 42.5 -2t17.5 -2q13 0 13 8q0 6 -6 7.5t-13 3t-13 4.5t-6 12q0 3 0.5 5.5t1.5 5.5l15 55q2 5 2.5 7.5t8.5 2.5h28q5 0 5.5 1.5t2.5 4.5l2 8v1q1 0 1 2q0 4 -6 4h-25q-9 0 -9 3q0 1 0.5 2.5t1.5 5.5l35 120q1 3 1 7q0 5 -5 5q-4 0 -7 -1l-36 -10q-11 -4 -14 -14
l-29 -103q-3 -11 -4 -13t-12 -2h-120q58 60 104.5 104t79.5 73.5t51 45.5t18 20q0 5 -11 5h-10z" />
    <glyph glyph-name="onesuperior" unicode="&#xb9;" horiz-adv-x="286" 
d="M234 615q3 10 3 15q0 6 -7 6q-5 0 -24.5 -10.5t-57.5 -24.5q-30 -11 -44.5 -15.5t-14.5 -12.5q0 -9 9 -9q6 0 14 3.5t17 7t17.5 7t15.5 3.5q4 0 4 -3q0 -5 -1 -9t-3 -9l-71 -251q-6 -20 -11 -29t-20 -12q-7 -2 -15 -2q-7 0 -13.5 -1t-10.5 -3t-4 -8q0 -9 15 -9
q8 0 26.5 1.5t50.5 1.5t52.5 -2t30.5 -2q12 0 12 10t-12 10q-11 0 -32 2q-17 0 -17 16v6q0 4 2 9z" />
    <glyph glyph-name="scaron" unicode="&#x161;" horiz-adv-x="320" 
d="M165 295q-20 26 -30 45.5t-10 33.5q0 18 12 29.5t30 11.5q17 0 32 -12.5t28.5 -27.5t26.5 -27.5t26 -12.5q29 0 29 58q0 31 -30 47.5t-73 16.5q-29 0 -56 -13t-48 -34t-34 -46.5t-13 -50.5q0 -40 35 -86l55 -73q15 -20 25 -38t10 -42q0 -26 -12.5 -42t-29.5 -16
q-18 0 -34.5 14.5t-34.5 43.5q-14 23 -23 39.5t-24 16.5q-27 0 -27 -74q0 -32 30.5 -52.5t76.5 -20.5q30 0 58.5 11.5t50.5 30.5t35.5 44.5t13.5 54.5q0 32 -14 57t-34 52zM124 682l63 -171h42l120 171h-26l-108 -102l-69 102h-22z" />
    <glyph glyph-name="thorn" unicode="&#xfe;" horiz-adv-x="437" 
d="M238 651q2 7 5 15t3 19q0 16 -14 16q-5 0 -10.5 -3.5t-15 -8.5t-23.5 -9.5t-36 -6.5q-21 -2 -35.5 -2.5t-14.5 -17.5q0 -10 8 -12t17 -3t17 -4.5t8 -16.5q0 -12 -6 -39l-163 -662q-10 -39 -16.5 -60.5t-28.5 -33.5q-8 -5 -18 -7.5t-18.5 -5.5t-14 -7t-5.5 -10
q0 -14 15 -14q11 0 39.5 5.5t74.5 5.5q36 0 59 -4t34 -4q6 0 10.5 4.5t4.5 9.5q0 6 -3.5 9t-9 4t-13 2t-14.5 3q-13 4 -20.5 13.5t-7.5 20.5t1 24t5 28l28 114q21 -16 42.5 -23.5t41.5 -7.5q91 0 164 97q39 52 59 109.5t20 113.5q0 76 -36 117t-102 41q-20 0 -40 -3.5
t-41 -9.5zM107 123l74 291q14 3 27 5t25 2q47 0 71.5 -26t24.5 -76q0 -34 -14 -90t-43 -115q-51 -105 -115 -105q-26 0 -41.5 16.5t-15.5 47.5q0 23 7 50z" />
    <glyph glyph-name="threequarters" unicode="&#xbe;" horiz-adv-x="679" 
d="M105 468q73 29 108.5 51t35.5 57q0 30 -23 47.5t-65 17.5q-21 0 -39 -7.5t-31.5 -18t-21 -20.5t-7.5 -16t6 -6t9 6t14 17q14 13 26.5 19.5t29.5 6.5q19 0 30 -12t11 -35q0 -59 -91 -97q-27 -12 -43.5 -17t-16.5 -14q0 -6 6 -6q5 0 19.5 7.5t33.5 7.5q29 0 48 -21.5
t19 -62.5q0 -30 -11 -55.5t-27.5 -44t-36 -29t-36.5 -10.5q-12 0 -19 7t-14 16t-14.5 16t-20.5 7q-11 0 -17.5 -6.5t-6.5 -17.5q0 -38 73 -38q34 0 71.5 14t66.5 39q28 23 42 52.5t14 59.5q0 41 -28 64t-80 23q-3 0 -6.5 -0.5t-7.5 -0.5zM496 648l-357 -667h44l357 667h-44z
M660 379q-7 0 -9.5 -2t-5.5 -5l-233 -233q-4 -4 -6 -7.5t-2 -9.5q0 -12 17 -12h122q10 0 10 -2q0 1 -2 -9l-13 -45q-5 -15 -9.5 -23.5t-15.5 -10.5q-17 -3 -27 -3q-9 0 -9 -9t10 -9q4 0 20.5 2t47.5 2q28 0 42.5 -2t17.5 -2q13 0 13 8q0 6 -6 7.5t-13 3t-13 4.5t-6 12
q0 3 0.5 5.5t1.5 5.5l15 55q2 5 2.5 7.5t8.5 2.5h28q5 0 5.5 1.5t2.5 4.5l2 8v1q1 0 1 2q0 4 -6 4h-25q-9 0 -9 3q0 1 0.5 2.5t1.5 5.5l35 120q1 3 1 7q0 5 -5 5q-4 0 -7 -1l-36 -10q-11 -4 -14 -14l-29 -103q-3 -11 -4 -13t-12 -2h-120q58 60 104.5 104t79.5 73.5t51 45.5
t18 20q0 5 -11 5h-10z" />
    <glyph glyph-name="threesuperior" unicode="&#xb3;" horiz-adv-x="286" 
d="M110 457q38 15 66.5 28t47 26.5t28 28t9.5 33.5q0 32 -23.5 50.5t-68.5 18.5q-22 0 -41 -8t-33 -19t-22 -22t-8 -17q0 -7 6 -7q7 0 10.5 7t14.5 18q14 14 27.5 21t30.5 7q20 0 31.5 -13t11.5 -38q0 -62 -95 -104q-29 -12 -46 -17.5t-17 -15.5q0 -7 7 -7q4 0 19.5 8.5
t35.5 8.5q31 0 50.5 -23t19.5 -67q0 -33 -11.5 -60t-28.5 -47t-37.5 -31t-38.5 -11q-12 0 -20 7.5t-15 17t-15.5 17t-21.5 7.5q-11 0 -18 -7.5t-7 -18.5q0 -40 77 -40q35 0 74.5 15.5t70.5 41.5q29 25 43.5 56t14.5 63q0 45 -29.5 69t-83.5 24h-15z" />
    <glyph glyph-name="twosuperior" unicode="&#xb2;" horiz-adv-x="286" 
d="M37 312q35 37 77.5 63.5t84.5 55.5q36 26 54 52.5t18 61.5q0 42 -26.5 68t-72.5 26q-59 0 -99 -44q-14 -16 -19.5 -29t-5.5 -17q0 -8 6 -8t9.5 8.5t15.5 24.5q30 42 72 42q24 0 40 -19t16 -51q0 -27 -11.5 -49.5t-31.5 -45t-48 -46.5t-61 -54q-81 -75 -81 -91q0 -9 12 -9
q3 0 24 1t65 1q51 0 80 -1.5t36 -1.5q8 0 10.5 2t5.5 13l19 60q3 9 3 13q0 7 -7 7q-5 0 -8 -8t-11 -15t-17.5 -8.5t-21.5 -1.5h-127z" />
    <glyph glyph-name="yacute" unicode="&#xfd;" horiz-adv-x="406" 
d="M193 32q8 59 9.5 110t1.5 96q0 111 -13.5 165t-56.5 54q-23 0 -45.5 -17.5t-40 -41.5t-28.5 -49.5t-11 -41.5q0 -12 8 -12q11 0 15.5 13t14.5 35q13 28 24.5 42t18.5 14q36 0 36 -169q0 -124 -10 -202.5t-22 -110.5q-15 -40 -38.5 -67.5t-41.5 -27.5q-11 0 -18.5 7
t-15.5 16t-17.5 16t-22.5 7q-17 0 -27.5 -11t-10.5 -29q0 -25 17.5 -41t46.5 -16q54 0 118 71t151 208q34 54 63 101t49 89t31.5 80t11.5 74q0 30 -11 45.5t-29 15.5q-17 0 -27.5 -15.5t-10.5 -42.5q0 -19 7 -40.5t7 -50.5q0 -39 -14 -74t-38 -73zM339 610q27 22 27 42
q0 14 -7.5 24t-18.5 10q-16 0 -32 -21l-117 -154h28z" />
    <glyph glyph-name="zcaron" unicode="&#x17e;" horiz-adv-x="367" 
d="M327 356q12 13 25.5 23t24.5 18.5t18 17.5t7 21t-6.5 19.5t-16.5 7.5q-28 0 -54 -53q-11 -3 -20 -4t-16 -1q-23 0 -42 8.5t-36 18t-35 18t-39 8.5q-22 0 -41 -10t-33 -27t-22 -40t-8 -48q0 -43 13 -43q9 0 9 13q0 5 -0.5 10.5t-0.5 12.5q0 21 12 35.5t27 14.5
q9 0 20.5 -4.5t25.5 -10.5t31 -10.5t37 -4.5q47 0 93 23q-77 -70 -143.5 -144t-125.5 -153q-81 -6 -81 -56q0 -12 8 -20t19 -8q23 0 67 52h2q16 0 32.5 -9t35 -19.5t39 -19.5t45.5 -9q22 0 44.5 10t40 27t28.5 40.5t11 50.5q0 19 -5.5 30.5t-13.5 11.5q-9 0 -9 -13
q0 -6 2 -13.5t2 -17.5q0 -20 -13 -32.5t-32 -12.5q-11 0 -21.5 5t-21.5 11.5t-23.5 11.5t-27.5 5q-20 0 -45.5 -9.5t-60.5 -23.5q38 37 74 73.5t70 74.5zM148 682l63 -171h42l120 171h-26l-108 -102l-69 102h-22z" />
    </font>
</defs>
</svg>
