<?xml version="1.0" encoding="UTF-8"?>
<svg width="53px" height="38px" viewBox="0 0 53 38" version="1.1" xmlns="http://www.w3.org/2000/svg" xmlns:xlink="http://www.w3.org/1999/xlink">
    <title>Group 15 Copy</title>
    <g id="Moodboard" stroke="none" stroke-width="1" fill="none" fill-rule="evenodd">
        <g id="Group-15-Copy" fill="#FFFFFF" fill-rule="nonzero">
            <g id="Group-14">
                <path d="M26.4999445,0 C25.4178382,0 0,0.0595859082 0,5.26804345 L0,33.3642382 C0,34.1411181 0,36.5046904 12.2656886,37.8992651 C12.5157067,37.9274867 12.7665022,37.848701 12.9542127,37.6821116 C13.1423168,37.5151299 13.2495785,37.276814 13.2495785,37.0263464 L13.2495785,30.4922753 C17.6524055,30.0532723 22.0746153,29.8396509 26.4995508,29.8521938 C30.8464502,29.8521938 35.0978489,30.0434687 38.8661915,30.403692 L38.8661915,37.1219939 C38.8661915,37.3548211 38.9592573,37.578246 39.1248815,37.7428696 C39.2905056,37.9074933 39.5152837,38 39.749523,38 C39.7802821,38 39.8106465,38 39.8378561,37.9956883 C48.5722378,37.0894656 53,35.53105 53,33.3642313 L53,5.26803652 C53,0.0596040704 27.5822628,0 26.5000555,0 L26.4999445,0 Z M11.4833093,36.0353836 C3.97499167,35.0942715 1.89487222,33.7545747 1.76666297,33.3637365 L1.76666297,7.42894186 C3.29669405,8.21914734 6.15252997,9.05751772 11.4833093,9.71175768 L11.4833093,36.0353836 Z M40.6332482,36.14239 L40.6332482,9.81424859 C45.7478889,9.24276195 49.2898967,8.43291924 51.233226,7.3969724 L51.233226,33.3418014 C51.0963853,33.7823698 48.831271,35.2075894 40.6332482,36.1427914 L40.6332482,36.14239 Z M39.6615836,8.15255935 C39.2104485,8.19763568 38.8669789,8.57470468 38.8665852,9.02507665 L38.8665852,28.6392309 C35.0852198,28.2880285 30.8369506,28.0955695 26.4999445,28.0955695 C22.0754128,28.0838103 17.653203,28.2939086 13.2499722,28.7258475 L13.2499722,8.92906794 C13.2503666,8.4826194 12.9135996,8.10711376 12.4671992,8.0561593 C4.20729271,7.11778653 1.9267832,5.69106176 1.76626925,5.29590885 L1.76626925,5.28101385 C2.20162548,4.01146722 10.8089589,1.75484106 26.4995508,1.75484106 C42.2228512,1.75484106 50.8330617,4.02079917 51.2328323,5.24489018 C51.0904695,5.70584839 48.6525958,7.21764442 39.6616946,8.15214393 L39.6615836,8.15255935 Z" id="Shape"></path>
                <path d="M33.9406185,13.5536646 C31.9694596,11.5248256 29.3013798,10.2823075 26.4505947,10.065817 C26.1720663,10.0244899 25.8911979,10.0022962 25.6095495,10 C25.3634522,10.0019133 25.1177348,10.0183674 24.8735875,10.0497448 C21.9680007,10.1997404 19.2269188,11.4165735 17.1963581,13.4576574 L15.2502,15.3999981 C14.9166,15.7332857 14.9166,16.2667143 15.2502,16.6000019 L17.1963581,18.5431263 C19.2261188,20.5834265 21.9660007,21.7998874 24.8699874,21.9502552 C25.1153048,21.9820156 25.3621921,21.9984699 25.6094595,22 C25.8914979,21.9977041 26.1731464,21.9758931 26.4520647,21.934949 C29.3021499,21.7175965 31.9698296,20.4755486 33.9405885,18.4471015 L35.7562427,16.5939039 C36.0812524,16.2621445 36.0812524,15.7386686 35.7562427,15.4069288 L33.9406185,13.5536646 Z M29.8884974,16.0000069 C29.8951382,17.0472917 29.506066,18.0601928 28.7958647,18.8434769 C28.0860735,19.6263887 27.1052142,20.1245911 26.0426825,20.2420445 C25.8868178,20.2504629 25.7336932,20.2669174 25.5770486,20.2676825 L25.5184528,20.2676825 C25.4598571,20.2676825 25.4020393,20.2600294 25.3434476,20.259264 L25.3434476,20.2588814 C23.8743037,20.1444647 22.5636645,19.3106629 21.8589435,18.042548 C21.1546224,16.7744624 21.1515023,15.2434536 21.8511307,13.973017 C22.5507616,12.7021886 23.8581907,11.8634594 25.3270346,11.7432631 C25.4145372,11.7432631 25.4934496,11.7321663 25.5774321,11.7321663 C25.7305566,11.7321663 25.8821312,11.7501507 26.0340857,11.7578042 C27.0982175,11.872603 28.0814469,12.370051 28.7931682,13.1533351 C29.5052994,13.937011 29.8952011,14.9510876 29.8885858,15.9999399 L29.8884974,16.0000069 Z M17.1001153,16.0000069 L18.4450554,14.6595292 C18.9942919,14.1150116 19.6063901,13.634775 20.2685099,13.2288309 C19.3520725,14.9683955 19.3520725,17.0350468 20.2685099,18.7746114 C19.6067702,18.3678542 18.9950719,17.8876176 18.4457555,17.3431294 L17.1001153,16.0000069 Z M32.6745806,17.2574148 C32.1749557,17.7655797 31.6214492,18.2201705 31.0233313,18.613566 C31.8378056,16.962067 31.8378056,15.0364773 31.0233313,13.3849783 C31.6213992,13.7779624 32.1749657,14.2321712 32.6745806,14.739954 L33.9082175,16.0000069 L32.6745806,17.2574148 Z" id="Shape"></path>
            </g>
        </g>
    </g>
</svg>