<?xml version="1.0" encoding="UTF-8"?>
<svg width="60px" height="65px" viewBox="0 0 60 65" version="1.1" xmlns="http://www.w3.org/2000/svg" xmlns:xlink="http://www.w3.org/1999/xlink">
    <title>nav-menu-01</title>
    <defs>
        <polygon id="path-1" points="0 0 59.9998 0 59.9998 15.1869 0 15.1869"></polygon>
    </defs>
    <g id="Moodboard" stroke="none" stroke-width="1" fill="none" fill-rule="evenodd">
        <g id="Artboard" transform="translate(-79, -118)">
            <g id="nav-menu-01" transform="translate(79, 118)">
                <path d="M10.2498,41.405 C10.2838,41.468 10.3268,41.53 10.3638,41.593 C10.3938,41.645 10.4248,41.696 10.4568,41.748 C10.5898,41.956 10.7368,42.163 10.9068,42.366 C10.9198,42.381 10.9348,42.396 10.9478,42.411 C11.1098,42.601 11.2918,42.787 11.4858,42.971 C11.5358,43.02 11.5868,43.068 11.6398,43.115 C11.8568,43.311 12.0868,43.505 12.3398,43.694 C12.3488,43.701 12.3598,43.708 12.3688,43.714 C12.6138,43.897 12.8818,44.074 13.1608,44.25 C13.2328,44.295 13.3058,44.34 13.3808,44.385 C13.6778,44.565 13.9868,44.742 14.3198,44.913 C16.8108,46.197 20.1118,47.15 23.8678,47.672 C26.0058,47.969 28.2368,48.12 30.4998,48.12 C32.7638,48.12 34.9958,47.969 37.1338,47.672 C40.8898,47.15 44.1908,46.197 46.6818,44.913 C47.0148,44.742 47.3238,44.564 47.6228,44.384 C47.6958,44.34 47.7678,44.296 47.8388,44.251 C48.1188,44.075 48.3878,43.896 48.6338,43.713 C48.6428,43.707 48.6518,43.701 48.6598,43.695 C48.9138,43.506 49.1428,43.312 49.3608,43.116 C49.4128,43.068 49.4638,43.02 49.5148,42.972 C49.7078,42.788 49.8888,42.603 50.0498,42.413 C50.0638,42.397 50.0798,42.382 50.0938,42.366 C50.2628,42.163 50.4088,41.957 50.5418,41.75 C50.5748,41.697 50.6058,41.645 50.6368,41.592 C50.6738,41.53 50.7168,41.468 50.7498,41.405 L50.7498,49.901 C50.7498,53.364 45.2508,56.457 37.0648,57.595 C32.8538,58.181 28.1498,58.181 23.9368,57.595 C15.7498,56.457 10.2498,53.364 10.2498,49.901 L10.2498,41.405 Z M10.2498,30.987 C10.2828,31.049 10.3258,31.111 10.3628,31.173 C10.3938,31.226 10.4248,31.279 10.4588,31.331 C10.5908,31.539 10.7368,31.744 10.9058,31.946 C10.9208,31.964 10.9378,31.981 10.9528,31.998 C11.1128,32.185 11.2918,32.369 11.4828,32.551 C11.5358,32.6 11.5878,32.65 11.6428,32.699 C11.8588,32.894 12.0858,33.087 12.3378,33.275 C12.3508,33.285 12.3648,33.294 12.3778,33.303 C12.6198,33.482 12.8828,33.658 13.1578,33.83 C13.2318,33.877 13.3068,33.923 13.3828,33.969 C13.6798,34.149 13.9878,34.326 14.3198,34.497 C16.8118,35.78 20.1138,36.734 23.8678,37.255 C25.9938,37.551 28.2258,37.701 30.4998,37.701 C32.7748,37.701 35.0078,37.551 37.1338,37.255 C40.8878,36.734 44.1888,35.78 46.6818,34.497 C47.0138,34.325 47.3218,34.148 47.6198,33.969 C47.6948,33.923 47.7688,33.878 47.8418,33.832 C48.1178,33.658 48.3838,33.481 48.6268,33.3 C48.6378,33.292 48.6508,33.284 48.6618,33.276 C48.9138,33.088 49.1418,32.895 49.3578,32.699 C49.4118,32.65 49.4648,32.601 49.5168,32.552 C49.7088,32.368 49.8898,32.183 50.0508,31.995 C50.0638,31.979 50.0798,31.963 50.0938,31.948 C50.2628,31.745 50.4098,31.538 50.5418,31.33 C50.5748,31.279 50.6058,31.227 50.6358,31.176 C50.6728,31.113 50.7158,31.051 50.7498,30.988 L50.7498,39.482 C50.7498,41.271 49.2238,43.042 46.4528,44.469 C44.0118,45.726 40.7658,46.663 37.0648,47.176 C32.8348,47.764 28.1708,47.765 23.9368,47.176 C20.2358,46.663 16.9898,45.726 14.5488,44.469 C11.7758,43.041 10.2498,41.27 10.2498,39.482 L10.2498,30.987 Z M10.2498,20.57 C10.2828,20.633 10.3258,20.694 10.3628,20.757 C10.3938,20.809 10.4248,20.862 10.4578,20.914 C10.5908,21.122 10.7368,21.327 10.9058,21.529 C10.9208,21.547 10.9378,21.564 10.9538,21.581 C11.1138,21.768 11.2918,21.952 11.4828,22.134 C11.5358,22.183 11.5878,22.233 11.6428,22.282 C11.8588,22.477 12.0868,22.67 12.3388,22.858 C12.3508,22.867 12.3638,22.875 12.3758,22.884 C12.6188,23.064 12.8828,23.24 13.1588,23.413 C13.2318,23.459 13.3058,23.505 13.3818,23.55 C13.6788,23.73 13.9878,23.907 14.3198,24.078 C16.8038,25.359 20.1048,26.314 23.8678,26.838 C25.9968,27.134 28.2288,27.284 30.4998,27.284 C32.7728,27.284 35.0048,27.134 37.1338,26.838 C40.8958,26.314 44.1978,25.359 46.6818,24.078 C47.0148,23.906 47.3238,23.729 47.6218,23.549 C47.6958,23.505 47.7678,23.46 47.8398,23.415 C48.1188,23.239 48.3858,23.062 48.6318,22.879 C48.6408,22.873 48.6518,22.866 48.6608,22.859 C48.9138,22.67 49.1428,22.477 49.3598,22.281 C49.4128,22.233 49.4638,22.184 49.5148,22.136 C49.7088,21.951 49.8918,21.765 50.0538,21.575 C50.0658,21.56 50.0808,21.546 50.0928,21.532 C50.2628,21.328 50.4098,21.121 50.5428,20.913 C50.5748,20.862 50.6048,20.811 50.6358,20.76 C50.6728,20.697 50.7158,20.634 50.7498,20.571 L50.7498,29.065 C50.7498,29.288 50.7258,29.512 50.6788,29.734 C50.3488,31.289 48.8768,32.801 46.4528,34.052 C44.0108,35.31 40.7648,36.246 37.0648,36.76 C32.8578,37.344 28.1468,37.345 23.9368,36.76 C20.2368,36.246 16.9908,35.31 14.5488,34.052 C11.7758,32.622 10.2498,30.851 10.2498,29.065 L10.2498,20.57 Z M15.2728,13.314 C15.4108,13.251 15.5488,13.188 15.6898,13.126 C15.8738,13.047 16.0618,12.969 16.2518,12.893 C16.3948,12.836 16.5368,12.778 16.6828,12.723 C16.8848,12.647 17.0918,12.574 17.3008,12.501 C17.4458,12.45 17.5898,12.398 17.7388,12.349 C17.9618,12.276 18.1928,12.206 18.4248,12.136 C18.5668,12.093 18.7058,12.048 18.8508,12.007 C19.1248,11.929 19.4058,11.856 19.6878,11.783 C19.7978,11.755 19.9048,11.724 20.0168,11.697 C20.4128,11.6 20.8168,11.508 21.2288,11.422 C21.3358,11.399 21.4478,11.38 21.5568,11.358 C21.8648,11.297 22.1738,11.236 22.4888,11.181 C22.6568,11.152 22.8288,11.127 22.9988,11.099 C23.2148,11.064 23.4318,11.03 23.6518,10.998 L23.6518,15.88 C23.4338,15.848 23.2188,15.814 23.0038,15.779 C22.8318,15.751 22.6568,15.726 22.4868,15.696 C22.1888,15.644 21.8968,15.586 21.6058,15.528 C21.4788,15.503 21.3488,15.481 21.2228,15.455 C20.8138,15.369 20.4138,15.278 20.0208,15.181 C19.8918,15.15 19.7678,15.114 19.6408,15.082 C19.3768,15.013 19.1128,14.945 18.8568,14.872 C18.7008,14.828 18.5508,14.78 18.3968,14.733 C18.1778,14.667 17.9578,14.6 17.7448,14.53 C17.5868,14.478 17.4348,14.424 17.2808,14.37 C17.0818,14.3 16.8828,14.23 16.6898,14.157 C16.5378,14.099 16.3898,14.04 16.2408,13.98 C16.0558,13.906 15.8728,13.83 15.6948,13.753 C15.5508,13.69 15.4088,13.626 15.2698,13.562 C15.1818,13.522 15.0978,13.48 15.0128,13.439 C15.0998,13.397 15.1848,13.355 15.2728,13.314 L15.2728,13.314 Z M37.3498,10.998 C37.5698,11.03 37.7868,11.064 38.0028,11.099 C38.1728,11.127 38.3448,11.152 38.5118,11.181 C38.8288,11.236 39.1388,11.297 39.4478,11.359 C39.5548,11.381 39.6668,11.399 39.7728,11.422 C40.1848,11.508 40.5888,11.6 40.9848,11.697 C41.0968,11.724 41.2038,11.755 41.3138,11.783 C41.5958,11.856 41.8768,11.929 42.1498,12.007 C42.2958,12.048 42.4348,12.093 42.5768,12.136 C42.8088,12.206 43.0398,12.276 43.2628,12.349 C43.4118,12.398 43.5548,12.45 43.6998,12.501 C43.9088,12.574 44.1168,12.647 44.3198,12.723 C44.4648,12.779 44.6068,12.836 44.7488,12.893 C44.9388,12.969 45.1278,13.047 45.3108,13.126 C45.4528,13.188 45.5908,13.251 45.7278,13.314 C45.8168,13.355 45.9018,13.397 45.9888,13.439 C45.9038,13.48 45.8198,13.522 45.7318,13.562 C45.5918,13.626 45.4508,13.69 45.3068,13.753 C45.1288,13.83 44.9448,13.906 44.7598,13.98 C44.6118,14.04 44.4638,14.099 44.3118,14.157 C44.1188,14.23 43.9188,14.3 43.7198,14.37 C43.5658,14.424 43.4148,14.478 43.2568,14.53 C43.0438,14.6 42.8238,14.667 42.6038,14.733 C42.4508,14.78 42.3008,14.828 42.1448,14.872 C41.8888,14.945 41.6248,15.013 41.3608,15.082 C41.2338,15.114 41.1098,15.15 40.9808,15.181 C40.5878,15.278 40.1868,15.369 39.7778,15.455 C39.6538,15.481 39.5238,15.503 39.3978,15.528 C39.1058,15.586 38.8138,15.644 38.5148,15.696 C38.3438,15.726 38.1698,15.751 37.9978,15.779 C37.7828,15.814 37.5678,15.848 37.3498,15.88 L37.3498,10.998 Z M23.8678,58.091 C25.9968,58.387 28.2288,58.537 30.4998,58.537 C32.7728,58.537 35.0048,58.387 37.1338,58.091 C45.5768,56.916 51.2498,53.625 51.2498,49.901 L51.2498,39.482 L51.2498,29.065 L51.2498,18.648 L51.2498,8.229 C51.2498,4.505 45.5768,1.214 37.1338,0.039 L36.8498,0 L36.8498,10.419 L36.8498,10.924 L36.8498,15.946 C32.7618,16.493 28.2408,16.494 24.1518,15.946 L24.1518,10.924 L24.1518,10.419 L24.1518,0 L23.8678,0.039 C15.4238,1.214 9.7498,4.505 9.7498,8.229 L9.7498,18.648 L9.7498,29.065 L9.7498,39.482 L9.7498,49.901 C9.7498,53.625 15.4238,56.916 23.8678,58.091 L23.8678,58.091 Z" id="Fill-1" fill="#000000"></path>
                <g id="Group-5" transform="translate(0, 49.2869)">
                    <mask id="mask-2" fill="white">
                        <use xlink:href="#path-1"></use>
                    </mask>
                    <g id="Clip-4"></g>
                    <path d="M59.46,1.995 L58.92,0 L57.463,1.465 L56.005,2.931 L57.788,3.404 C56.355,8.295 49.2,12.472 39.063,14.106 C36.155,14.575 33.104,14.813 29.994,14.813 C26.886,14.813 23.836,14.575 20.929,14.106 C10.792,12.472 3.637,8.296 2.201,3.406 L3.994,2.931 L2.537,1.465 L1.079,0 L0.539,1.995 L0,3.99 L1.842,3.502 C3.324,8.537 10.589,12.818 20.87,14.475 C23.796,14.948 26.866,15.187 29.994,15.187 C33.124,15.187 36.195,14.948 39.122,14.475 C49.403,12.817 56.667,8.536 58.148,3.499 L60,3.99 L59.46,1.995 Z" id="Fill-3" fill="#000000" mask="url(#mask-2)"></path>
                </g>
            </g>
        </g>
    </g>
</svg>