<?xml version="1.0" encoding="UTF-8"?>
<svg width="60px" height="65px" viewBox="0 0 60 65" version="1.1" xmlns="http://www.w3.org/2000/svg" xmlns:xlink="http://www.w3.org/1999/xlink">
    <title>nav-menu-03</title>
    <defs>
        <polygon id="path-1" points="0 0 59.9998 0 59.9998 15.1869 0 15.1869"></polygon>
    </defs>
    <g id="Moodboard" stroke="none" stroke-width="1" fill="none" fill-rule="evenodd">
        <g id="Artboard" transform="translate(-357, -118)">
            <g id="nav-menu-03" transform="translate(357, 118)">
                <path d="M10.2498,41.405 C10.2838,41.468 10.3268,41.53 10.3638,41.593 C10.3938,41.645 10.4248,41.696 10.4568,41.748 C10.5898,41.956 10.7368,42.163 10.9068,42.366 C10.9198,42.381 10.9348,42.396 10.9478,42.411 C11.1098,42.601 11.2918,42.787 11.4858,42.971 C11.5358,43.02 11.5868,43.068 11.6398,43.115 C11.8568,43.311 12.0868,43.505 12.3398,43.694 C12.3488,43.701 12.3598,43.708 12.3688,43.714 C12.6138,43.897 12.8818,44.074 13.1608,44.25 C13.2328,44.295 13.3058,44.34 13.3808,44.385 C13.6778,44.565 13.9868,44.742 14.3198,44.913 C16.8108,46.197 20.1118,47.15 23.8678,47.672 C26.0058,47.969 28.2368,48.12 30.4998,48.12 C32.7638,48.12 34.9958,47.969 37.1338,47.672 C40.8898,47.15 44.1908,46.197 46.6818,44.913 C47.0148,44.742 47.3248,44.564 47.6228,44.384 C47.6958,44.34 47.7678,44.296 47.8388,44.251 C48.1188,44.075 48.3878,43.896 48.6338,43.713 C48.6428,43.707 48.6518,43.701 48.6598,43.695 C48.9138,43.506 49.1438,43.312 49.3608,43.116 C49.4128,43.068 49.4638,43.02 49.5148,42.972 C49.7078,42.788 49.8888,42.603 50.0498,42.413 C50.0638,42.397 50.0798,42.382 50.0938,42.366 C50.2628,42.163 50.4088,41.957 50.5418,41.75 C50.5748,41.697 50.6058,41.645 50.6368,41.592 C50.6738,41.53 50.7168,41.468 50.7498,41.405 L50.7498,49.901 C50.7498,53.364 45.2508,56.457 37.0648,57.595 C32.8538,58.181 28.1498,58.181 23.9368,57.595 C15.7498,56.457 10.2498,53.364 10.2498,49.901 L10.2498,41.405 Z M10.2498,20.57 C10.2828,20.633 10.3258,20.694 10.3628,20.757 C10.3938,20.809 10.4248,20.862 10.4578,20.914 C10.5908,21.122 10.7368,21.327 10.9058,21.529 C10.9208,21.547 10.9378,21.564 10.9538,21.581 C11.1138,21.768 11.2918,21.952 11.4828,22.134 C11.5358,22.183 11.5878,22.233 11.6428,22.282 C11.8588,22.477 12.0868,22.67 12.3388,22.858 C12.3508,22.867 12.3638,22.875 12.3758,22.884 C12.6188,23.064 12.8828,23.24 13.1588,23.413 C13.2318,23.459 13.3058,23.505 13.3818,23.55 C13.6788,23.73 13.9878,23.907 14.3198,24.078 C16.8038,25.359 20.1048,26.314 23.8678,26.838 C25.9968,27.134 28.2288,27.284 30.4998,27.284 C32.7728,27.284 35.0048,27.134 37.1338,26.838 C40.8958,26.314 44.1978,25.359 46.6818,24.078 C47.0148,23.906 47.3238,23.729 47.6218,23.549 C47.6958,23.505 47.7678,23.46 47.8398,23.415 C48.1188,23.239 48.3858,23.062 48.6318,22.879 C48.6408,22.873 48.6518,22.866 48.6608,22.859 C48.9138,22.67 49.1428,22.477 49.3598,22.281 C49.4128,22.233 49.4638,22.184 49.5148,22.136 C49.7088,21.951 49.8918,21.765 50.0538,21.575 C50.0658,21.56 50.0808,21.546 50.0928,21.532 C50.2628,21.328 50.4098,21.121 50.5428,20.913 C50.5758,20.862 50.6048,20.811 50.6358,20.76 C50.6728,20.697 50.7158,20.634 50.7498,20.571 L50.7498,29.065 C50.7498,29.288 50.7258,29.512 50.6788,29.734 C50.3488,31.289 48.8768,32.801 46.4528,34.052 C44.0108,35.31 40.7648,36.246 37.0648,36.76 C32.8578,37.344 28.1468,37.345 23.9368,36.76 C20.2368,36.246 16.9908,35.31 14.5488,34.052 C11.7758,32.622 10.2498,30.851 10.2498,29.065 L10.2498,20.57 Z M10.2498,10.151 C10.2828,10.213 10.3258,10.275 10.3628,10.337 C10.3938,10.39 10.4248,10.443 10.4588,10.495 C10.5908,10.703 10.7368,10.908 10.9058,11.11 C10.9208,11.128 10.9378,11.145 10.9528,11.162 C11.1128,11.349 11.2918,11.533 11.4828,11.715 C11.5358,11.765 11.5878,11.814 11.6428,11.863 C11.8588,12.058 12.0868,12.251 12.3378,12.439 C12.3508,12.449 12.3648,12.458 12.3778,12.467 C12.6198,12.646 12.8828,12.822 13.1578,12.994 C13.2318,13.041 13.3068,13.087 13.3828,13.134 C13.5498,13.234 13.7238,13.334 13.9018,13.432 L13.8888,13.439 L14.3198,13.661 L14.4348,13.72 L14.4388,13.718 C16.3868,14.704 18.8208,15.489 21.5698,16.03 C22.3158,16.177 23.0788,16.31 23.8678,16.419 L24.1518,16.459 L24.1518,16.448 C28.2468,16.99 32.7588,16.99 36.8498,16.448 L36.8498,16.459 L37.1338,16.419 C37.9228,16.31 38.6858,16.177 39.4318,16.03 C42.1808,15.489 44.6148,14.704 46.5628,13.718 L46.5668,13.72 L46.6818,13.661 L47.1128,13.439 L47.0998,13.432 C47.2788,13.333 47.4518,13.234 47.6198,13.133 C47.6948,13.087 47.7688,13.042 47.8418,12.996 C48.1188,12.822 48.3838,12.645 48.6268,12.464 C48.6378,12.456 48.6508,12.448 48.6618,12.44 C48.9138,12.252 49.1418,12.059 49.3578,11.863 C49.4128,11.814 49.4648,11.765 49.5168,11.716 C49.7088,11.533 49.8898,11.347 50.0508,11.159 C50.0638,11.143 50.0798,11.128 50.0938,11.112 C50.2628,10.909 50.4098,10.702 50.5418,10.494 C50.5748,10.443 50.6058,10.391 50.6358,10.34 C50.6728,10.277 50.7158,10.215 50.7498,10.152 L50.7498,18.648 C50.7498,20.436 49.2238,22.206 46.4528,23.634 C44.0188,24.889 40.7718,25.826 37.0648,26.343 C32.8538,26.928 28.1498,26.928 23.9368,26.343 C20.2288,25.826 16.9828,24.889 14.5488,23.634 C11.7758,22.205 10.2498,20.435 10.2498,18.648 L10.2498,10.151 Z M23.6518,10.998 L23.6518,15.88 C23.4338,15.848 23.2188,15.814 23.0038,15.779 C22.8318,15.751 22.6568,15.726 22.4868,15.696 C22.1888,15.644 21.8968,15.586 21.6058,15.528 C21.4788,15.503 21.3488,15.481 21.2228,15.455 C20.8138,15.369 20.4138,15.278 20.0208,15.181 C19.8918,15.15 19.7678,15.114 19.6408,15.082 C19.3768,15.013 19.1128,14.945 18.8568,14.872 C18.7008,14.828 18.5508,14.78 18.3978,14.733 C18.1778,14.667 17.9578,14.6 17.7448,14.53 C17.5868,14.478 17.4348,14.424 17.2808,14.37 C17.0818,14.3 16.8828,14.23 16.6898,14.157 C16.5378,14.099 16.3898,14.04 16.2408,13.98 C16.0558,13.906 15.8728,13.83 15.6948,13.753 C15.5508,13.69 15.4098,13.626 15.2698,13.562 C15.1818,13.522 15.0978,13.48 15.0128,13.439 C15.0998,13.397 15.1848,13.355 15.2738,13.314 C15.4108,13.251 15.5488,13.188 15.6908,13.126 C15.8738,13.047 16.0618,12.969 16.2518,12.893 C16.3948,12.836 16.5368,12.778 16.6828,12.723 C16.8848,12.647 17.0918,12.574 17.3008,12.501 C17.4458,12.45 17.5898,12.398 17.7388,12.349 C17.9618,12.276 18.1928,12.206 18.4248,12.136 C18.5668,12.093 18.7058,12.048 18.8518,12.007 C19.1248,11.929 19.4058,11.856 19.6878,11.783 C19.7978,11.755 19.9048,11.724 20.0168,11.697 C20.4128,11.6 20.8168,11.508 21.2288,11.422 C21.3358,11.399 21.4478,11.38 21.5568,11.358 C21.8648,11.297 22.1738,11.236 22.4898,11.181 C22.6568,11.152 22.8288,11.127 22.9988,11.099 C23.2148,11.064 23.4318,11.03 23.6518,10.998 L23.6518,10.998 Z M23.6518,0.575 L23.6518,10.488 C23.4188,10.522 23.1918,10.562 22.9628,10.599 C22.7768,10.629 22.5888,10.656 22.4058,10.688 C22.1398,10.735 21.8808,10.787 21.6198,10.838 C21.4428,10.872 21.2638,10.904 21.0898,10.941 C20.8148,10.999 20.5468,11.062 20.2788,11.125 C20.1278,11.16 19.9738,11.193 19.8248,11.229 C19.4948,11.311 19.1738,11.4 18.8538,11.489 C18.7748,11.511 18.6918,11.531 18.6138,11.554 C18.2178,11.668 17.8308,11.789 17.4548,11.915 C17.3848,11.938 17.3208,11.964 17.2518,11.988 C16.9488,12.092 16.6488,12.197 16.3608,12.308 C16.2468,12.352 16.1408,12.4 16.0298,12.444 C15.7948,12.539 15.5578,12.634 15.3328,12.734 C15.2088,12.789 15.0928,12.848 14.9718,12.904 C14.7938,12.988 14.6108,13.069 14.4398,13.155 C14.2808,13.072 14.1358,12.985 13.9858,12.9 C13.8318,12.812 13.6698,12.726 13.5258,12.636 C13.3648,12.537 13.2228,12.434 13.0738,12.332 C12.9408,12.241 12.8008,12.152 12.6768,12.06 C12.5358,11.955 12.4148,11.847 12.2858,11.739 C12.1728,11.646 12.0518,11.554 11.9488,11.459 C11.8288,11.349 11.7298,11.237 11.6228,11.125 C11.5308,11.03 11.4288,10.935 11.3458,10.838 C11.2468,10.722 11.1678,10.604 11.0818,10.486 C11.0128,10.391 10.9328,10.297 10.8718,10.201 C10.7928,10.077 10.7358,9.95 10.6718,9.824 C10.6248,9.733 10.5668,9.643 10.5288,9.552 C10.4688,9.41 10.4328,9.266 10.3928,9.123 C10.3708,9.047 10.3368,8.97 10.3208,8.893 C10.2738,8.672 10.2498,8.451 10.2498,8.229 C10.2498,4.805 15.6228,1.745 23.6518,0.575 L23.6518,0.575 Z M37.3498,10.998 C37.5698,11.03 37.7868,11.064 38.0028,11.099 C38.1728,11.127 38.3448,11.152 38.5128,11.181 C38.8288,11.236 39.1388,11.297 39.4478,11.359 C39.5558,11.381 39.6668,11.399 39.7728,11.422 C40.1848,11.508 40.5888,11.6 40.9848,11.697 C41.0968,11.724 41.2038,11.755 41.3138,11.783 C41.5958,11.856 41.8768,11.929 42.1508,12.007 C42.2958,12.048 42.4348,12.093 42.5768,12.136 C42.8088,12.206 43.0398,12.276 43.2628,12.349 C43.4118,12.398 43.5548,12.45 43.6998,12.501 C43.9088,12.574 44.1178,12.647 44.3198,12.723 C44.4658,12.779 44.6068,12.836 44.7488,12.893 C44.9388,12.969 45.1278,13.047 45.3118,13.126 C45.4528,13.188 45.5908,13.251 45.7288,13.314 C45.8168,13.355 45.9018,13.397 45.9888,13.439 C45.9038,13.48 45.8198,13.522 45.7318,13.562 C45.5928,13.626 45.4508,13.69 45.3068,13.753 C45.1288,13.83 44.9448,13.906 44.7598,13.98 C44.6118,14.04 44.4648,14.099 44.3118,14.157 C44.1188,14.23 43.9198,14.3 43.7198,14.37 C43.5658,14.424 43.4148,14.478 43.2568,14.53 C43.0438,14.6 42.8238,14.667 42.6038,14.733 C42.4508,14.78 42.3008,14.828 42.1448,14.872 C41.8888,14.945 41.6248,15.013 41.3608,15.082 C41.2338,15.114 41.1098,15.15 40.9808,15.181 C40.5878,15.278 40.1868,15.369 39.7778,15.455 C39.6538,15.481 39.5238,15.503 39.3978,15.528 C39.1058,15.586 38.8138,15.644 38.5148,15.696 C38.3448,15.726 38.1698,15.751 37.9978,15.779 C37.7828,15.814 37.5678,15.848 37.3498,15.88 L37.3498,10.998 Z M37.3498,0.575 C45.3768,1.745 50.7498,4.805 50.7498,8.229 C50.7498,8.451 50.7258,8.673 50.6788,8.893 C50.6648,8.965 50.6328,9.035 50.6128,9.106 C50.5718,9.255 50.5328,9.404 50.4708,9.553 C50.4348,9.637 50.3818,9.72 50.3388,9.804 C50.2718,9.937 50.2108,10.071 50.1278,10.202 C50.0708,10.292 49.9958,10.379 49.9318,10.468 C49.8418,10.592 49.7578,10.717 49.6528,10.84 C49.5748,10.932 49.4788,11.021 49.3918,11.111 C49.2808,11.228 49.1758,11.346 49.0508,11.46 C48.9498,11.553 48.8328,11.642 48.7228,11.733 C48.5918,11.843 48.4668,11.953 48.3238,12.061 C48.2018,12.152 48.0628,12.239 47.9318,12.329 C47.7818,12.432 47.6368,12.536 47.4748,12.637 C47.3318,12.726 47.1718,12.811 47.0188,12.898 C46.8678,12.984 46.7208,13.071 46.5618,13.155 C46.3908,13.069 46.2078,12.988 46.0298,12.904 C45.9088,12.848 45.7928,12.789 45.6688,12.734 C45.4438,12.634 45.2078,12.54 44.9718,12.445 C44.8608,12.4 44.7548,12.352 44.6408,12.308 C44.3528,12.197 44.0528,12.091 43.7498,11.987 C43.6808,11.964 43.6168,11.938 43.5468,11.915 C43.1708,11.789 42.7838,11.668 42.3878,11.554 C42.3098,11.531 42.2268,11.511 42.1468,11.489 C41.8278,11.4 41.5068,11.311 41.1768,11.229 C41.0288,11.193 40.8738,11.16 40.7238,11.125 C40.4548,11.062 40.1868,10.999 39.9118,10.941 C39.7378,10.904 39.5588,10.872 39.3818,10.838 C39.1208,10.787 38.8618,10.735 38.5948,10.688 C38.4128,10.656 38.2248,10.629 38.0388,10.599 C37.8098,10.562 37.5828,10.522 37.3498,10.488 L37.3498,0.575 Z M23.8678,58.091 C25.9968,58.387 28.2288,58.537 30.4998,58.537 C32.7728,58.537 35.0048,58.387 37.1338,58.091 C45.5768,56.916 51.2498,53.625 51.2498,49.901 L51.2498,39.482 L51.2498,29.065 L51.2498,18.648 L51.2498,8.229 C51.2498,4.505 45.5768,1.214 37.1338,0.039 L36.8498,0 L36.8498,10.419 L36.8498,10.924 L36.8498,15.946 C32.7628,16.493 28.2408,16.494 24.1518,15.946 L24.1518,10.924 L24.1518,10.419 L24.1518,0 L23.8678,0.039 C15.4238,1.214 9.7498,4.505 9.7498,8.229 L9.7498,18.648 L9.7498,29.065 L9.7498,39.482 L9.7498,49.901 C9.7498,53.625 15.4238,56.916 23.8678,58.091 L23.8678,58.091 Z" id="Fill-1" fill="#020203"></path>
                <g id="Group-5" transform="translate(0, 49.2869)">
                    <mask id="mask-2" fill="white">
                        <use xlink:href="#path-1"></use>
                    </mask>
                    <g id="Clip-4"></g>
                    <path d="M59.46,1.995 L58.92,0 L57.463,1.465 L56.005,2.931 L57.788,3.404 C56.355,8.295 49.2,12.472 39.063,14.106 C36.155,14.575 33.104,14.813 29.994,14.813 C26.886,14.813 23.836,14.575 20.929,14.106 C10.792,12.472 3.637,8.296 2.202,3.406 L3.994,2.931 L2.537,1.465 L1.079,0 L0.539,1.995 L0,3.99 L1.842,3.502 C3.325,8.537 10.589,12.818 20.87,14.475 C23.796,14.948 26.866,15.187 29.994,15.187 C33.124,15.187 36.195,14.948 39.122,14.475 C49.403,12.817 56.667,8.536 58.148,3.499 L60,3.99 L59.46,1.995 Z" id="Fill-3" fill="#020203" mask="url(#mask-2)"></path>
                </g>
            </g>
        </g>
    </g>
</svg>