<?xml version="1.0" encoding="UTF-8"?>
<svg width="60px" height="65px" viewBox="0 0 60 65" version="1.1" xmlns="http://www.w3.org/2000/svg" xmlns:xlink="http://www.w3.org/1999/xlink">
    <title>nav-menu-04</title>
    <defs>
        <polygon id="path-1" points="0 0 41.5 0 41.5 58.5367 0 58.5367"></polygon>
        <polygon id="path-3" points="0 0 60 0 60 15.1876 0 15.1876"></polygon>
    </defs>
    <g id="Moodboard" stroke="none" stroke-width="1" fill="none" fill-rule="evenodd">
        <g id="Artboard" transform="translate(-496, -118)">
            <g id="nav-menu-04" transform="translate(496, 118)">
                <g id="Group-3" transform="translate(9.75, 0)">
                    <mask id="mask-2" fill="white">
                        <use xlink:href="#path-1"></use>
                    </mask>
                    <g id="Clip-2"></g>
                    <path d="M0.5,30.9867 C0.533,31.0497 0.576,31.1107 0.613,31.1727 C0.644,31.2257 0.675,31.2787 0.709,31.3317 C0.841,31.5387 0.987,31.7447 1.156,31.9457 C1.171,31.9637 1.188,31.9807 1.203,31.9987 C1.363,32.1857 1.542,32.3697 1.733,32.5507 C1.786,32.6007 1.838,32.6497 1.893,32.6997 C2.109,32.8947 2.337,33.0867 2.588,33.2757 C2.601,33.2847 2.615,33.2937 2.628,33.3027 C2.87,33.4827 3.133,33.6577 3.408,33.8307 C3.482,33.8777 3.557,33.9237 3.633,33.9697 C3.93,34.1487 4.238,34.3257 4.57,34.4967 C7.062,35.7797 10.364,36.7347 14.118,37.2557 C16.244,37.5507 18.476,37.7007 20.75,37.7007 C23.025,37.7007 25.258,37.5507 27.384,37.2557 C31.138,36.7347 34.439,35.7797 36.932,34.4967 C37.264,34.3257 37.573,34.1487 37.87,33.9687 C37.945,33.9237 38.019,33.8777 38.092,33.8317 C38.369,33.6577 38.634,33.4817 38.877,33.3007 C38.888,33.2927 38.901,33.2847 38.912,33.2767 C39.164,33.0877 39.392,32.8947 39.608,32.6997 C39.663,32.6507 39.715,32.6007 39.767,32.5517 C39.959,32.3687 40.14,32.1837 40.301,31.9947 C40.314,31.9787 40.33,31.9637 40.344,31.9477 C40.513,31.7447 40.66,31.5387 40.792,31.3307 C40.825,31.2787 40.856,31.2277 40.886,31.1757 C40.923,31.1127 40.966,31.0507 41,30.9877 L41,39.4817 C41,41.2707 39.474,43.0417 36.703,44.4687 C34.262,45.7267 31.016,46.6627 27.315,47.1767 C23.085,47.7637 18.421,47.7647 14.187,47.1767 C10.486,46.6627 7.24,45.7267 4.799,44.4687 C2.026,43.0417 0.5,41.2707 0.5,39.4817 L0.5,30.9867 Z M0.5,20.5697 C0.533,20.6327 0.576,20.6947 0.613,20.7567 C0.644,20.8097 0.675,20.8617 0.708,20.9147 C0.841,21.1217 0.987,21.3277 1.156,21.5297 C1.171,21.5467 1.188,21.5637 1.204,21.5817 C1.364,21.7687 1.542,21.9517 1.733,22.1337 C1.786,22.1837 1.838,22.2327 1.893,22.2817 C2.109,22.4767 2.337,22.6697 2.589,22.8577 C2.601,22.8667 2.614,22.8747 2.626,22.8837 C2.869,23.0637 3.133,23.2397 3.409,23.4127 C3.482,23.4587 3.556,23.5047 3.632,23.5507 C3.929,23.7297 4.238,23.9067 4.57,24.0777 C7.054,25.3597 10.355,26.3137 14.118,26.8387 C16.247,27.1347 18.479,27.2847 20.75,27.2847 C23.023,27.2847 25.255,27.1347 27.384,26.8387 C31.146,26.3137 34.448,25.3597 36.932,24.0777 C37.265,23.9067 37.574,23.7287 37.872,23.5497 C37.946,23.5047 38.018,23.4597 38.09,23.4147 C38.369,23.2397 38.636,23.0617 38.882,22.8797 C38.891,22.8727 38.902,22.8657 38.911,22.8597 C39.164,22.6707 39.393,22.4767 39.61,22.2807 C39.663,22.2327 39.714,22.1847 39.765,22.1357 C39.959,21.9517 40.142,21.7647 40.304,21.5747 C40.316,21.5607 40.331,21.5467 40.343,21.5317 C40.513,21.3287 40.66,21.1217 40.793,20.9127 C40.826,20.8617 40.855,20.8107 40.886,20.7597 C40.923,20.6967 40.966,20.6347 41,20.5707 L41,29.0657 C41,29.2887 40.976,29.5117 40.929,29.7337 C40.599,31.2897 39.127,32.8017 36.703,34.0527 C34.261,35.3097 31.015,36.2467 27.315,36.7597 C23.108,37.3447 18.397,37.3457 14.187,36.7597 C10.487,36.2467 7.241,35.3097 4.799,34.0527 C2.026,32.6227 0.5,30.8517 0.5,29.0657 L0.5,20.5697 Z M0.5,10.1507 C0.533,10.2137 0.576,10.2747 0.613,10.3367 C0.644,10.3897 0.675,10.4427 0.709,10.4957 C0.841,10.7027 0.987,10.9087 1.156,11.1107 C1.171,11.1277 1.188,11.1447 1.203,11.1627 C1.363,11.3497 1.542,11.5337 1.733,11.7147 C1.786,11.7647 1.838,11.8147 1.893,11.8637 C2.109,12.0587 2.337,12.2507 2.588,12.4397 C2.601,12.4487 2.615,12.4577 2.628,12.4677 C2.87,12.6467 3.133,12.8217 3.408,12.9947 C3.482,13.0417 3.557,13.0877 3.633,13.1337 C3.8,13.2347 3.974,13.3337 4.152,13.4317 L4.139,13.4387 L4.57,13.6607 L4.685,13.7197 L4.689,13.7177 C6.637,14.7037 9.071,15.4897 11.82,16.0307 C12.566,16.1767 13.329,16.3097 14.118,16.4197 L14.402,16.4587 L14.402,16.4487 C18.497,16.9907 23.009,16.9907 27.1,16.4487 L27.1,16.4587 L27.384,16.4197 C28.173,16.3097 28.936,16.1767 29.682,16.0307 C32.431,15.4887 34.865,14.7037 36.813,13.7177 L36.817,13.7197 L36.932,13.6607 L37.363,13.4387 L37.35,13.4317 C37.529,13.3337 37.702,13.2337 37.87,13.1327 C37.945,13.0877 38.019,13.0417 38.092,12.9957 C38.369,12.8217 38.634,12.6457 38.877,12.4647 C38.888,12.4567 38.901,12.4487 38.912,12.4407 C39.164,12.2517 39.392,12.0587 39.608,11.8637 C39.663,11.8147 39.715,11.7657 39.767,11.7157 C39.959,11.5327 40.14,11.3477 40.301,11.1587 C40.314,11.1427 40.33,11.1277 40.344,11.1117 C40.513,10.9087 40.66,10.7027 40.792,10.4947 C40.825,10.4427 40.856,10.3917 40.886,10.3397 C40.923,10.2767 40.966,10.2147 41,10.1517 L41,18.6487 C41,20.4357 39.474,22.2057 36.703,23.6337 C34.269,24.8897 31.022,25.8267 27.315,26.3427 C23.104,26.9287 18.4,26.9287 14.187,26.3427 C10.479,25.8267 7.233,24.8897 4.799,23.6337 C2.026,22.2057 0.5,20.4347 0.5,18.6487 L0.5,10.1507 Z M13.902,10.9977 L13.902,15.8797 C13.684,15.8487 13.469,15.8137 13.254,15.7797 C13.082,15.7517 12.907,15.7257 12.737,15.6957 C12.439,15.6437 12.147,15.5867 11.856,15.5287 C11.729,15.5037 11.599,15.4807 11.473,15.4547 C11.064,15.3697 10.664,15.2777 10.271,15.1817 C10.142,15.1497 10.018,15.1147 9.891,15.0817 C9.627,15.0137 9.363,14.9457 9.107,14.8727 C8.951,14.8277 8.801,14.7797 8.648,14.7337 C8.428,14.6667 8.208,14.6007 7.995,14.5307 C7.837,14.4787 7.685,14.4237 7.531,14.3697 C7.332,14.2997 7.133,14.2297 6.94,14.1577 C6.788,14.0997 6.64,14.0397 6.491,13.9797 C6.306,13.9057 6.123,13.8307 5.945,13.7527 C5.801,13.6907 5.66,13.6267 5.52,13.5617 C5.432,13.5217 5.348,13.4797 5.263,13.4387 C5.35,13.3977 5.435,13.3547 5.524,13.3137 C5.661,13.2507 5.799,13.1877 5.941,13.1267 C6.124,13.0467 6.312,12.9697 6.502,12.8937 C6.645,12.8357 6.787,12.7787 6.933,12.7237 C7.135,12.6467 7.342,12.5737 7.551,12.5007 C7.696,12.4507 7.84,12.3987 7.989,12.3497 C8.212,12.2757 8.443,12.2057 8.675,12.1367 C8.817,12.0937 8.956,12.0487 9.102,12.0067 C9.375,11.9287 9.656,11.8557 9.938,11.7837 C10.048,11.7557 10.155,11.7247 10.267,11.6967 C10.663,11.5997 11.067,11.5077 11.479,11.4217 C11.586,11.3997 11.698,11.3807 11.807,11.3587 C12.115,11.2967 12.424,11.2367 12.74,11.1817 C12.907,11.1517 13.079,11.1267 13.249,11.0997 C13.465,11.0647 13.682,11.0297 13.902,10.9977 L13.902,10.9977 Z M13.902,0.5747 L13.902,10.4887 C13.669,10.5227 13.442,10.5627 13.213,10.5987 C13.027,10.6287 12.839,10.6567 12.656,10.6887 C12.39,10.7347 12.131,10.7867 11.87,10.8377 C11.693,10.8727 11.514,10.9047 11.34,10.9407 C11.065,10.9987 10.797,11.0627 10.529,11.1257 C10.378,11.1607 10.224,11.1927 10.075,11.2297 C9.745,11.3117 9.424,11.3997 9.104,11.4897 C9.025,11.5117 8.942,11.5317 8.864,11.5537 C8.468,11.6687 8.081,11.7887 7.705,11.9147 C7.635,11.9377 7.571,11.9637 7.502,11.9877 C7.199,12.0917 6.899,12.1977 6.611,12.3087 C6.497,12.3527 6.391,12.3997 6.28,12.4447 C6.045,12.5397 5.808,12.6347 5.583,12.7337 C5.459,12.7897 5.343,12.8477 5.222,12.9047 C5.044,12.9877 4.861,13.0687 4.69,13.1557 C4.531,13.0717 4.386,12.9857 4.236,12.8997 C4.082,12.8117 3.92,12.7267 3.776,12.6367 C3.615,12.5367 3.473,12.4337 3.324,12.3317 C3.191,12.2417 3.051,12.1527 2.927,12.0607 C2.786,11.9557 2.665,11.8467 2.536,11.7397 C2.423,11.6457 2.302,11.5537 2.199,11.4587 C2.079,11.3497 1.98,11.2367 1.873,11.1257 C1.781,11.0297 1.679,10.9357 1.596,10.8387 C1.497,10.7227 1.418,10.6037 1.332,10.4867 C1.263,10.3917 1.183,10.2977 1.122,10.2017 C1.043,10.0767 0.986,9.9507 0.922,9.8247 C0.875,9.7337 0.817,9.6437 0.779,9.5517 C0.719,9.4097 0.683,9.2667 0.643,9.1237 C0.621,9.0467 0.587,8.9707 0.571,8.8927 C0.524,8.6727 0.5,8.4507 0.5,8.2297 C0.5,4.8057 5.873,1.7447 13.902,0.5747 L13.902,0.5747 Z M27.6,10.9977 C27.82,11.0297 28.037,11.0647 28.253,11.0997 C28.423,11.1267 28.595,11.1517 28.763,11.1817 C29.079,11.2367 29.389,11.2977 29.698,11.3587 C29.806,11.3807 29.917,11.3997 30.023,11.4217 C30.435,11.5077 30.839,11.5997 31.235,11.6967 C31.347,11.7247 31.454,11.7557 31.564,11.7837 C31.846,11.8557 32.127,11.9287 32.401,12.0067 C32.546,12.0487 32.685,12.0937 32.827,12.1367 C33.059,12.2057 33.29,12.2757 33.513,12.3497 C33.662,12.3987 33.805,12.4497 33.95,12.5007 C34.159,12.5737 34.368,12.6467 34.57,12.7237 C34.716,12.7787 34.857,12.8357 34.999,12.8927 C35.189,12.9697 35.378,13.0467 35.562,13.1267 C35.703,13.1877 35.841,13.2507 35.979,13.3137 C36.067,13.3547 36.152,13.3977 36.239,13.4387 C36.154,13.4797 36.07,13.5217 35.982,13.5617 C35.843,13.6267 35.701,13.6907 35.557,13.7527 C35.379,13.8307 35.195,13.9057 35.01,13.9807 C34.862,14.0397 34.715,14.0997 34.562,14.1567 C34.369,14.2297 34.17,14.3007 33.97,14.3697 C33.816,14.4237 33.665,14.4787 33.507,14.5307 C33.294,14.6007 33.074,14.6667 32.854,14.7337 C32.701,14.7797 32.551,14.8277 32.395,14.8727 C32.139,14.9457 31.875,15.0137 31.611,15.0817 C31.484,15.1147 31.36,15.1497 31.231,15.1817 C30.838,15.2777 30.437,15.3697 30.028,15.4547 C29.904,15.4807 29.774,15.5027 29.648,15.5277 C29.356,15.5857 29.064,15.6437 28.765,15.6957 C28.595,15.7257 28.42,15.7517 28.248,15.7797 C28.033,15.8137 27.818,15.8487 27.6,15.8797 L27.6,10.9977 Z M27.6,0.5747 C35.627,1.7447 41,4.8057 41,8.2297 C41,8.4517 40.976,8.6727 40.929,8.8937 C40.915,8.9647 40.883,9.0347 40.863,9.1057 C40.822,9.2547 40.783,9.4047 40.721,9.5527 C40.685,9.6377 40.632,9.7207 40.589,9.8047 C40.522,9.9377 40.461,10.0707 40.378,10.2027 C40.321,10.2917 40.246,10.3797 40.182,10.4687 C40.092,10.5927 40.008,10.7177 39.903,10.8397 C39.825,10.9317 39.729,11.0207 39.642,11.1117 C39.531,11.2277 39.426,11.3457 39.301,11.4607 C39.2,11.5527 39.083,11.6427 38.973,11.7337 C38.842,11.8427 38.717,11.9537 38.574,12.0607 C38.452,12.1517 38.313,12.2397 38.182,12.3287 C38.032,12.4317 37.887,12.5367 37.725,12.6367 C37.582,12.7257 37.422,12.8117 37.269,12.8977 C37.118,12.9847 36.971,13.0717 36.812,13.1557 C36.641,13.0687 36.458,12.9877 36.28,12.9047 C36.159,12.8477 36.043,12.7897 35.919,12.7337 C35.694,12.6347 35.458,12.5397 35.222,12.4447 C35.111,12.3997 35.005,12.3527 34.891,12.3087 C34.603,12.1977 34.303,12.0917 34,11.9877 C33.931,11.9637 33.867,11.9377 33.797,11.9147 C33.421,11.7887 33.034,11.6687 32.638,11.5537 C32.56,11.5317 32.477,11.5117 32.397,11.4897 C32.078,11.3997 31.757,11.3117 31.427,11.2297 C31.279,11.1927 31.124,11.1607 30.974,11.1257 C30.705,11.0627 30.437,10.9987 30.162,10.9407 C29.988,10.9047 29.809,10.8727 29.632,10.8377 C29.371,10.7867 29.112,10.7347 28.845,10.6887 C28.663,10.6567 28.475,10.6287 28.289,10.5987 C28.06,10.5627 27.833,10.5227 27.6,10.4887 L27.6,0.5747 Z M14.118,58.0907 C16.247,58.3867 18.479,58.5367 20.75,58.5367 C23.023,58.5367 25.255,58.3867 27.384,58.0907 C35.827,56.9167 41.5,53.6247 41.5,49.9007 L41.5,39.4817 L41.5,29.0657 L41.5,18.6487 L41.5,8.2297 C41.5,4.5057 35.827,1.2137 27.384,0.0397 L27.1,-0.0003 L27.1,10.4187 L27.1,10.9237 L27.1,15.9457 C23.013,16.4927 18.491,16.4937 14.402,15.9457 L14.402,10.9237 L14.402,10.4187 L14.402,-0.0003 L14.118,0.0397 C5.674,1.2137 0,4.5057 0,8.2297 L0,18.6487 L0,29.0657 L0,39.4817 L0,49.9007 C0,53.6247 5.674,56.9167 14.118,58.0907 L14.118,58.0907 Z" id="Fill-1" fill="#020203" mask="url(#mask-2)"></path>
                </g>
                <g id="Group-6" transform="translate(0, 49.2864)">
                    <mask id="mask-4" fill="white">
                        <use xlink:href="#path-3"></use>
                    </mask>
                    <g id="Clip-5"></g>
                    <path d="M60,3.991 L59.46,1.996 L58.92,0 L57.463,1.466 L56.006,2.931 L57.788,3.404 C56.355,8.295 49.201,12.472 39.063,14.107 C36.155,14.576 33.104,14.814 29.994,14.814 C26.886,14.814 23.836,14.576 20.929,14.107 C10.792,12.472 3.637,8.296 2.202,3.407 L3.994,2.931 L2.537,1.466 L1.08,0 L0.54,1.996 L0,3.991 L1.842,3.502 C3.325,8.538 10.589,12.818 20.87,14.476 C23.796,14.948 26.866,15.188 29.994,15.188 C33.124,15.188 36.195,14.948 39.122,14.476 C49.403,12.818 56.667,8.536 58.148,3.5 L60,3.991 Z" id="Fill-4" fill="#020203" mask="url(#mask-4)"></path>
                </g>
            </g>
        </g>
    </g>
</svg>