<?xml version="1.0" encoding="UTF-8"?>
<svg width="60px" height="65px" viewBox="0 0 60 65" version="1.1" xmlns="http://www.w3.org/2000/svg" xmlns:xlink="http://www.w3.org/1999/xlink">
    <title>nav-menu-02</title>
    <defs>
        <polygon id="path-1" points="0 0 60 0 60 15.1876 0 15.1876"></polygon>
    </defs>
    <g id="Moodboard" stroke="none" stroke-width="1" fill="none" fill-rule="evenodd">
        <g id="Artboard" transform="translate(-218, -118)">
            <g id="nav-menu-02" transform="translate(218, 118)">
                <path d="M10.2501,41.405 C10.2841,41.468 10.3271,41.53 10.3641,41.593 C10.3941,41.645 10.4251,41.696 10.4571,41.748 C10.5901,41.956 10.7371,42.163 10.9071,42.366 C10.9201,42.381 10.9351,42.396 10.9481,42.411 C11.1101,42.601 11.2921,42.787 11.4861,42.971 C11.5361,43.02 11.5871,43.068 11.6401,43.115 C11.8571,43.311 12.0871,43.505 12.3401,43.694 C12.3491,43.701 12.3601,43.708 12.3691,43.714 C12.6141,43.897 12.8821,44.074 13.1611,44.25 C13.2331,44.295 13.3061,44.34 13.3811,44.385 C13.6781,44.565 13.9871,44.742 14.3201,44.913 C16.8111,46.197 20.1121,47.15 23.8681,47.672 C26.0061,47.969 28.2371,48.12 30.5001,48.12 C32.7641,48.12 34.9961,47.969 37.1341,47.672 C40.8901,47.15 44.1911,46.197 46.6821,44.913 C47.0151,44.742 47.3251,44.564 47.6231,44.384 C47.6961,44.34 47.7681,44.296 47.8391,44.251 C48.1191,44.075 48.3881,43.896 48.6341,43.713 C48.6431,43.707 48.6521,43.701 48.6601,43.695 C48.9141,43.506 49.1431,43.312 49.3611,43.116 C49.4131,43.068 49.4641,43.02 49.5151,42.972 C49.7081,42.788 49.8891,42.603 50.0501,42.413 C50.0641,42.397 50.0801,42.382 50.0941,42.366 C50.2631,42.163 50.4091,41.957 50.5421,41.75 C50.5751,41.697 50.6061,41.645 50.6371,41.592 C50.6741,41.53 50.7171,41.468 50.7501,41.405 L50.7501,49.901 C50.7501,53.364 45.2511,56.457 37.0651,57.595 C32.8541,58.181 28.1501,58.181 23.9371,57.595 C15.7501,56.457 10.2501,53.364 10.2501,49.901 L10.2501,41.405 Z M10.2501,10.151 C10.2831,10.213 10.3261,10.275 10.3631,10.337 C10.3941,10.39 10.4251,10.443 10.4591,10.495 C10.5911,10.703 10.7371,10.908 10.9061,11.11 C10.9211,11.128 10.9381,11.145 10.9531,11.162 C11.1131,11.349 11.2921,11.533 11.4831,11.715 C11.5361,11.765 11.5881,11.814 11.6431,11.863 C11.8591,12.058 12.0871,12.251 12.3381,12.439 C12.3511,12.449 12.3651,12.458 12.3781,12.467 C12.6201,12.646 12.8831,12.822 13.1581,12.994 C13.2321,13.041 13.3071,13.087 13.3831,13.134 C13.5501,13.234 13.7241,13.334 13.9021,13.432 L13.8891,13.439 L14.3201,13.661 L14.4351,13.72 L14.4391,13.718 C16.3871,14.704 18.8211,15.489 21.5701,16.03 C22.3161,16.177 23.0791,16.31 23.8681,16.419 L24.1521,16.459 L24.1521,16.448 C28.2471,16.99 32.7591,16.99 36.8501,16.448 L36.8501,16.459 L37.1341,16.419 C37.9231,16.31 38.6861,16.177 39.4321,16.03 C42.1811,15.489 44.6151,14.704 46.5631,13.718 L46.5671,13.72 L46.6821,13.661 L47.1131,13.439 L47.1001,13.432 C47.2791,13.333 47.4521,13.234 47.6201,13.133 C47.6951,13.087 47.7691,13.042 47.8421,12.996 C48.1191,12.822 48.3841,12.645 48.6271,12.464 C48.6381,12.456 48.6511,12.448 48.6621,12.44 C48.9141,12.252 49.1421,12.059 49.3581,11.863 C49.4121,11.814 49.4651,11.765 49.5171,11.716 C49.7091,11.533 49.8901,11.347 50.0511,11.159 C50.0641,11.143 50.0801,11.128 50.0941,11.112 C50.2631,10.909 50.4101,10.702 50.5421,10.494 C50.5751,10.443 50.6061,10.391 50.6361,10.34 C50.6731,10.277 50.7161,10.215 50.7501,10.152 L50.7501,18.648 C50.7501,20.436 49.2241,22.206 46.4531,23.634 C44.0191,24.889 40.7721,25.826 37.0651,26.343 C32.8541,26.928 28.1501,26.928 23.9371,26.343 C20.2291,25.826 16.9831,24.889 14.5491,23.634 C11.7761,22.205 10.2501,20.435 10.2501,18.648 L10.2501,10.151 Z M23.6521,0.575 L23.6521,10.488 C23.4191,10.522 23.1921,10.562 22.9631,10.599 C22.7771,10.629 22.5891,10.656 22.4061,10.688 C22.1401,10.735 21.8801,10.787 21.6201,10.838 C21.4431,10.872 21.2641,10.904 21.0901,10.941 C20.8151,10.999 20.5471,11.062 20.2791,11.125 C20.1281,11.16 19.9741,11.193 19.8251,11.229 C19.4951,11.311 19.1741,11.4 18.8541,11.489 C18.7751,11.511 18.6921,11.531 18.6141,11.554 C18.2181,11.668 17.8311,11.789 17.4551,11.915 C17.3851,11.938 17.3211,11.964 17.2521,11.988 C16.9491,12.092 16.6491,12.197 16.3611,12.308 C16.2471,12.352 16.1411,12.4 16.0301,12.444 C15.7951,12.539 15.5581,12.634 15.3331,12.734 C15.2091,12.789 15.0931,12.848 14.9721,12.904 C14.7941,12.988 14.6111,13.069 14.4401,13.155 C14.2811,13.072 14.1361,12.985 13.9861,12.9 C13.8321,12.812 13.6701,12.726 13.5261,12.636 C13.3651,12.537 13.2231,12.434 13.0741,12.332 C12.9411,12.241 12.8011,12.152 12.6771,12.06 C12.5361,11.955 12.4141,11.847 12.2861,11.739 C12.1731,11.646 12.0521,11.554 11.9491,11.459 C11.8291,11.349 11.7301,11.237 11.6231,11.125 C11.5311,11.03 11.4291,10.935 11.3461,10.838 C11.2471,10.722 11.1681,10.604 11.0821,10.486 C11.0131,10.391 10.9331,10.297 10.8721,10.201 C10.7931,10.077 10.7361,9.95 10.6721,9.824 C10.6251,9.733 10.5671,9.643 10.5291,9.552 C10.4691,9.41 10.4331,9.266 10.3931,9.123 C10.3711,9.047 10.3371,8.97 10.3211,8.893 C10.2741,8.672 10.2501,8.451 10.2501,8.229 C10.2501,4.805 15.6231,1.745 23.6521,0.575 L23.6521,0.575 Z M37.3501,0.575 C45.3771,1.745 50.7501,4.805 50.7501,8.229 C50.7501,8.451 50.7261,8.673 50.6791,8.893 C50.6651,8.965 50.6331,9.035 50.6131,9.106 C50.5721,9.255 50.5331,9.404 50.4711,9.553 C50.4351,9.637 50.3821,9.72 50.3391,9.804 C50.2721,9.937 50.2111,10.071 50.1281,10.202 C50.0711,10.292 49.9961,10.379 49.9321,10.468 C49.8421,10.592 49.7581,10.717 49.6531,10.84 C49.5751,10.932 49.4791,11.021 49.3921,11.111 C49.2811,11.228 49.1761,11.346 49.0511,11.46 C48.9501,11.553 48.8321,11.642 48.7231,11.733 C48.5921,11.843 48.4671,11.953 48.3241,12.061 C48.2021,12.152 48.0631,12.239 47.9321,12.329 C47.7821,12.432 47.6371,12.536 47.4751,12.637 C47.3321,12.726 47.1721,12.811 47.0191,12.898 C46.8681,12.984 46.7211,13.071 46.5621,13.155 C46.3911,13.069 46.2081,12.988 46.0301,12.904 C45.9091,12.848 45.7931,12.789 45.6691,12.734 C45.4441,12.634 45.2081,12.54 44.9721,12.445 C44.8611,12.4 44.7551,12.352 44.6411,12.308 C44.3531,12.197 44.0531,12.091 43.7501,11.987 C43.6811,11.964 43.6171,11.938 43.5471,11.915 C43.1711,11.789 42.7841,11.668 42.3881,11.554 C42.3101,11.531 42.2271,11.511 42.1471,11.489 C41.8281,11.4 41.5071,11.311 41.1771,11.229 C41.0291,11.193 40.8741,11.16 40.7241,11.125 C40.4551,11.062 40.1871,10.999 39.9121,10.941 C39.7381,10.904 39.5581,10.872 39.3821,10.838 C39.1211,10.787 38.8621,10.735 38.5951,10.688 C38.4131,10.656 38.2251,10.629 38.0391,10.599 C37.8101,10.562 37.5831,10.522 37.3501,10.488 L37.3501,0.575 Z M50.7501,39.482 C50.7501,41.271 49.2241,43.042 46.4531,44.469 C44.0121,45.726 40.7661,46.663 37.0651,47.176 C32.8351,47.764 28.1711,47.765 23.9371,47.176 C20.2361,46.663 16.9901,45.726 14.5491,44.469 C11.7761,43.041 10.2501,41.27 10.2501,39.482 L10.2501,30.987 C10.2831,31.049 10.3261,31.111 10.3631,31.173 C10.3941,31.226 10.4251,31.279 10.4591,31.331 C10.5911,31.539 10.7371,31.744 10.9061,31.946 C10.9211,31.964 10.9381,31.981 10.9531,31.998 C11.1131,32.185 11.2921,32.369 11.4831,32.551 C11.5361,32.6 11.5881,32.65 11.6431,32.699 C11.8591,32.894 12.0871,33.087 12.3381,33.275 C12.3511,33.285 12.3651,33.294 12.3781,33.303 C12.6201,33.482 12.8831,33.658 13.1581,33.83 C13.2321,33.877 13.3071,33.923 13.3831,33.969 C13.6801,34.149 13.9881,34.326 14.3201,34.497 C16.8121,35.78 20.1141,36.734 23.8681,37.255 C25.9941,37.551 28.2261,37.701 30.5001,37.701 C32.7751,37.701 35.0081,37.551 37.1341,37.255 C40.8881,36.734 44.1891,35.78 46.6821,34.497 C47.0141,34.325 47.3221,34.148 47.6201,33.969 C47.6951,33.923 47.7691,33.878 47.8421,33.832 C48.1191,33.658 48.3841,33.481 48.6271,33.3 C48.6381,33.292 48.6511,33.284 48.6621,33.276 C48.9141,33.088 49.1421,32.895 49.3581,32.699 C49.4121,32.65 49.4651,32.601 49.5171,32.552 C49.7091,32.368 49.8901,32.183 50.0511,31.995 C50.0641,31.979 50.0801,31.963 50.0941,31.948 C50.2631,31.745 50.4101,31.538 50.5421,31.33 C50.5751,31.279 50.6061,31.227 50.6361,31.176 C50.6731,31.113 50.7161,31.051 50.7501,30.988 L50.7501,39.482 Z M23.8681,58.091 C25.9971,58.387 28.2291,58.537 30.5001,58.537 C32.7731,58.537 35.0051,58.387 37.1341,58.091 C45.5771,56.916 51.2501,53.625 51.2501,49.901 L51.2501,39.482 L51.2501,29.065 L51.2501,18.648 L51.2501,8.229 C51.2501,4.505 45.5771,1.214 37.1341,0.039 L36.8501,0 L36.8501,10.419 L36.8501,10.924 L36.8501,15.946 C32.7631,16.493 28.2411,16.494 24.1521,15.946 L24.1521,10.924 L24.1521,10.419 L24.1521,0 L23.8681,0.039 C15.4241,1.214 9.7501,4.505 9.7501,8.229 L9.7501,18.648 L9.7501,29.065 L9.7501,39.482 L9.7501,49.901 C9.7501,53.625 15.4241,56.916 23.8681,58.091 L23.8681,58.091 Z" id="Fill-1" fill="#020203"></path>
                <g id="Group-5" transform="translate(0, 49.2862)">
                    <mask id="mask-2" fill="white">
                        <use xlink:href="#path-1"></use>
                    </mask>
                    <g id="Clip-4"></g>
                    <path d="M60,3.991 L59.46,1.996 L58.92,0 L57.463,1.466 L56.006,2.931 L57.788,3.404 C56.355,8.295 49.201,12.472 39.064,14.107 C36.155,14.576 33.105,14.814 29.994,14.814 C26.886,14.814 23.836,14.576 20.929,14.107 C10.792,12.472 3.637,8.296 2.202,3.407 L3.994,2.931 L2.537,1.466 L1.08,0 L0.54,1.996 L0,3.991 L1.842,3.502 C3.325,8.538 10.589,12.818 20.87,14.476 C23.796,14.948 26.866,15.188 29.994,15.188 C33.124,15.188 36.195,14.948 39.122,14.476 C49.403,12.818 56.667,8.536 58.148,3.5 L60,3.991 Z" id="Fill-3" fill="#020203" mask="url(#mask-2)"></path>
                </g>
            </g>
        </g>
    </g>
</svg>