<?xml version="1.0" encoding="UTF-8"?>
<svg width="209px" height="200px" viewBox="0 0 209 200" version="1.1" xmlns="http://www.w3.org/2000/svg" xmlns:xlink="http://www.w3.org/1999/xlink">
    <title>Group Copy</title>
    <g id="Moodboard" stroke="none" stroke-width="1" fill="none" fill-rule="evenodd">
        <g id="Group-Copy">
            <path d="M126.26666,49.6708401 C132.911336,49.6708401 138.926961,52.3641271 143.281417,56.7185831 C147.635873,61.0730392 150.32916,67.0886642 150.32916,73.7333401 L150.32916,225.829979 C150.32916,232.474655 147.635873,238.49028 143.281417,242.844736 C138.926961,247.199192 132.911336,249.892479 126.26666,249.892479 L74.8299787,249.892479 C68.1853028,249.892479 62.1696778,247.199192 57.8152218,242.844736 C53.4607658,238.49028 50.7674787,232.474655 50.7674787,225.829979 L50.7674787,73.7333401 C50.7674787,67.0886642 53.4607658,61.0730392 57.8152218,56.7185831 C62.1696778,52.3641271 68.1853028,49.6708401 74.8299787,49.6708401 Z" id="Rectangle" stroke="#000000" stroke-width="0.875" fill="#FFFFFF" transform="translate(100.5483, 149.7817) rotate(90) translate(-100.5483, -149.7817)"></path>
            <rect id="Rectangle" stroke="#000000" stroke-width="0.875" fill="#FFFFFF" opacity="0.7121117" x="108.450105" y="0.4375" width="100.112395" height="199.125" rx="24.5"></rect>
            <path id="Line-5" d="M101.178665,49.7810005 L101.178665,50.6560005 L100.149888,50.6566404 C80.7758001,50.6989995 75.0258331,52.8574716 69.6317572,60.9601613 C66.9370209,65.0080487 65.5246877,71.9327904 65.4217685,81.720623 L69.15677,81.6382366 L65.1468275,89.728695 L60.7838094,81.8230496 L64.546,81.74 L64.5486186,81.5511025 C64.6668654,71.6927309 66.1095948,64.6719721 68.9033932,60.475279 C74.4892914,52.0844443 80.507384,49.826 100.141996,49.7816702 L101.178665,49.7810005 Z" fill="#000000" fill-rule="nonzero"></path>
        </g>
    </g>
</svg>