<?xml version="1.0" encoding="UTF-8"?>
<svg width="24px" height="21px" viewBox="0 0 24 21" version="1.1" xmlns="http://www.w3.org/2000/svg" xmlns:xlink="http://www.w3.org/1999/xlink">
    <title>Group 27</title>
    <g id="Moodboard" stroke="none" stroke-width="1" fill="none" fill-rule="evenodd" opacity="0.8">
        <g id="Group-27" fill="#FFFFFF">
            <path d="M13.4247603,19.9578322 C13.4247603,19.999544 13.4061241,20.0296517 13.3697683,20.0478418 C13.3340236,20.066032 13.2991953,20.0625821 13.2668112,20.0368651 L6.18537384,14.3897769 C6.00878853,14.2489604 5.78759863,14.171182 5.56335363,14.171182 L1.0139907,14.171182 C0.960220783,14.171182 0.916532723,14.1260203 0.916532723,14.0708227 L0.916532723,7.09240672 C0.916532723,7.03720915 0.960220783,6.9920475 1.0139907,6.9920475 L5.35896683,6.9920475 C5.58321184,6.9920475 5.80440173,6.9142691 5.98129255,6.77313894 L13.2668112,0.963280656 C13.2991953,0.937877227 13.3328015,0.934113756 13.3697683,0.951990243 C13.4061241,0.970493975 13.4247603,1.00091537 13.4247603,1.04231355 L13.4406469,10.4183742 L13.4247603,19.9578322 Z M14.341293,1.04074543 C14.3403765,0.640249399 14.1222417,0.282406036 13.7721262,0.106777392 C13.4213997,-0.0688512529 13.0126261,-0.0255713369 12.7049766,0.219995143 L5.41915248,6.03016705 C5.40173836,6.04365282 5.3806581,6.05117976 5.35896683,6.05117976 L1.0139907,6.05117976 C0.454905741,6.05117976 0,6.51816378 0,7.09240672 L0,14.0708227 C0,14.6450657 0.454905741,15.1120497 1.0139907,15.1120497 L5.56335363,15.1120497 C5.58535041,15.1120497 5.60581964,15.119263 5.62323377,15.1327488 L12.7049766,20.7798369 C12.8873666,20.9253578 13.1051959,21 13.3257748,21 C13.4770027,21 13.6294526,20.9648743 13.7721262,20.8930547 C14.1222417,20.7177397 14.3403765,20.3598963 14.341293,19.9597139 L14.3571796,10.5798898 L14.3568741,10.5021114 L14.3571796,10.4205695 L14.341293,1.04074543 Z" id="Fill-1"></path>
            <path d="M23.1848986,6.88161777 C23.3154149,6.97796 23.3431185,7.16186515 23.2467762,7.29238143 C23.2394533,7.30230188 23.231513,7.31175137 23.2230024,7.32067383 L17.3837074,13.4425617 C17.2522533,13.5803775 17.0388108,13.5989013 16.8855801,13.485792 C16.7550638,13.3894498 16.7273603,13.2055447 16.8237025,13.0750284 C16.8310254,13.0651079 16.8389657,13.0556584 16.8474763,13.046736 L22.6867713,6.9248481 C22.8182254,6.78703231 23.0316679,6.76850856 23.1848986,6.88161777 Z" id="Rectangle"></path>
            <path d="M16.8855801,6.88161777 C16.7550638,6.97796 16.7273603,7.16186515 16.8237025,7.29238143 C16.8310254,7.30230188 16.8389657,7.31175137 16.8474763,7.32067383 L22.6867713,13.4425617 C22.8182254,13.5803775 23.0316679,13.5989013 23.1848986,13.485792 C23.3154149,13.3894498 23.3431185,13.2055447 23.2467762,13.0750284 C23.2394533,13.0651079 23.231513,13.0556584 23.2230024,13.046736 L17.3837074,6.9248481 C17.2522533,6.78703231 17.0388108,6.76850856 16.8855801,6.88161777 Z" id="Rectangle"></path>
        </g>
    </g>
</svg>