<?xml version="1.0" encoding="UTF-8"?>
<svg width="36px" height="35px" viewBox="0 0 36 35" version="1.1" xmlns="http://www.w3.org/2000/svg" xmlns:xlink="http://www.w3.org/1999/xlink">
    <title>Group Copy 7</title>
    <g id="Moodboard" stroke="none" stroke-width="1" fill="none" fill-rule="evenodd" opacity="0.8">
        <g id="Group-Copy-7" transform="translate(1, 2)" fill="#FFFFFF" fill-rule="nonzero">
            <g id="10´" transform="translate(9.9685, 12.699)">
                <path d="M0.26,4 C2.01,3.43 2.46,1.96 2.57,0.39 L2.8,0.39 L2.67,0.96 L2.67,7.21 L3.49,7.21 L3.49,0.16 L1.82,0.16 C1.79,1.55 1.34,2.75 0,3.29 L0.26,4 Z" id="Path"></path>
                <path d="M7.63588236,0.06 C5.65588236,0.06 4.62588236,1.61 4.62588236,3.68 C4.62588236,5.76 5.65588236,7.31 7.63588236,7.31 C9.59588236,7.31 10.6358824,5.76 10.6358824,3.68 C10.6358824,1.61 9.59588236,0.06 7.63588236,0.06 Z M7.63588236,0.76 C8.24588236,0.76 8.71588236,0.97 9.07588236,1.34 L5.76588236,5.39 C5.55588236,4.92 5.44588236,4.34 5.44588236,3.68 C5.44588236,1.98 6.16588236,0.76 7.63588236,0.76 Z M7.63588236,6.61 C7.02588236,6.61 6.53588236,6.4 6.18588236,6.03 L9.49588236,1.97 C9.70588236,2.44 9.81588236,3.03 9.81588236,3.68 C9.81588236,5.39 9.09588236,6.61 7.63588236,6.61 Z" id="Shape"></path>
                <polygon id="Path" points="11.9417647 1.44 15.0217647 0.64 14.8517647 0 11.7817647 0.79"></polygon>
            </g>
            <path id="Path-Copy" d="M22.127,6.451 L16.835,4.914 L21.4726703,9.61347211 L20.948015,10.1310683 L15.3175705,4.42383498 L14.8540416,3.95398442 L15.4972351,3.80592814 L23.3100503,2.00750156 L23.4753762,2.72571902 L17.042,4.206 L22.3883106,5.76091238 L22.4834414,5.80398201 C25.9425984,8.00804157 28.0813129,11.8212176 28.0813129,16 C28.0813129,22.6723249 22.6723249,28.0813129 16,28.0813129 C9.32767512,28.0813129 3.91868708,22.6723249 3.91868708,16 L4.65568708,16 C4.65568708,22.265291 9.73470898,27.3443129 16,27.3443129 C22.265291,27.3443129 27.3443129,22.265291 27.3443129,16 C27.3443129,12.1911281 25.4527275,8.70653999 22.3708401,6.61208053 L22.129,6.452 L22.127,6.451 Z" transform="translate(16, 16) scale(-1, 1) rotate(-60) translate(-16, -16)"></path>
        </g>
    </g>
</svg>