<?xml version="1.0" encoding="UTF-8"?>
<svg width="18px" height="21px" viewBox="0 0 18 21" version="1.1" xmlns="http://www.w3.org/2000/svg" xmlns:xlink="http://www.w3.org/1999/xlink">
    <title>Group 7 Copy 5</title>
    <g id="Moodboard" stroke="none" stroke-width="1" fill="none" fill-rule="evenodd" fill-opacity="0.8">
        <g id="Group-7-Copy" fill="#FFFFFF">
            <path d="M13.4247603,19.9578322 C13.4247603,19.999544 13.4061241,20.0296517 13.3697683,20.0478418 C13.3340236,20.066032 13.2991953,20.0625821 13.2668112,20.0368651 L6.18537384,14.3897769 C6.00878853,14.2489604 5.78759863,14.171182 5.56335363,14.171182 L1.0139907,14.171182 C0.960220783,14.171182 0.916532723,14.1260203 0.916532723,14.0708227 L0.916532723,7.09240672 C0.916532723,7.03720915 0.960220783,6.9920475 1.0139907,6.9920475 L5.35896683,6.9920475 C5.58321184,6.9920475 5.80440173,6.9142691 5.98129255,6.77313894 L13.2668112,0.963280656 C13.2991953,0.937877227 13.3328015,0.934113756 13.3697683,0.951990243 C13.4061241,0.970493975 13.4247603,1.00091537 13.4247603,1.04231355 L13.4406469,10.4183742 L13.4247603,19.9578322 Z M14.341293,1.04074543 C14.3403765,0.640249399 14.1222417,0.282406036 13.7721262,0.106777392 C13.4213997,-0.0688512529 13.0126261,-0.0255713369 12.7049766,0.219995143 L5.41915248,6.03016705 C5.40173836,6.04365282 5.3806581,6.05117976 5.35896683,6.05117976 L1.0139907,6.05117976 C0.454905741,6.05117976 0,6.51816378 0,7.09240672 L0,14.0708227 C0,14.6450657 0.454905741,15.1120497 1.0139907,15.1120497 L5.56335363,15.1120497 C5.58535041,15.1120497 5.60581964,15.119263 5.62323377,15.1327488 L12.7049766,20.7798369 C12.8873666,20.9253578 13.1051959,21 13.3257748,21 C13.4770027,21 13.6294526,20.9648743 13.7721262,20.8930547 C14.1222417,20.7177397 14.3403765,20.3598963 14.341293,19.9597139 L14.3571796,10.5798898 L14.3568741,10.5021114 L14.3571796,10.4205695 L14.341293,1.04074543 Z" id="Fill-1"></path>
            <path d="M15.7838239,16.6320215 C15.928636,16.6320215 16.0706986,16.5617701 16.1596023,16.4306758 C17.3636208,14.6615309 18,12.5837813 18,10.4226081 C18,8.26206213 17.3636208,6.18431254 16.1596023,4.41454033 C16.0154011,4.20127698 15.7285264,4.14952925 15.522001,4.29818635 C15.3142536,4.44652983 15.2635388,4.74008057 15.408351,4.9530303 C16.5042186,6.56410949 17.0834673,8.45556726 17.0834673,10.4226081 C17.0834673,12.3902761 16.5042186,14.2814203 15.408351,15.8924995 C15.2635388,16.1051356 15.3142536,16.3986863 15.522001,16.5470298 C15.6014339,16.6044227 15.6930871,16.6320215 15.7838239,16.6320215" id="Fill-3"></path>
        </g>
    </g>
</svg>