<?xml version="1.0" encoding="UTF-8"?>
<svg width="24px" height="24px" viewBox="0 0 24 24" version="1.1" xmlns="http://www.w3.org/2000/svg" xmlns:xlink="http://www.w3.org/1999/xlink">
    <title>Group 10 Copy 4</title>
    <defs>
        <polygon id="path-1" points="0 0 7.13063078 0 7.13063078 7.13065533 0 7.13065533"></polygon>
    </defs>
    <g id="Moodboard" stroke="none" stroke-width="1" fill="none" fill-rule="evenodd" opacity="0.8">
        <g id="Group-10-Copy-4">
            <g id="Group-3" transform="translate(16.7848, 0)">
                <mask id="mask-2" fill="white">
                    <use xlink:href="#path-1"></use>
                </mask>
                <g id="Clip-2"></g>
                <path d="M0.40645605,7.13065533 C0.510526143,7.13065533 0.614596237,7.0910871 0.694003887,7.01167963 L6.31758317,1.38811304 L6.31758317,5.9631216 C6.31758317,6.18779325 6.49943482,6.36964448 6.72410697,6.36964448 C6.94850811,6.36964448 7.13063078,6.18779325 7.13063078,5.9631216 L7.13063078,0.406495784 C7.13063078,0.182095151 6.94850811,-2.71015252e-05 6.72410697,-2.71015252e-05 L1.16746861,-2.71015252e-05 C0.942796455,-2.71015252e-05 0.760944806,0.182095151 0.760944806,0.406495784 C0.760944806,0.631167432 0.942796455,0.81301867 1.16746861,0.81301867 L5.7424875,0.81301867 L0.118908213,6.43658525 C-0.0396360709,6.59540019 -0.0396360709,6.85286469 0.118908213,7.01167963 C0.198315862,7.0910871 0.302385956,7.13065533 0.40645605,7.13065533" id="Fill-1" fill="#FFFFFF" mask="url(#mask-2)"></path>
            </g>
            <path d="M6.52104833,16.9885643 L0.897469051,22.6121309 L0.897469051,18.0368513 C0.897469051,17.8124507 0.715346387,17.6303284 0.490945247,17.6303284 C0.266544107,17.6303284 0.0844214432,17.8124507 0.0844214432,18.0368513 L0.0844214432,23.5934771 C0.0844214432,23.8178777 0.266544107,24 0.490945247,24 L6.04758361,24 C6.27198475,24 6.45410741,23.8178777 6.45410741,23.5934771 C6.45410741,23.3690765 6.27198475,23.1869542 6.04758361,23.1869542 L1.47229371,23.1869542 L7.09587299,17.5633876 C7.25468829,17.4045727 7.25468829,17.1473792 7.09587299,16.9885643 C6.93705769,16.8297493 6.67986363,16.8297493 6.52104833,16.9885643" id="Fill-4" fill="#FFFFFF"></path>
            <path d="M23.5934762,17.5459343 C23.3690751,17.5459343 23.1869524,17.7280565 23.1869524,17.9524571 L23.1869524,22.5277367 L17.5633731,16.9041701 C17.4045578,16.7453552 17.1473637,16.7453552 16.9885485,16.9041701 C16.8297332,17.0629851 16.8297332,17.3201786 16.9885485,17.4789935 L22.6121277,23.1025601 L18.0368378,23.1025601 C17.8124367,23.1025601 17.630314,23.2846823 17.630314,23.509083 C17.630314,23.7334836 17.8124367,23.9156058 18.0368378,23.9156058 L23.5934762,23.9156058 C23.8178773,23.9156058 24,23.7334836 24,23.509083 L24,17.9524571 C24,17.7280565 23.8178773,17.5459343 23.5934762,17.5459343" id="Fill-6" fill="#FFFFFF"></path>
            <path d="M0.406523804,6.45417414 C0.630924943,6.45417414 0.813047607,6.27205189 0.813047607,6.04765126 L0.813047607,1.4726427 L6.43662689,7.09593827 C6.51603454,7.17534574 6.62010463,7.21518498 6.72417473,7.21518498 C6.82797381,7.21518498 6.9320439,7.17534574 7.01145155,7.09593827 C7.17026685,6.93712333 7.17026685,6.67992985 7.01145155,6.52111491 L1.38760125,0.897548328 L5.96316217,0.897548328 C6.18756331,0.897548328 6.36968597,0.715426076 6.36968597,0.491025443 C6.36968597,0.26662481 6.18756331,0.0845025571 5.96316217,0.0845025571 L0.406523804,0.0845025571 C0.182122664,0.0845025571 0,0.26662481 0,0.491025443 L0,6.04765126 C0,6.27205189 0.182122664,6.45417414 0.406523804,6.45417414" id="Fill-8" fill="#FFFFFF"></path>
        </g>
    </g>
</svg>