<?xml version="1.0" encoding="UTF-8"?>
<svg width="33px" height="25px" viewBox="0 0 33 25" version="1.1" xmlns="http://www.w3.org/2000/svg" xmlns:xlink="http://www.w3.org/1999/xlink">
    <title>Group 5</title>
    <g id="Moodboard" stroke="none" stroke-width="1" fill="none" fill-rule="evenodd">
        <g id="Guia-P3---Elementos" transform="translate(-1245, -2163)" fill="#FFFFFF" fill-rule="nonzero">
            <g id="Group-4" transform="translate(1245, 2163)">
                <path d="M29.7,0.388566868 C31.30875,0.388566868 32.5875,1.59312416 32.5875,3.10853495 L32.5875,21.7597446 C32.5875,23.2751554 31.30875,24.4797127 29.7,24.4797127 L3.3,24.4797127 C1.69125,24.4797127 0.4125,23.2751554 0.4125,21.7597446 L0.4125,3.10853495 C0.4125,1.59312416 1.69125,0.388566868 3.3,0.388566868 L29.7,0.388566868 M29.7,0 L3.3,0 C1.485,0 0,1.39884073 0,3.10853495 L0,21.7597446 C0,23.4694388 1.485,24.8682796 3.3,24.8682796 L29.7,24.8682796 C31.515,24.8682796 33,23.4694388 33,21.7597446 L33,3.10853495 C33,1.39884073 31.515,0 29.7,0 L29.7,0 Z" id="Shape"></path>
                <path d="M29.8346354,14.7566084 L14.0507813,14.7566084 L14.0507813,12.3984095 L29.8346354,12.3984095 L29.8346354,14.7566084 Z M9.89713542,14.7566084 L4.08203125,14.7566084 L4.08203125,12.3984095 L9.89713542,12.3984095 L9.89713542,14.7566084 Z M19.8658854,21.0451389 L4.08203125,21.0451389 L4.08203125,18.68694 L19.8658854,18.68694 L19.8658854,21.0451389 Z M23.6041667,18.2939068 L23.6041667,21.438172 L30.25,21.438172 L30.25,18.2939068 L23.6041667,18.2939068 Z" id="Shape"></path>
            </g>
        </g>
    </g>
</svg>