<?xml version="1.0" encoding="UTF-8"?>
<svg width="150px" height="147px" viewBox="0 0 150 147" version="1.1" xmlns="http://www.w3.org/2000/svg" xmlns:xlink="http://www.w3.org/1999/xlink">
    <title>Sello_360</title>
    <g id="Moodboard" stroke="none" stroke-width="1" fill="none" fill-rule="evenodd">
        <g id="Desktop-Almudena-Lobera" transform="translate(-24712, -904)">
            <g id="Sello_360" transform="translate(24712, 904)">
                <ellipse id="Oval-Copy-7" stroke="#484848" stroke-width="0.5" fill="#FFFFFF" cx="73.8696538" cy="73.9548149" rx="73.6196538" ry="71.8229953"></ellipse>
                <ellipse id="Oval-Copy-8" fill="#FFFFFF" transform="translate(75.4593, 72.9528) rotate(-187) translate(-75.4593, -72.9528)" cx="75.4592668" cy="72.9527872" rx="66.8688018" ry="65.2901935"></ellipse>
                <g id="VISITA-EL-ESTUDIO-EN-Copy" transform="translate(8.9033, 8.6456)" fill="#212121" fill-rule="nonzero">
                    <polygon id="Path" points="33.5650545 7.97801861 30.0398926 10.0321934 33.8515484 27.3941744 35.5519206 26.4033371 31.8315563 9.62704023 32.3292263 9.33703909 45.0905938 20.8449819 46.790966 19.8541446"></polygon>
                    <polygon id="Path" points="26.7841599 34.6720774 33.6148577 28.029461 32.4436155 26.8250559 29.725101 29.4687168 20.2715034 19.7474467 22.9900179 17.1037858 21.8187757 15.8993807 14.9880779 22.5419971 16.1593201 23.7464022 18.8606288 21.1194733 28.3142264 30.8407434 25.6129178 33.4676723"></polygon>
                    <path d="M8.87649801,40.1290534 C11.8818763,41.976886 14.6700232,39.1833969 17.2838474,36.9025437 C19.4984567,34.9960534 20.8093781,34.0553063 22.3222897,34.9855077 C23.8965355,35.95342 23.5151637,37.7192545 22.2958456,39.7023954 C20.9382544,41.9104284 18.7359269,43.0637859 16.3030015,41.5679215 L15.2722378,43.244391 C17.6233841,44.6899743 21.112358,44.8348237 23.7269782,40.5823156 C25.9142085,37.024929 25.520197,34.6414889 23.3121639,33.2838976 C20.7565701,31.7126115 18.6896256,33.28729 16.1041206,35.6137285 C14.0011267,37.4761507 11.9926263,39.7347534 9.82548273,38.4023027 C8.08767892,37.3338282 8.36213112,35.558602 9.87056583,33.1052319 C11.7309686,30.0794088 13.6266249,28.737497 17.0204535,30.824165 L18.0512172,29.1476955 C14.6778334,27.0735977 11.5317245,27.195903 8.43943329,32.2253116 C5.82481312,36.4778198 6.72979919,38.8091731 8.87649801,40.1290534 Z" id="Path"></path>
                    <polygon id="Path" points="17.0649181 55.9668729 19.9919048 46.8995947 18.3931404 46.3835013 17.228244 49.992141 4.32393125 45.8265302 5.48882772 42.2178905 3.89006331 41.7017972 0.963076606 50.7690753 2.56184101 51.2851687 3.71936472 47.6993685 16.6236774 51.8649793 15.4661537 55.4507795"></polygon>
                    <polygon id="Path" points="17.2394176 56.4259836 15.5609472 56.3543089 15.3100857 62.2289552 0.0839618009 61.5787632 0 63.5449713 15.2261239 64.1951633 14.9752625 70.0698095 16.6537328 70.1414842"></polygon>
                    <path d="M3.0628724,85.2242749 L18.5447632,76.4905379 L17.7257149,72.4935941 L0.0564834004,70.55314 L0.45155375,72.4810776 L7.36468754,73.2203348 L8.73297997,79.8975821 L2.66780205,83.2963373 L3.0628724,85.2242749 Z M17.5366609,74.3207412 L17.6522912,74.8850156 L10.2679679,79.019564 L9.12130035,73.4238426 L17.5366609,74.3207412 Z" id="Shape"></path>
                    <polygon id="Path" points="16.0524619 107.361886 17.4156266 106.379959 12.43585 99.4667664 17.2653476 95.9879366 21.5437472 101.92744 22.9069118 100.945512 18.6285122 95.0060088 23.4385361 91.5412065 28.4183126 98.4543986 29.7814773 97.4724708 23.6514424 88.9624287 9.92242711 98.8518442"></polygon>
                    <path d="M27.8356094,117.724123 L28.9291537,116.448756 L22.3050009,111.085119 L32.3812308,99.333524 L30.8872296,98.0525149 L20.654779,109.986305 C20.0611407,110.678647 20.1026628,111.441382 20.8288465,112.032423 L27.8356094,117.724123 Z" id="Path"></path>
                    <polygon id="Path" points="51.3864071 128.054158 51.9246885 126.462727 43.8538592 123.732871 45.7609136 118.094658 52.6950064 120.440027 53.2332879 118.848596 46.2991951 116.503227 48.1985597 110.887748 56.269389 113.617604 56.8076705 112.026173 46.8725933 108.665759 41.4513298 124.693744"></polygon>
                    <path d="M70.0310118,125.358313 C70.2828415,121.839312 66.5177356,120.655538 63.2878484,119.389759 C60.5743356,118.305301 59.1346726,117.576679 59.261444,115.80521 C59.3933548,113.961923 61.1358364,113.485086 63.4578981,113.651259 C66.0432863,113.836277 68.083042,115.257501 67.8791798,118.106216 L69.8421598,118.246692 C70.0391695,115.493732 68.5570833,112.331875 63.577817,111.975545 C59.4124693,111.677461 57.4800556,113.127222 57.2950378,115.712611 C57.0808968,118.704958 59.4319017,119.811596 62.6891539,121.031211 C65.3120509,122.037 68.2427708,122.776081 68.0611793,125.313592 C67.9155634,127.348388 66.2141069,127.924407 63.3414533,127.718831 C59.7985138,127.465289 57.7330613,126.403147 58.0174404,122.429309 L56.0544605,122.288833 C55.7717944,126.238731 57.3325945,128.973117 63.2215344,129.394546 C68.2008006,129.750877 69.8511334,127.871885 70.0310118,125.358313 Z" id="Path"></path>
                    <polygon id="Path" points="69.6051431 112.549608 69.8910626 114.205099 75.6852807 113.204381 78.2789789 128.222048 80.2182682 127.887114 77.62457 112.869447 83.4187881 111.868728 83.1328686 110.213238"></polygon>
                    <path d="M87.740623,119.482307 C89.5284469,123.309298 92.3953749,124.512994 96.5702744,122.562641 C100.766918,120.602129 101.683493,117.630925 99.8956688,113.803934 L95.3956347,104.171223 L93.6126047,105.004187 L97.9805837,114.354222 C99.4331906,117.463652 99.0556155,119.547302 95.8592081,121.040542 C92.6628007,122.533781 90.8442047,121.476098 89.3915978,118.366668 L85.0236188,109.016633 L83.2405888,109.849596 L87.740623,119.482307 Z" id="Path"></path>
                    <path d="M99.8150124,99.9196515 L95.7556381,103.444259 L106.84871,116.220414 L110.908084,112.695807 C114.006982,110.005147 116.534215,106.253416 111.75082,100.744265 C106.983159,95.2532362 102.91391,97.2289915 99.8150124,99.9196515 Z M107.233291,113.661602 L98.3430988,103.422555 L100.916452,101.188206 C103.181728,99.2213492 106.173737,97.3227491 110.264799,102.034523 C114.371596,106.764419 112.07192,109.460396 109.806645,111.427253 L107.233291,113.661602 Z" id="Shape"></path>
                    <polygon id="Path" points="111.16876 86.6018221 105.623561 94.3499541 106.98973 95.3276971 109.196636 92.2440576 120.223574 100.13584 118.016669 103.219479 119.382838 104.197222 124.928037 96.4490903 123.561868 95.4713473 121.36893 98.5354701 110.341992 90.6436878 112.53493 87.5795651"></polygon>
                    <path d="M118.439799,90.1698057 C123.044991,91.9685111 127.620026,90.6120222 129.436195,85.9621195 C131.2349,81.3569273 128.790371,77.2587225 124.185178,75.4600171 C119.602341,73.6700433 115.027306,75.0265321 113.228601,79.6317243 C111.412432,84.2816271 113.856962,88.3798319 118.439799,90.1698057 Z M119.155789,88.3366709 C115.400098,86.8697656 113.335298,83.9762702 114.793472,80.2429348 C116.242914,76.5319548 119.713498,75.8262465 123.469189,77.2931518 C127.247235,78.7687888 129.320766,81.6399288 127.871324,85.3509089 C126.41315,89.0842443 122.933835,89.8123079 119.155789,88.3366709 Z" id="Shape"></path>
                    <polygon id="Path" points="132.445676 52.1348488 130.771406 52.2734849 131.474489 60.7644256 125.54279 61.2555937 124.938732 53.9605602 123.264462 54.0991963 123.86852 61.3942299 117.960739 61.8834175 117.257655 53.3924768 115.583385 53.5311129 116.448871 63.9833413 133.311162 62.5870772"></polygon>
                    <polygon id="Path" points="130.238332 45.3330315 116.237571 50.5809841 115.021164 51.370132 114.82742 50.85325 127.197383 37.2202312 125.799052 33.4896915 109.955495 39.4283859 110.646237 41.2711826 124.646997 36.02323 125.863404 35.2340822 126.057149 35.7509642 113.687185 49.3839829 115.085516 53.1145226 130.929073 47.1758282"></polygon>
                    <path d="M111.825244,25.4941831 C115.004161,22.0595233 114.453654,18.8030446 111.265585,15.8523576 C108.28888,13.0972963 105.327715,12.9400708 103.273646,15.1593893 C101.513015,17.0616624 101.863595,18.6615141 103.155385,20.445752 L102.780435,20.8508657 C100.966978,19.6302643 99.4231543,19.6729797 98.0211704,21.1877527 C96.2605395,23.0900258 96.46983,25.8671851 99.4465351,28.6222464 C102.634604,31.5729333 105.747734,31.7072992 108.307169,28.9419578 L106.862851,27.6051825 C105.004407,29.6131374 103.088822,29.7041952 100.587685,27.3892916 C98.3331389,25.3026179 98.422152,23.651801 99.6611145,22.3131644 C100.883775,20.9921414 102.160207,21.0616653 103.657366,22.447347 L105.383503,24.0449565 L106.540955,22.7943881 L104.814818,21.1967786 C103.317659,19.8110969 103.00624,18.3455968 104.522339,16.7075283 C106.05474,15.0518462 107.86989,14.9986387 110.124435,17.0853124 C112.625572,19.400216 112.858851,21.4801345 110.380926,24.1574078 L111.825244,25.4941831 Z" id="Path"></path>
                    <path d="M98.5108919,16.2354328 C100.993654,11.3860412 99.7941884,7.72517742 96.1838484,5.87677778 C92.4453307,3.96275449 88.9563938,5.1423914 87.2829906,8.41092405 C85.6642737,11.5726419 86.5130406,14.8652194 89.888388,16.593309 C92.5587578,17.9604685 95.5033889,17.5806636 97.0462502,15.6203873 L97.5375983,15.8719447 L96.4228255,16.838076 C94.4857107,19.6210819 91.8784764,21.7644161 88.4431328,19.5742091 L84.3038348,16.9157457 L83.5382255,18.4111528 L87.6775235,21.0696162 C92.2753577,24.0437259 96.0062557,21.1275502 98.5108919,16.2354328 Z M97.7106723,13.4799987 C96.3981992,16.0435538 93.570297,16.5640085 90.8999272,15.196849 C88.400461,13.9171877 87.8207155,11.6790691 89.0347532,9.30778067 C90.3800381,6.68013678 92.7051434,5.98315083 95.4182391,7.37218488 C98.1526978,8.7721562 98.6950271,11.5573325 97.7106723,13.4799987 Z" id="Shape"></path>
                    <path d="M74.8870654,17.2289783 C79.5502548,18.1434012 82.6918914,14.9686093 83.647879,10.0934569 C84.6084849,5.19475291 82.8985205,1.06859176 78.2353312,0.154168853 C73.6192447,-0.751017463 70.4540567,2.41915609 69.4934508,7.31786003 C68.5374632,12.1930125 70.270979,16.323792 74.8870654,17.2289783 Z M75.2103463,15.580376 C73.7737071,15.2986598 72.7637727,14.5870192 72.0867971,13.5493564 L81.7527413,5.53967106 C82.030262,6.74357398 82.0214668,8.16036001 81.7166592,9.71475645 C80.9315486,13.7185049 78.6724111,16.2592657 75.2103463,15.580376 Z M77.9120503,1.80277114 C79.3486895,2.08448729 80.4057268,2.80536456 81.059151,3.83840904 L71.3885885,11.8716458 C71.1110678,10.6677429 71.1244813,9.22740541 71.4246706,7.69656043 C72.2143995,3.66926056 74.473537,1.1284997 77.9120503,1.80277114 Z" id="Shape"></path>
                    <path d="M60.8007845,7.40753497 C57.8068519,7.59823886 55.9607644,9.95235205 56.1346864,12.6828185 C56.3086083,15.413285 58.4384632,17.5141434 61.4323958,17.3234395 C64.4023768,17.1342613 66.2484643,14.7801481 66.0745424,12.0496816 C65.9006204,9.31921514 63.7707655,7.21835672 60.8007845,7.40753497 Z M60.9030018,9.01228281 C62.8670215,8.88718106 64.3538466,10.3315879 64.4697946,12.1518989 C64.5857425,13.9722099 63.2941982,15.5935899 61.3301785,15.7186917 C59.3422073,15.8453191 57.8553822,14.4009122 57.7394342,12.5806012 C57.6234862,10.7602903 58.9150306,9.1389102 60.9030018,9.01228281 Z" id="Shape"></path>
                </g>
                <ellipse id="Oval-Copy-9" stroke="#494949" stroke-width="0.5" fill="#FFFFFF" cx="73.8696538" cy="73.9548149" rx="42.4302444" ry="41.3921751"></ellipse>
            </g>
        </g>
    </g>
</svg>