<?xml version="1.0" encoding="UTF-8"?>
<svg width="43px" height="35px" viewBox="0 0 43 35" version="1.1" xmlns="http://www.w3.org/2000/svg" xmlns:xlink="http://www.w3.org/1999/xlink">
    <title>Combined Shape 3</title>
    <g id="Moodboard" stroke="none" stroke-width="1" fill="none" fill-rule="evenodd">
        <g id="03_Créditos" transform="translate(-1850, -1015)" fill="#FFFFFF" fill-rule="nonzero">
            <g id="Combined-Shape-2" transform="translate(1850, 1015)">
                <path d="M17.5080664,21.4772727 L17.5080664,26.3692768 C18.1380921,25.4244681 19.2182047,24.8767547 20.355687,24.9252794 C22.9013576,24.9252794 24.6851852,27.0172243 24.6851852,29.9700139 C24.6851852,32.9181753 22.8827761,34.9962356 20.355687,34.9962356 C19.2156636,35.0512614 18.1318386,34.499904 17.5080664,33.54761 L17.5080664,34.8064796 L15.1296296,34.8064796 L15.1296296,21.4772727 L17.5080664,21.4772727 Z M11.1551128,26.1437208 L11.1551128,24.9659022 L13.537037,24.9659022 L13.537037,34.8016377 L11.1551128,34.8016377 L11.1551128,33.5098366 C10.532497,34.4855346 9.45136604,35.051106 8.31351906,34.9963578 C5.78301479,34.9963578 3.98148148,32.8686854 3.98148148,29.8386519 C3.98148148,26.8086184 5.76444228,24.661949 8.31351906,24.661949 C9.44882467,24.6138441 10.5262631,25.1756831 11.1551128,26.1437208 Z M3.18518519,22.2727273 L3.18518519,35 L0.796296296,35 L0.796296296,22.2727273 L3.18518519,22.2727273 Z M19.9097301,27.0172243 C18.4975333,27.0172243 17.5080664,28.2390683 17.5080664,29.9700139 C17.5080664,31.7009595 18.4743063,32.8996625 19.9097301,32.8996625 C21.3451539,32.8996625 22.3067484,31.7009595 22.3067484,29.9700139 C22.3067484,28.2390683 21.3219269,27.0172243 19.9097301,27.0172243 Z M8.75925926,26.8086184 C7.3431055,26.8086184 6.35876255,28.0624254 6.35876255,29.8386519 C6.35876255,31.6148784 7.36632113,32.844939 8.75925926,32.844939 C10.1986287,32.844939 11.1551128,31.6148784 11.1551128,29.8386519 C11.1551128,28.0624254 10.175413,26.8086184 8.75925926,26.8086184 Z M36.6230487,3.97727273 C40.4447444,3.97727273 43,6.89699908 43,11.2496373 C43,13.4237105 42.4361433,14.0840178 40.5566208,14.0840178 L33.5173615,14.0840178 C33.1772574,14.0840178 33.0385308,14.2457257 33.0385308,14.5332065 C33.0385308,17.367587 34.8643526,19.1149309 37.8671136,19.1149309 C38.9515517,19.1122207 40.0217265,18.8666891 40.9996511,18.396229 C41.2640721,18.2696804 41.549077,18.1920744 41.8409611,18.1671428 C42.2884665,18.1671428 42.6330456,18.5983639 42.6375207,19.2362119 C42.6375207,20.9566045 40.328393,22.2727273 37.2674564,22.2727273 C32.2732966,22.2727273 29.462963,18.9487311 29.462963,13.1946242 C29.462963,7.44051738 32.1479951,3.97727273 36.6230487,3.97727273 Z M27.7454927,3.97727273 C28.8762059,3.97727273 29.4723141,4.4108804 29.462963,5.22332425 C29.457,5.44392576 29.4055287,5.66117686 29.3114595,5.86232504 L25.36106,16.2917307 C24.7696828,17.8892326 24.29185,18.2954545 23.0996337,18.2954545 C21.9074173,18.2954545 21.4295845,17.8892326 20.8334763,16.2917307 L16.8736148,5.86232504 C16.7761481,5.66229287 16.7245116,5.44434456 16.7222222,5.22332425 C16.7222222,4.4108804 17.3183304,3.97727273 18.4537746,3.97727273 C19.6743771,3.97727273 20.0907066,4.38349465 20.6868148,6.06771814 L22.6833041,11.6726679 C22.7731935,11.9054467 22.8914689,12.0241183 23.0996337,12.0241183 C23.2996158,12.0139182 23.4621678,11.8648392 23.4828461,11.6726679 L25.4793354,6.06771814 C26.0754436,4.38349465 26.5248902,3.97727273 27.7454927,3.97727273 Z M11.3113471,0 C12.5272327,0 13.080307,0.449078413 13.080307,1.42806935 L13.080307,3.47137613 C13.080307,3.89800062 13.2163809,4.04170572 13.6333813,4.04170572 L14.5727298,4.04170572 C15.5120783,4.04170572 15.9554156,4.63448922 15.9554156,5.77514839 C15.9554156,6.91580756 15.5120783,7.45919244 14.5727298,7.45919244 L13.6333813,7.45919244 C13.2471072,7.45919244 13.080307,7.63433302 13.080307,8.02952202 L13.080307,12.3182209 C13.080307,14.2627304 13.6904446,15.2057951 14.9326671,15.2057951 C15.2355411,15.2057951 15.5428046,15.1788504 16.3724161,15.0935255 C16.4619363,15.0658127 16.5556704,15.0551574 16.6489533,15.06209 C17.2547013,15.06209 17.5312385,15.3764449 17.5180701,16.1264058 C17.5180701,17.5275305 16.3285213,18.2954545 14.225961,18.2954545 C11.1313784,18.2954545 9.55555556,16.2117307 9.55555556,12.1251172 L9.55555556,1.42806935 C9.55555556,0.449078413 10.0954614,0 11.3113471,0 Z M6.85381694,3.97872328 C7.59623832,3.97872328 7.96744902,4.38490405 7.96296296,5.16988262 C7.96296296,7.00454184 7.63698096,7.67542469 6.73158903,7.67542469 C4.56317535,7.67542469 3.5355555,8.86658403 3.62156773,11.2808495 L3.62156773,16.8989229 C3.62156773,17.8390717 3.05117082,18.2954545 1.81078387,18.2954545 C0.570396918,18.2954545 0,17.8116887 0,16.8989229 L0,5.4345847 C0,4.41228702 0.484384684,3.97872328 1.570855,3.97872328 C2.57131309,3.97872328 2.91083507,4.21147855 3.14171001,5.08316987 C3.19603353,5.25659537 3.28204576,5.34330812 3.36805799,5.34330812 C3.45407023,5.34330812 3.5129207,5.31592514 3.71210693,5.11055284 C4.58371542,4.35326348 5.70353912,3.94983682 6.85381694,3.97872328 Z M36.5156474,6.71283173 C34.5063483,6.71283173 33.1548822,8.42873245 33.1593461,10.8723188 C33.1593461,11.1283564 33.3249342,11.2720967 33.6068626,11.2720967 L39.2275298,11.2720967 C39.5631589,11.2720967 39.6750352,11.1283564 39.6750352,10.7555298 C39.6750352,8.14574359 38.5473217,6.71283173 36.5156474,6.71283173 Z" id="Combined-Shape"></path>
            </g>
        </g>
    </g>
</svg>