<?xml version="1.0" encoding="UTF-8"?>
<svg width="64px" height="64px" viewBox="0 0 64 64" version="1.1" xmlns="http://www.w3.org/2000/svg" xmlns:xlink="http://www.w3.org/1999/xlink">
    <title>Group 10</title>
    <defs>
        <filter x="0.0%" y="0.0%" width="100.0%" height="100.0%" filterUnits="objectBoundingBox" id="filter-1">
            <feGaussianBlur stdDeviation="0" in="SourceGraphic"></feGaussianBlur>
        </filter>
    </defs>
    <g id="Elementos" stroke="none" stroke-width="1" fill="none" fill-rule="evenodd">
        <g id="Group-10">
            <g id="Boton-volumen-Copy-2">
                <g id="Circunferencias" opacity="0.731300717" stroke="#FFFFFF">
                    <circle id="Oval" stroke-width="0.35" filter="url(#filter-1)" cx="32" cy="32" r="31.825"></circle>
                    <circle id="Oval" stroke-width="0.7" cx="32.0661576" cy="32.0661576" r="24.8590147"></circle>
                </g>
                <g id="Volumen" transform="translate(19.6292, 21.7448)" fill="#FFFFFF">
                    <path d="M11.5839318,0.0472222695 C11.1232745,0.141738267 10.6889188,0.377100183 10.3498817,0.736205565 C9.01677235,2.14725044 7.46526378,3.78823654 6.52442566,4.78354032 C6.14010438,5.1903054 5.64045426,5.4115107 5.12137086,5.41841817 C4.05812824,5.42359692 3.24348033,5.44174566 2.56340527,5.53746123 C1.88151847,5.63343629 1.27851857,5.8149698 0.811704949,6.26612554 C0.344891326,6.71729052 0.153082215,7.33761466 0.0740691192,7.95974878 C-0.00494217354,8.58190137 6.37089138e-05,9.27586211 6.37089138e-05,10.1548101 C6.37089138e-05,11.033481 -0.0049538912,11.7278296 0.0740691192,12.3498714 C0.153089426,12.9718762 0.344927381,13.5924774 0.811704949,14.0434946 C1.27848252,14.4945211 1.88152748,14.6760177 2.56340527,14.772159 C3.24334513,14.8680417 4.05812824,14.8855597 5.12137086,14.891202 C5.63930954,14.898128 6.14017649,15.1193148 6.52442566,15.5260799 C7.46580459,16.5210143 9.01677235,18.1623697 10.3498817,19.5734146 C11.0280189,20.2916254 12.0846365,20.5125721 12.9765308,20.1072846 C12.9771317,20.1072852 12.9777327,20.1072852 12.9783336,20.1072846 C13.8704082,19.7003994 14.4218594,18.7779658 14.4218594,17.782385 L14.4218594,2.52684737 C14.4218594,1.53126656 13.8703992,0.608823673 12.9782434,0.201947773 C12.9776425,0.201947158 12.9770416,0.201947158 12.9764407,0.201947773 C12.5305386,-0.000696001954 12.0446162,-0.0476815802 11.5839318,0.0468344169 L11.5839318,0.0472222695 Z M12.2458715,1.89053816 C12.4545901,1.98643935 12.6190881,2.23057412 12.6190881,2.52721676 L12.6190881,17.7827543 C12.6190881,18.0794062 12.4545901,18.3235317 12.2458715,18.4194329 C12.0363057,18.51466 11.8218995,18.4763457 11.6455487,18.2895762 C10.3124393,16.8785313 8.76075045,15.236437 7.81828989,14.2403945 C7.11196726,13.4928362 6.15131728,13.057998 5.14413917,13.0446078 C5.14179265,13.0445985 5.13944609,13.0445985 5.13709956,13.0446078 C4.08872937,13.0391179 3.31815789,13.0134947 2.80979164,12.9417992 C2.30142539,12.8701037 2.11147307,12.7602195 2.04927032,12.7001116 C1.98706395,12.6400046 1.91412962,12.5310909 1.86090439,12.112127 C1.80767827,11.693163 1.80280913,11.0338966 1.80280913,10.1552256 C1.80280913,9.27632384 1.80766745,8.61748223 1.86090439,8.19832433 C1.91413953,7.77913873 1.98710361,7.67042917 2.04927032,7.61033972 C2.11144333,7.55025026 2.30147045,7.43839171 2.80979164,7.36685136 C3.31812184,7.29530178 4.08872937,7.27088554 5.13709956,7.26584345 C5.13944609,7.26585284 5.14179265,7.26585284 5.14413917,7.26584345 C6.15194823,7.25243483 7.11369787,6.8175966 7.82000247,6.07005679 C8.76120113,5.07438363 10.3123492,3.43192 11.6454585,2.02087512 C11.8218093,1.8341056 12.0362065,1.79578207 12.2457814,1.89101836 L12.2458715,1.89053816 Z" id="Shape"></path>
                </g>
            </g>
            <g id="Group-9" transform="translate(37.1364, 27.8182)" stroke="#FFFFFF" stroke-linecap="round" stroke-width="2">
                <line x1="0.727272727" y1="0.363636364" x2="8.18181818" y2="8.18181818" id="Line-2"></line>
                <line x1="0.181818182" y1="0.181818182" x2="7.13636364" y2="8.18181818" id="Line-2" transform="translate(4, 4.5) scale(-1, 1) translate(-4, -4.5)"></line>
            </g>
        </g>
    </g>
</svg>