<?xml version="1.0" encoding="UTF-8"?>
<svg width="64px" height="64px" viewBox="0 0 64 64" version="1.1" xmlns="http://www.w3.org/2000/svg" xmlns:xlink="http://www.w3.org/1999/xlink">
    <title>Boton volumen Copy 2</title>
    <defs>
        <filter x="0.0%" y="0.0%" width="100.0%" height="100.0%" filterUnits="objectBoundingBox" id="filter-1">
            <feGaussianBlur stdDeviation="0" in="SourceGraphic"></feGaussianBlur>
        </filter>
    </defs>
    <g id="Guia-de-estilo" stroke="none" stroke-width="1" fill="none" fill-rule="evenodd">
        <g id="Guia-P3---Elementos" transform="translate(-684, -5530)">
            <g id="Boton-volumen-Copy-2" transform="translate(684, 5530)">
                <!-- <g id="Circunferencias" opacity="0.731300717" stroke="#FFFFFF">
                    <circle id="Oval" stroke-width="0.35" filter="url(#filter-1)" cx="32" cy="32" r="31.825"></circle>
                    <circle id="Oval" stroke-width="0.7" cx="32.0661576" cy="32.0661576" r="24.8590147"></circle>
                </g> -->
                <g id="Volumen" transform="translate(19.6292, 21.7323)" fill="#FFFFFF">
                    <path d="M20.2324676,0 C19.8652826,0.0152584191 19.5438183,0.257226028 19.419976,0.611694734 C19.2961337,0.966163439 19.3947076,1.36216607 19.6691185,1.61257986 C22.0908888,3.89657024 23.4347243,6.96900965 23.4347243,10.1672241 C23.4347243,13.3654386 22.0908888,16.437878 19.6691185,18.7218684 C19.4294875,18.9448409 19.3248416,19.2822657 19.3949059,19.6060518 C19.4649701,19.9298379 19.6990014,20.1903384 20.0081582,20.2886636 C20.317315,20.3869889 20.6541935,20.3080625 20.8909101,20.081846 C23.6627681,17.4678115 25.2375317,13.8968891 25.2375317,10.1675935 C25.2375317,6.43829794 23.6627681,2.86709849 20.8909101,0.253341011 C20.71384,0.0813454484 20.4762782,-0.00976247149 20.2324947,0.000830466461 L20.2324676,0 Z" id="Path"></path>
                    <path d="M17.1848286,5.18486775 C17.0432176,5.53211014 17.1214226,5.93265479 17.3825159,6.19736757 C18.3699543,7.22877858 18.9281657,8.63188172 18.9281657,10.0968566 C18.9281657,11.5628473 18.3699363,12.9649346 17.3825159,13.9963456 C17.1570344,14.2321889 17.0714907,14.5733595 17.1581083,14.8913417 C17.2447258,15.2093239 17.4903454,15.4558086 17.8024445,15.5379475 C18.1145436,15.6200863 18.4457068,15.5254005 18.6711883,15.2895572 C19.9930307,13.9088941 20.730973,12.0422147 20.730973,10.0969489 C20.730973,8.15242196 19.9930488,6.28315688 18.6711883,4.90249379 C18.5028033,4.72223294 18.270392,4.61944312 18.0268611,4.61746072 C17.6595404,4.61314401 17.3264397,4.83762535 17.1848286,5.18486775 Z" id="Path"></path>
                    <path d="M11.5839318,0.0596917234 C11.1232745,0.154207721 10.6889188,0.389569637 10.3498817,0.748675018 C9.01677235,2.1597199 7.46526378,3.80070599 6.52442566,4.79600977 C6.14010438,5.20277486 5.64045426,5.42398015 5.12137086,5.43088762 C4.05812824,5.43606638 3.24348033,5.45421511 2.56340527,5.54993068 C1.88151847,5.64590574 1.27851857,5.82743925 0.811704949,6.278595 C0.344891326,6.72975997 0.153082215,7.35008412 0.0740691192,7.97221824 C-0.00494217354,8.59437083 6.37089138e-05,9.28833156 6.37089138e-05,10.1672795 C6.37089138e-05,11.0459505 -0.0049538912,11.7402991 0.0740691192,12.3623409 C0.153089426,12.9843457 0.344927381,13.6049469 0.811704949,14.0559641 C1.27848252,14.5069906 1.88152748,14.6884871 2.56340527,14.7846284 C3.24334513,14.8805111 4.05812824,14.8980291 5.12137086,14.9036715 C5.63930954,14.9105974 6.14017649,15.1317842 6.52442566,15.5385493 C7.46580459,16.5334837 9.01677235,18.1748392 10.3498817,19.5858841 C11.0280189,20.3040948 12.0846365,20.5250416 12.9765308,20.119754 C12.9771317,20.1197546 12.9777327,20.1197546 12.9783336,20.119754 C13.8704082,19.7128689 14.4218594,18.7904352 14.4218594,17.7948544 L14.4218594,2.53931683 C14.4218594,1.54373601 13.8703992,0.621293127 12.9782434,0.214417227 C12.9776425,0.214416612 12.9770416,0.214416612 12.9764407,0.214417227 C12.5305386,0.011773452 12.0446162,-0.0352121263 11.5839318,0.0593038708 L11.5839318,0.0596917234 Z M12.2458715,1.90300762 C12.4545901,1.9989088 12.6190881,2.24304358 12.6190881,2.53968621 L12.6190881,17.7952238 C12.6190881,18.0918757 12.4545901,18.3360012 12.2458715,18.4319024 C12.0363057,18.5271294 11.8218995,18.4888151 11.6455487,18.3020456 C10.3124393,16.8910007 8.76075045,15.2489065 7.81828989,14.252864 C7.11196726,13.5053057 6.15131728,13.0704674 5.14413917,13.0570773 C5.14179265,13.0570679 5.13944609,13.0570679 5.13709956,13.0570773 C4.08872937,13.0515873 3.31815789,13.0259641 2.80979164,12.9542686 C2.30142539,12.8825732 2.11147307,12.772689 2.04927032,12.712581 C1.98706395,12.652474 1.91412962,12.5435604 1.86090439,12.1245964 C1.80767827,11.7056324 1.80280913,11.046366 1.80280913,10.1676951 C1.80280913,9.28879329 1.80766745,8.62995169 1.86090439,8.21079379 C1.91413953,7.79160818 1.98710361,7.68289863 2.04927032,7.62280917 C2.11144333,7.56271971 2.30147045,7.45086116 2.80979164,7.37932082 C3.31812184,7.30777124 4.08872937,7.28335499 5.13709956,7.27831291 C5.13944609,7.27832229 5.14179265,7.27832229 5.14413917,7.27831291 C6.15194823,7.26490429 7.11369787,6.83006606 7.82000247,6.08252625 C8.76120113,5.08685309 10.3123492,3.44438946 11.6454585,2.03334458 C11.8218093,1.84657506 12.0362065,1.80825152 12.2457814,1.90348782 L12.2458715,1.90300762 Z" id="Shape"></path>
                </g>
            </g>
        </g>
    </g>
</svg>