<?xml version="1.0" encoding="UTF-8"?>
<svg width="201px" height="113px" viewBox="0 0 201 113" version="1.1" xmlns="http://www.w3.org/2000/svg" xmlns:xlink="http://www.w3.org/1999/xlink">
    <title>Path 5</title>
    <g id="Moodboard" stroke="none" stroke-width="1" fill="none" fill-rule="evenodd">
        <g id="Desktop-Mit-Borras" transform="translate(-3972, -387)" stroke="#979797">
            <path d="M4036.87787,432.896453 C4019.55785,431.874798 4011.98862,428.753277 3997.45063,434.239471 C3988.29427,437.694798 3967.42507,463.212979 3982.05488,470.398894 C3991.37535,474.976955 4016.35738,469.478111 4023.67817,467.469451 C4033.29236,464.831533 4042.69223,461.387845 4051.89619,457.556609 C4057.96127,455.031959 4104.31655,432.197588 4093.83124,418.522796 C4090.70772,414.449141 4084.86338,414.896454 4080.47797,415.163543 C4058.341,416.511773 4051.16405,436.535003 4043.15644,454.673186 C4041.63113,458.128189 4036.02587,464.333843 4039.63618,465.442596 L4040.81537,467.137176 C4078.28528,478.644483 4131.73521,468.459572 4168.07538,465.917815" id="Path-5" transform="translate(4072.5377, 443.7531) scale(1, -1) rotate(-17) translate(-4072.5377, -443.7531)"></path>
        </g>
    </g>
</svg>