<?xml version="1.0" encoding="UTF-8"?>
<svg width="458px" height="137px" viewBox="0 0 458 137" version="1.1" xmlns="http://www.w3.org/2000/svg" xmlns:xlink="http://www.w3.org/1999/xlink">
    <title>Path 3 Copy 2</title>
    <g id="Moodboard" stroke="none" stroke-width="1" fill="none" fill-rule="evenodd">
        <g id="Desktop-Mit-Borras" transform="translate(-15501, -785)" stroke="#979797">
            <path d="M15797.4828,786.338017 C15753.7071,809.366114 15708.8886,830.512471 15666.1557,855.422304 C15663.9906,856.684364 15670.3499,858.295922 15672.7387,859.053658 C15677.3939,860.530344 15682.2233,861.532224 15687.0786,862.059258 C15695.3046,862.952171 15703.5971,863.421382 15711.8705,863.301323 C15723.3359,863.134944 15734.7947,862.32408 15746.2062,861.201237 C15758.2337,860.01779 15770.3985,859.242938 15782.1417,856.386946 C15805.5874,850.684865 15829.8556,846.304011 15851.4798,835.598324 C15857.548,832.594073 15860.3777,824.259719 15860.6964,817.496059 C15860.8321,814.614807 15855.2922,815.382918 15852.4572,814.850996 C15849.1612,814.232583 15845.7802,814.009099 15842.4273,814.068268 C15828.865,814.307601 15815.3021,814.830158 15801.7685,815.745495 C15749.3045,819.293884 15656.3881,815.863591 15648.7299,889.667652 C15647.9736,896.956505 15657.892,905.190486 15663.0801,907.955692 C15683.5906,918.887667 15713.5287,920.040832 15735.5919,920.375774 C15789.1331,921.188583 15845.135,921.881898 15897.8377,909.253548 C15918.9241,904.200937 15941.0603,899.332836 15957.7578,884.246014 C15959.6738,882.514842 15953.8768,876.1281 15953.0567,875.746201 C15949.3994,874.043119 15945.4467,872.761115 15941.43,872.384117 C15911.8924,869.611767 15882.2077,868.683891 15852.6345,866.320751 C15803.6532,862.406745 15754.7796,857.179364 15705.7762,853.553436 C15690.1608,852.398006 15674.4862,851.88252 15658.8284,851.980398 C15644.1773,852.071984 15629.5157,852.774779 15614.9263,854.121349 C15602.0234,855.312257 15589.1215,856.92882 15576.4389,859.584759 C15563.3862,862.318204 15550.4465,865.789798 15537.8807,870.255898 C15531.3178,872.588431 15525.224,876.162644 15519.3344,879.880665 C15514.2092,883.116079 15509.3999,886.892583 15504.9716,891.030834 C15503.481,892.423883 15502.8575,894.521028 15501.8005,896.266125" id="Path-3-Copy-2"></path>
        </g>
    </g>
</svg>