<?xml version="1.0" encoding="UTF-8"?>
<svg width="428px" height="412px" viewBox="0 0 428 412" version="1.1" xmlns="http://www.w3.org/2000/svg" xmlns:xlink="http://www.w3.org/1999/xlink">
    <title>Path 3 Copy 2</title>
    <g id="Moodboard" stroke="none" stroke-width="1" fill="none" fill-rule="evenodd">
        <g id="Desktop-Mit-Borras" transform="translate(-24370, -269)" stroke="#979797">
            <path d="M24651.6823,408 C24607.9066,431.028097 24563.0882,452.174453 24520.3552,477.084287 C24518.1901,478.346346 24524.5494,479.957904 24526.9382,480.71564 C24531.5934,482.192327 24536.4228,483.194207 24541.2781,483.72124 C24549.5041,484.614154 24557.7966,485.083364 24566.07,484.963305 C24577.5355,484.796927 24588.9942,483.986062 24600.4057,482.863219 C24612.4332,481.679773 24624.598,480.904921 24636.3412,478.048928 C24659.7869,472.346848 24684.0552,467.965994 24705.6793,457.260306 C24711.7475,454.256055 24714.5772,445.921702 24714.8959,439.158042 C24715.0316,436.27679 24709.4917,437.0449 24706.6567,436.512979 C24703.3608,435.894566 24699.9798,435.671081 24696.6268,435.73025 C24683.0645,435.969584 24669.5016,436.492141 24655.9681,437.407477 C24603.5041,440.955866 24510.5876,437.525574 24502.9294,511.329635 C24502.1731,518.618488 24512.0915,526.852468 24517.2796,529.617675 C24537.7901,540.54965 24567.7282,541.702815 24589.7914,542.037757 C24643.3326,542.850566 24699.3345,543.54388 24752.0372,530.91553 C24773.1236,525.86292 24795.2598,520.994818 24811.9573,505.907996 C24813.8733,504.176824 24808.0763,497.790082 24807.2562,497.408183 C24803.599,495.705102 24799.6462,494.423097 24795.6296,494.0461 C24766.0919,491.27375 24736.4072,490.345874 24706.834,487.982734 C24657.8527,484.068727 24608.9791,478.841347 24559.9757,475.215419 C24544.3603,474.059988 24528.6857,473.544503 24513.028,473.642381 C24498.3768,473.733967 24483.7152,474.436762 24469.1258,475.783332 C24456.2229,476.974239 24443.321,478.590802 24430.6384,481.246741 C24417.5857,483.980187 24404.646,487.45178 24392.0802,491.91788 C24385.5174,494.250414 24379.4235,497.824627 24373.5339,501.542647 C24368.4087,504.778062 24363.5994,508.554565 24359.1712,512.692817 C24357.6805,514.085865 24357.0571,516.18301 24356,517.928107" id="Path-3-Copy-2" transform="translate(24584.1717, 475.2099) scale(1, -1) rotate(-43) translate(-24584.1717, -475.2099)"></path>
        </g>
    </g>
</svg>