<?xml version="1.0" encoding="UTF-8"?>
<svg width="382px" height="189px" viewBox="0 0 382 189" version="1.1" xmlns="http://www.w3.org/2000/svg" xmlns:xlink="http://www.w3.org/1999/xlink">
    <title>Path 29</title>
    <g id="Moodboard" stroke="none" stroke-width="1" fill="none" fill-rule="evenodd">
        <g id="Desktop-Paloma-Polo" transform="translate(-50992, -755)" stroke="#979797">
            <path d="M50992.317,942.609327 C51080.773,896.429539 51170.6254,852.831129 51257.6851,804.069973 C51260.379,802.561173 51253.4649,799.469978 51250.8699,797.796794 C51240.6315,791.195263 51226.3301,784.177311 51213.7095,784.211233 C51200.2809,784.247328 51189.4487,806.925307 51187.4317,814.148034 C51182.6198,831.379442 51189.0014,865.164453 51206.1209,875.68341 C51259.7426,908.630856 51341.5254,837.118994 51340.8313,780.640241 C51340.7958,777.758128 51340.3771,774.760089 51339.1273,772.162806 C51335.7314,765.105445 51328.1471,758.603122 51320.9237,755.989982 C51318.4765,755.104668 51313.5298,760.912702 51310.4643,765.235487 C51299.8692,780.176035 51288.3347,799.932367 51284.9831,818.181485 C51279.156,849.909546 51282.2482,875.163493 51304.5047,899.331496 C51315.188,910.932314 51327.5876,925.131286 51344.0188,928.950058 C51348.0687,929.891299 51352.4637,931.666361 51356.412,930.363047 C51362.9263,928.212725 51367.9212,922.894643 51373.6758,919.160441" id="Path-29"></path>
        </g>
    </g>
</svg>